<svg xmlns="http://www.w3.org/2000/svg" width="36" height="36" fill="none">
    <path fill="#FFCC4D" d="M36 18c0 9.941-8.059 18-18 18-9.94 0-18-8.059-18-18C0 8.06 8.06 0 18 0c9.941 0 18 8.06 18 18Z"/>
    <path fill="#FF7892" d="M29 28a5 5 0 1 0 0-10 5 5 0 0 0 0 10ZM7 28a5 5 0 1 0 0-10 5 5 0 0 0 0 10Z"/>
    <path fill="#F5F8FA" d="M24.5 22a5.5 5.5 0 1 0 0-11 5.5 5.5 0 0 0 0 11ZM11.5 22a5.5 5.5 0 1 0 0-11 5.5 5.5 0 0 0 0 11Z"/>
    <path fill="#292F33" d="M11.5 19a2.5 2.5 0 1 0 0-5 2.5 2.5 0 0 0 0 5ZM24.5 19a2.5 2.5 0 1 0 0-5 2.5 2.5 0 0 0 0 5Z"/>
    <path fill="#664500" d="M22 30h-8a1 1 0 1 1 0-2h8a1 1 0 1 1 0 2Zm8.001-19a.998.998 0 0 1-.801-.4c-2.64-3.521-6.061-3.598-6.206-3.6a1.002 1.002 0 0 1-.991-1.005A.997.997 0 0 1 23 5c.184 0 4.537.05 7.8 4.4a1 1 0 0 1-.799 1.6ZM5.999 11A1 1 0 0 1 5.2 9.4C8.462 5.05 12.816 5 13 5a1 1 0 0 1 .004 2c-.155.002-3.568.086-6.204 3.6a.998.998 0 0 1-.801.4Z"/>
</svg>