<svg width="36" height="39" viewBox="0 0 36 39" fill="none" xmlns="http://www.w3.org/2000/svg">
<path d="M36 18C36 27.9413 27.9413 36 18 36C8.05871 36 0 27.9413 0 18C0 8.05871 8.05871 0 18 0C27.9413 0 36 8.05871 36 18Z" fill="#FFCB4C"/>
<path d="M17.8009 26.5285C20.1763 26.5285 22.1019 25.6135 22.1019 24.4849C22.1019 23.3563 20.1763 22.4414 17.8009 22.4414C15.4256 22.4414 13.5 23.3563 13.5 24.4849C13.5 25.6135 15.4256 26.5285 17.8009 26.5285Z" fill="#65471B"/>
<path d="M25.7824 27.5095L25.7474 27.4883C24.8591 26.943 23.6859 27.2236 23.1406 28.1119L22.9807 28.3714C22.4068 27.7763 21.6572 27.3401 20.7911 27.1632L19.3098 26.8604L20.6566 20.2703C20.8652 19.2485 20.2002 18.2427 19.1795 18.0341L19.1393 18.0256C18.1175 17.817 17.1117 18.4819 16.9031 19.5027L15.1317 28.167L15.1158 28.2454L14.7844 29.8664L14.7833 29.877L13.5889 35.7355C13.356 36.8769 13.8748 38.1178 15.5954 38.1178H19.0588C22.0278 38.1178 22.9077 37.0484 23.5038 34.8429L26.406 30.1174C26.9502 29.229 26.6707 28.0558 25.7824 27.5095Z" fill="#F19020"/>
<path d="M22.6683 32.5512C22.6472 32.5512 22.6239 32.5491 22.6006 32.5449C22.4057 32.5089 22.2776 32.3204 22.3157 32.1245C22.3782 31.7942 22.3136 31.503 22.1177 31.2362C21.493 30.3806 19.6941 29.9921 19.0535 29.9148C18.8566 29.8915 18.7157 29.7115 18.7401 29.5156C18.7634 29.3186 18.9349 29.1757 19.1393 29.2022C19.2462 29.2138 21.7588 29.5304 22.6969 30.8126C23.0124 31.2436 23.1215 31.7317 23.0209 32.2611C22.9881 32.4316 22.8377 32.5512 22.6683 32.5512ZM19.2176 37.5595C18.9497 37.5595 18.6564 37.5266 18.3356 37.4515C17.6897 37.299 17.2344 36.9231 17.0862 36.4191C16.9613 35.9945 17.0756 35.5456 17.3922 35.2174C17.803 34.7917 18.4542 34.6519 19.1869 34.8383C19.3786 34.887 19.495 35.0829 19.4463 35.2756C19.3976 35.4662 19.2039 35.5837 19.009 35.535C18.5379 35.4143 18.1355 35.4821 17.91 35.7161C17.7744 35.8558 17.7247 36.0432 17.7755 36.2169C17.8486 36.4668 18.1133 36.6626 18.5008 36.7526C19.7502 37.0459 20.4416 36.5557 20.8027 36.0909C21.3406 35.3995 21.4041 34.4624 21.2124 34.095C20.7656 33.2352 19.0429 33.0446 18.4171 33.0436C18.2191 33.0436 18.0582 32.8826 18.0582 32.6846C18.0582 32.4866 18.2191 32.3257 18.4171 32.3257C18.5262 32.3257 21.1087 32.3416 21.8499 33.7646C22.1728 34.3841 22.0807 35.6186 21.3691 36.5324C21.043 36.9496 20.3707 37.5595 19.2176 37.5595ZM13.9997 13.9996C13.9997 15.4724 13.104 16.6668 11.9996 16.6668C10.8953 16.6668 9.9995 15.4735 9.9995 13.9996C9.9995 12.5268 10.8942 11.3324 11.9996 11.3324C13.104 11.3335 13.9997 12.5268 13.9997 13.9996ZM30.5851 10.875C30.8202 10.875 31.0563 10.8019 31.2596 10.6495C31.7573 10.2768 31.8568 9.57159 31.4841 9.075C27.8142 4.18112 22.9161 4.125 22.7096 4.125C22.0881 4.125 21.5851 4.629 21.5851 5.25053C21.5851 5.86994 22.086 6.37288 22.7054 6.375C22.8811 6.37712 26.7204 6.47135 29.6851 10.425C29.9054 10.7194 30.2431 10.875 30.5851 10.875ZM22.0002 13.9996C22.0002 15.4724 22.896 16.6668 24.0003 16.6668C25.1047 16.6668 26.0004 15.4735 26.0004 13.9996C26.0004 12.5268 25.1057 11.3324 24.0003 11.3324C22.8949 11.3335 22.0002 12.5268 22.0002 13.9996ZM5.4148 10.875C5.17974 10.875 4.94362 10.8019 4.74033 10.6495C4.24374 10.2768 4.14315 9.57159 4.51585 9.075C8.18574 4.18112 13.0839 4.125 13.2903 4.125C13.9119 4.125 14.4148 4.629 14.4148 5.25053C14.4148 5.86994 13.914 6.37288 13.2946 6.375C13.1188 6.37712 9.2795 6.47135 6.3148 10.425C6.09456 10.7194 5.7568 10.875 5.4148 10.875Z" fill="#65471B"/>
</svg>
