<svg width="100" height="100" fill="none" xmlns="http://www.w3.org/2000/svg">
    <path d="M17.9918 0.106288C22.9156 -0.315949 27.2291 2.34099 30.8989 5.26371C33.5951 7.71206 34.724 11.2078 35.4051 14.703C36.547 18.0929 36.1641 21.8695 34.4238 24.9874C33.9649 26.0807 33.8241 27.3656 33.1676 28.3365C31.2031 31.3785 27.9352 33.1095 24.6464 34.4276C21.5533 36.1402 17.7761 36.2475 14.3266 35.891C13.1552 35.6553 12.1784 34.8601 11.1009 34.4108C8.85136 33.6315 6.91149 32.3684 5.3163 30.6129C4.48574 29.778 3.39086 29.1486 2.73654 28.166C2.08644 27.1908 1.94125 25.9367 1.48954 24.8404C1.04625 23.7632 0.352848 22.7529 0.124794 21.5832C-0.0970183 20.4474 0.244655 19.2531 0.248585 18.0524C0.197037 15.6858 0.420822 13.3074 1.10677 11.0935C1.56565 10.0002 2.57411 9.21253 3.23058 8.24162C3.89237 7.26332 4.33867 6.12866 5.17468 5.30022C6.83833 3.60837 8.79662 2.15255 10.9546 1.14737C13.1899 0.466455 15.6051 0.1493 17.9918 0.106288Z" fill="#DA9F83"/>
    <path d="M16.9721 13.1563C16.5685 11.9088 17.2569 10.5695 18.5066 10.1681C19.7563 9.76557 21.0966 10.4518 21.4991 11.7036C21.9016 12.9554 21.6985 15.803 20.4488 16.2055C19.197 16.6069 17.3725 14.4092 16.9721 13.1563ZM16.2903 4.08C16.7675 4.48391 16.8287 5.19882 16.4238 5.67608C16.0188 6.15334 15.3049 6.21348 14.8266 5.80956C14.3504 5.40459 13.7127 4.20285 14.1166 3.72559C14.5216 3.24727 15.812 3.67502 16.2903 4.08ZM8.80236 27.3496C9.27962 27.7535 9.34081 28.4684 8.93584 28.9457C8.53086 29.4229 7.81808 29.4831 7.33869 29.0792C6.86249 28.6742 6.22478 27.4725 6.62869 26.9952C7.03367 26.5169 8.32403 26.9446 8.80236 27.3496ZM6.83887 14.5388C6.33017 15.3292 5.27694 15.5597 4.48661 15.0499C3.69522 14.5402 3.46679 13.487 3.9755 12.6956C4.48526 11.9042 6.15255 10.7206 6.94288 11.2293C7.73533 11.7401 7.3497 13.7474 6.83887 14.5388ZM13.394 22.9525C12.2636 23.4941 10.9046 23.0121 10.3651 21.8785C9.82562 20.7448 10.3086 19.389 11.4423 18.8495C12.577 18.3101 15.3019 18.1401 15.8393 19.2737C16.3798 20.4095 14.5298 22.4152 13.394 22.9525ZM28.3258 21.9172C27.4025 21.2767 27.1716 20.0075 27.8141 19.0863C28.4577 18.163 29.7248 17.9342 30.6481 18.5768C31.5714 19.2193 32.9126 21.2609 32.2711 22.1821C31.6286 23.1064 29.248 22.5597 28.3258 21.9172ZM27.9306 11.3139C27.4666 12.0398 26.5002 12.2505 25.7754 11.7822C25.0517 11.3161 24.842 10.3508 25.3092 9.62599C25.7753 8.90116 27.3036 7.81663 28.0263 8.28382C28.7532 8.74996 28.3989 10.589 27.9306 11.3139ZM18.4725 31.2693C17.5719 30.4595 17.4992 29.0732 18.31 28.1738C19.1219 27.2743 20.506 27.2026 21.4044 28.0134C22.306 28.8243 23.464 31.1882 22.6521 32.0866C21.8413 32.9882 19.3709 32.0811 18.4725 31.2693Z" fill="#8A4B38"/>
</svg>