<svg width="36" height="16" viewBox="0 0 36 16" fill="none" xmlns="http://www.w3.org/2000/svg">
<path d="M18 0C8.05871 0 0 3.55553 0 7.94117C0 12.3268 8.05871 15.8824 18 15.8824C27.9413 15.8824 36 12.3268 36 7.94117C36 3.55553 27.9413 0 18 0Z" fill="#31373D"/>
<path d="M34.8046 8.77006C34.8882 8.499 34.9412 8.22371 34.9412 7.941C34.9412 6.43959 33.713 5.10759 31.7647 4.02441V6.96583C32.9114 7.50583 33.9353 8.10936 34.8046 8.77006ZM4.23531 4.02441C2.28707 5.10759 1.05884 6.43959 1.05884 7.941C1.05884 8.22371 1.11178 8.499 1.19543 8.77006C2.06472 8.10936 3.0886 7.50583 4.23531 6.96583V4.02441Z" fill="#7D8B93"/>
<path d="M17.9999 1.05859C12.9536 1.05859 7.54935 2.18095 4.23523 4.02436V6.96577C7.83311 5.27377 12.6709 4.23506 17.9999 4.23506C23.329 4.23506 28.1668 5.27377 31.7646 6.96577V4.02436C28.4505 2.18095 23.0463 1.05859 17.9999 1.05859Z" fill="#CCD6DD"/>
</svg>
