<!-- <svg width="32" height="32" viewBox="0 0 32 32" fill="none" xmlns="http://www.w3.org/2000/svg">
    <path d="M16 32C24.8366 32 32 24.8366 32 16C32 7.16344 24.8366 0 16 0C7.16344 0 0 7.16344 0 16C0 24.8366 7.16344 32 16 32Z" fill="#EA596E"/>
    <path d="M23.2224 26.0097C23.1975 26.0097 23.1717 26.0071 23.1477 26.0008C15.6597 24.2746 8.92905 25.9813 8.8615 25.9991C8.76283 26.0239 8.65616 26.0035 8.5735 25.9404C8.49261 25.8764 8.44461 25.7795 8.44461 25.6764C8.44461 22.8515 11.7451 19.5679 16.0002 19.5679C20.2553 19.5679 23.5557 22.8515 23.5557 25.6764C23.5557 25.7777 23.5095 25.8746 23.4295 25.9377C23.3699 25.9839 23.2971 26.0097 23.2224 26.0097ZM25.7779 10.6666C20.8411 10.6666 18.8428 6.78483 18.7602 6.6195C18.5406 6.18038 18.7184 5.64616 19.1575 5.42661C19.5957 5.20705 20.1282 5.38394 20.3486 5.82038C20.4153 5.95016 21.9673 8.88883 25.7779 8.88883C26.2695 8.88883 26.6668 9.28705 26.6668 9.77772C26.6668 10.2684 26.2695 10.6666 25.7779 10.6666ZM6.22238 10.6666C5.73172 10.6666 5.3335 10.2684 5.3335 9.77772C5.3335 9.28705 5.73172 8.88883 6.22238 8.88883C10.7406 8.88883 11.5522 6.1155 11.5851 5.99727C11.7139 5.52794 12.2002 5.2435 12.6686 5.36705C13.1397 5.49061 13.4251 5.96527 13.3068 6.43816C13.2633 6.61061 12.1815 10.6666 6.22238 10.6666Z" fill="#292F33"/>
    <path d="M10.6666 17.7776C11.8939 17.7776 12.8888 16.3848 12.8888 14.6665C12.8888 12.9483 11.8939 11.5554 10.6666 11.5554C9.43926 11.5554 8.44434 12.9483 8.44434 14.6665C8.44434 16.3848 9.43926 17.7776 10.6666 17.7776Z" fill="#292F33"/>
    <path d="M21.3336 17.7776C22.5609 17.7776 23.5558 16.3848 23.5558 14.6665C23.5558 12.9483 22.5609 11.5554 21.3336 11.5554C20.1063 11.5554 19.1113 12.9483 19.1113 14.6665C19.1113 16.3848 20.1063 17.7776 21.3336 17.7776Z" fill="#292F33"/>
    <path d="M16.5594 20.5148V21.2499L15.5896 21.2508V20.5068C13.5656 20.6197 11.8643 21.5397 10.7407 22.7433L10.7478 23.1531C10.8243 25.7593 12.5967 28.3104 16.0741 28.3104C19.5398 28.3104 21.3114 25.7762 21.3994 23.1788L21.4074 22.9264C20.3149 21.6686 18.6118 20.6713 16.5594 20.5148Z" fill="#F4ABBA"/>
    <path d="M16 20.4883C15.8605 20.4883 15.7262 20.5007 15.5894 20.5078V24.4607C15.5894 24.7283 15.8062 24.9452 16.0738 24.9452C16.3414 24.9452 16.5582 24.7283 16.5582 24.4607V20.5158C16.3742 20.5007 16.1902 20.4883 16 20.4883Z" fill="#EA596E"/>
    <path d="M31.9161 10.7217C31.9161 13.223 29.8895 15.2497 27.3881 15.2497C24.8868 15.2497 22.8601 13.223 22.8601 10.7217C22.8601 8.22035 26.4824 1.66569 27.3881 1.66569C28.2939 1.66569 31.9161 8.22124 31.9161 10.7217ZM7.62014 7.50035C7.62014 9.55635 5.95347 11.223 3.89747 11.223C1.84147 11.223 0.174805 9.55635 0.174805 7.50035C0.174805 5.44435 3.15258 0.0559082 3.89747 0.0559082C4.64236 0.0559082 7.62014 5.44435 7.62014 7.50035Z" fill="#5DADEC"/>
</svg>
     -->
     <svg width="44" height="44" viewBox="0 0 44 44" fill="none" xmlns="http://www.w3.org/2000/svg">
        <path d="M22 44C34.1503 44 44 34.1503 44 22C44 9.84974 34.1503 0 22 0C9.84974 0 0 9.84974 0 22C0 34.1503 9.84974 44 22 44Z" fill="#EA596E"/>
        <path id="eyebrowL" d="M8.55572 14.6665C7.88105 14.6665 7.3335 14.1189 7.3335 13.4442C7.3335 12.7696 7.88105 12.222 8.55572 12.222C14.7683 12.222 15.8842 8.40868 15.9294 8.24612C16.1066 7.60079 16.7752 7.20968 17.4193 7.37957C18.0671 7.54946 18.4594 8.20212 18.2968 8.85234C18.2369 9.08946 16.7495 14.6665 8.55572 14.6665Z" fill="#292F33"/>
        <path id="eyebrowR" d="M35.4448 14.6665C28.6566 14.6665 25.909 9.32905 25.7954 9.10172C25.4935 8.49794 25.7379 7.76338 26.3417 7.46149C26.9443 7.1596 27.6764 7.40283 27.9795 8.00294C28.0712 8.18138 30.2052 12.222 35.4448 12.222C36.1207 12.222 36.667 12.7696 36.667 13.4443C36.667 14.1189 36.1207 14.6665 35.4448 14.6665Z" fill="#292F33"/>
        <path d="M31.9308 35.7632C31.8965 35.7632 31.8611 35.7595 31.8281 35.751C21.5321 33.3774 12.2774 35.7241 12.1846 35.7485C12.0489 35.7828 11.9022 35.7547 11.7886 35.6679C11.6773 35.5799 11.6113 35.4467 11.6113 35.3049C11.6113 31.4207 16.1494 26.9058 22.0002 26.9058C27.851 26.9058 32.3891 31.4207 32.3891 35.3049C32.3891 35.4442 32.3255 35.5774 32.2155 35.6642C32.1337 35.7278 32.0334 35.7632 31.9308 35.7632Z" fill="#292F33"/>
        <path class="eye" d="M14.6664 24.4442C16.3539 24.4442 17.722 22.529 17.722 20.1664C17.722 17.8039 16.3539 15.8887 14.6664 15.8887C12.9789 15.8887 11.6108 17.8039 11.6108 20.1664C11.6108 22.529 12.9789 24.4442 14.6664 24.4442Z" fill="#292F33"/>
        <path class="eye" d="M29.3339 24.4442C31.0214 24.4442 32.3894 22.529 32.3894 20.1664C32.3894 17.8039 31.0214 15.8887 29.3339 15.8887C27.6463 15.8887 26.2783 17.8039 26.2783 20.1664C26.2783 22.529 27.6463 24.4442 29.3339 24.4442Z" fill="#292F33"/>
        <path class="tounge" d="M22.7692 28.2078V29.2186L21.4358 29.2198V28.1968C18.6528 28.352 16.3134 29.617 14.7686 31.2719L14.7783 31.8353C14.8834 35.4189 17.3206 38.9267 22.1019 38.9267C26.8673 38.9267 29.3032 35.4421 29.4242 31.8708L29.4352 31.5237C27.9331 29.7942 25.5913 28.4229 22.7692 28.2078Z" fill="#F4ABBA"/>
        <path class="tounge" d="M22.0002 28.1714C21.8083 28.1714 21.6238 28.1885 21.4355 28.1983V33.6335C21.4355 34.0014 21.7338 34.2996 22.1017 34.2996C22.4695 34.2996 22.7678 34.0014 22.7678 33.6335V28.2093C22.5148 28.1885 22.2618 28.1714 22.0002 28.1714Z" fill="#EA596E"/>
        <path class="droplet" d="M43.8846 14.7423C43.8846 18.1816 41.0979 20.9683 37.6586 20.9683C34.2193 20.9683 31.4326 18.1816 31.4326 14.7423C31.4326 11.303 36.4132 2.29028 37.6586 2.29028C38.9041 2.29028 43.8846 11.3042 43.8846 14.7423Z" fill="#5DADEC"/>
        <path class="droplet" d="M10.4776 10.313C10.4776 13.14 8.1859 15.4317 5.3589 15.4317C2.5319 15.4317 0.240234 13.14 0.240234 10.313C0.240234 7.48602 4.33468 0.0769043 5.3589 0.0769043C6.38312 0.0769043 10.4776 7.48602 10.4776 10.313Z" fill="#5DADEC"/>
    </svg>