<svg width="256" height="256" fill="none" xmlns="http://www.w3.org/2000/svg">
  <g clip-path="url(#a)">
    <path d="M220.445 128H35.555c-7.822 0-14.221 6.4-14.221 14.222v106.667c0 3.911 3.2 7.111 7.11 7.111h199.112c3.911 0 7.111-3.2 7.111-7.111V142.222c0-7.822-6.4-14.222-14.222-14.222Z" fill="#D99E82"/>
    <path d="M99.556 184.889h56.889V256h-56.89v-71.111Z" fill="#662113"/>
    <path d="M234.667 175.438v-16.689H21.333v16.64c2.276-.946 4.445-2.632 4.445-2.632s3.492 3.257 6.983 3.855c3.492.59 6.03-4.146 6.03-4.146s2.539 3.555 7.303 3.555c4.765 0 5.718-3.555 5.718-3.555s1.273 3.555 5.717 3.854c4.444.299 6.03-3.555 6.03-3.555s.953 3.256 6.35 3.555c5.398.299 5.71-3.854 5.71-3.854s1.587 2.965 5.398 3.257c3.812.298 6.03-2.966 6.03-2.966s2.539 3.556 6.67 3.556c4.125 0 6.03-2.965 6.03-2.965s.634 3.854 4.765 3.854c4.125 0 6.35-4.146 6.35-4.146s0 3.854 4.765 3.854c4.764 0 6.35-3.555 6.35-3.555s0 3.854 4.444 3.854c4.445 0 6.984-3.854 6.984-3.854s.32 4.146 5.717 3.854c5.397-.299 6.67-3.854 6.67-3.854s1.586 3.555 5.397 3.854c3.812.299 5.711-3.854 5.711-3.854s.32 4.146 5.077 3.555c4.764-.59 5.71-3.854 5.71-3.854s.633 4.743 5.398 4.445c4.764-.299 6.03-4.146 6.03-4.146s1.273 4.146 5.71 4.146c4.444 0 5.397-3.855 5.397-3.855s0 4.146 5.078 3.855c5.077-.299 6.983-4.146 6.983-4.146s1.586 3.854 6.67 3.854c5.085 0 5.397-3.556 5.397-3.556s1.586 3.556 6.031 3.257c4.444-.298 5.397-3.257 5.397-3.257s2.539 3.257 5.717 3.257c1.309-.007 2.34-.704 3.172-1.472Z" fill="#C1694F"/>
    <path opacity=".3" d="M35.556 256h-7.111a7.11 7.11 0 0 1-7.111-7.111v-99.556h14.222V256Zm192 0h-7.111V149.333h14.222v99.556a7.108 7.108 0 0 1-7.111 7.111Z" fill="#662113"/>
    <path opacity=".15" d="M35.556 149.333H71.11V256H35.556V149.333Zm149.333 0h35.556V256h-35.556V149.333Z" fill="#662113"/>
    <path d="M129.721 30.108a3.484 3.484 0 0 0-4.124-.05c-8.384 5.853-40.854 32.463-73.807 64.264C25.657 119.538 8.62 146.666.86 156.857c-2.019 2.659-.234 6.599 2.959 6.599h248.377c3.278 0 5.027-4.153 2.83-6.763-11.108-13.198-36.637-48.939-58.261-68.999-25.408-23.56-58.56-51.4-67.044-57.586Z" fill="#FFD983"/>
    <path d="M120.868 37s-7.133-9.06-5.839-12.893c1.053-3.108 5.511-2.44 6.166 0 0 0 1.294-5.575 4.217-6.272 2.915-.697 4.216 5.226 4.216 5.226s2.596-5.226 5.512-4.18c2.915 1.044.974 6.62.974 6.62s2.268-3.833 5.511-1.394c3.243 2.439-8.754 14.635-8.754 14.635s-9.728 2.09-12.003-1.743ZM11.25 158.598c-1.622 5.227 2.268 8.711 5.19 9.06 2.924.348 7.46-3.833 7.46-3.833s3.57 3.833 7.133 4.53c3.563.697 6.165-4.878 6.165-4.878s2.596 4.181 7.46 4.181 5.838-4.181 5.838-4.181 1.294 4.181 5.838 4.529c4.544.349 6.166-4.181 6.166-4.181s.974 3.833 6.485 4.181c5.511.349 5.838-4.529 5.838-4.529s1.621 3.484 5.511 3.832c3.89.349 6.158-3.484 6.158-3.484s2.596 4.181 6.813 4.181 6.165-3.484 6.165-3.484.647 4.53 4.864 4.53 6.486-4.879 6.486-4.879 0 4.53 4.864 4.53 6.485-4.181 6.485-4.181 0 4.53 4.544 4.53 7.132-4.53 7.132-4.53.327 4.878 5.839 4.53c5.511-.349 6.812-4.53 6.812-4.53s1.621 4.181 5.511 4.53c3.89.348 5.838-4.53 5.838-4.53s.327 4.878 5.191 4.181c4.864-.697 5.839-4.53 5.839-4.53s.647 5.576 5.511 5.227c4.864-.348 6.158-4.878 6.158-4.878s1.294 4.878 5.838 4.878c4.544 0 5.511-4.53 5.511-4.53s0 4.879 5.191 4.53c5.192-.348 7.133-4.878 7.133-4.878s1.621 4.53 6.812 4.53c5.191 0 5.511-4.182 5.511-4.182s1.622 4.182 6.166 3.833c4.544-.348 5.511-3.833 5.511-3.833s2.595 3.833 5.838 3.833 5.191-4.53 5.191-4.53 1.949 5.227 6.486 4.182c4.544-1.046 3.242-6.621 3.242-6.621l-8.106-7.317-206.592-.697-23.026 4.878Z" fill="#FFD983"/>
    <path d="M114.382 50.233s-46.379 35.534-61.945 52.259c-15.566 16.726-31.46 49.131-31.46 49.131S50.49 111.9 58.276 103.538c7.787-8.356 56.107-53.305 56.107-53.305Zm39.246 11.15s17.188 20.907 24.974 29.262c7.787 8.363 34.376 59.236 34.376 59.236s-24.975-37.639-33.728-50.873c-6.379-9.635-25.622-37.625-25.622-37.625Zm-43.463 4.53s-19.136 21.603-28.544 37.625c-9.273 15.822-14.585 38.684-14.585 38.684s21.028-35.797 26.596-45.994l16.533-30.315Zm25.949 6.272s1.592 21.703 4.864 40.064c2.915 16.377 7.786 42.162 7.786 42.162s-2.268-31.019-4.864-48.783c-2.418-16.519-7.786-33.443-7.786-33.443Z" fill="#FFAC33"/>
    <path opacity=".9" d="M35.257 194.076s-6.52 40.299 0 54.521c0 0 .59-34.076.59-41.187 0-7.112-.59-13.334-.59-13.334Zm185.188-6.222s6.812 49.778.298 64c0 0-1.713-39.111-1.713-46.222 0-7.111 1.415-17.778 1.415-17.778Z" fill="#C1694F"/>
    <path opacity=".7" d="M70.813 182.521s-6.222 56.889.299 71.111c0 0 .59-43.556.59-50.667 0-7.111-.89-20.444-.89-20.444Zm113.55-2.077s7.047 52.445.526 66.667c0 0-1.116-32.299-1.116-39.41 0-7.111.59-27.257.59-27.257Z" fill="#C1694F"/>
  </g>
  <defs>
    <clipPath id="a">
      <path fill="#fff" d="M0 0h256v256H0z"/>
    </clipPath>
  </defs>
</svg>