<svg width="36" height="36" viewBox="0 0 36 36" fill="none" xmlns="http://www.w3.org/2000/svg">
<path d="M31.7647 1.05859H4.23531C2.48084 1.05859 1.05884 2.48059 1.05884 4.23506V31.7645C1.05884 33.5189 2.48084 34.9409 4.23531 34.9409H31.7647C33.5192 34.9409 34.9412 33.5189 34.9412 31.7645V4.23506C34.9412 2.48059 33.5192 1.05859 31.7647 1.05859Z" fill="#CCD6DD"/>
<path d="M31.7647 0H4.23529C1.89635 0 0 1.89635 0 4.23529V31.7647C0 34.1036 1.89635 36 4.23529 36H31.7647C34.1036 36 36 34.1036 36 31.7647V4.23529C36 1.89635 34.1036 0 31.7647 0ZM31.7647 2.11765C32.9326 2.11765 33.8824 3.06741 33.8824 4.23529V8.47059H27.5294V2.11765H31.7647ZM27.5294 19.0588H33.8824V25.4118H27.5294V19.0588ZM27.5294 16.9412V10.5882H33.8824V16.9412H27.5294ZM25.4118 2.11765V8.47059H19.0588V2.11765H25.4118ZM19.0588 10.5882H25.4118V16.9412H19.0588V10.5882ZM19.0588 19.0588H25.4118V25.4118H19.0588V19.0588ZM16.9412 2.11765V8.47059H10.5882V2.11765H16.9412ZM10.5882 10.5882H16.9412V16.9412H10.5882V10.5882ZM10.5882 19.0588H16.9412V25.4118H10.5882V19.0588ZM2.11765 4.23529C2.11765 3.06741 3.06741 2.11765 4.23529 2.11765H8.47059V8.47059H2.11765V4.23529ZM2.11765 10.5882H8.47059V16.9412H2.11765V10.5882ZM2.11765 19.0588H8.47059V25.4118H2.11765V19.0588ZM4.23529 33.8824C3.06741 33.8824 2.11765 32.9326 2.11765 31.7647V27.5294H8.47059V33.8824H4.23529ZM10.5882 33.8824V27.5294H16.9412V33.8824H10.5882ZM19.0588 33.8824V27.5294H25.4118V33.8824H19.0588ZM31.7647 33.8824H27.5294V27.5294H33.8824V31.7647C33.8824 32.9326 32.9326 33.8824 31.7647 33.8824Z" fill="#E1E8ED"/>
<path d="M4.23315 33.8824C3.89433 33.8824 3.55021 33.8019 3.2315 33.6293C2.20127 33.0755 1.81691 31.7912 2.37068 30.761L9.78244 16.9962C10.099 16.4065 10.6771 16.002 11.3389 15.9046C12.0017 15.8072 12.6709 16.0295 13.1442 16.5028L19.5776 22.9362L29.8884 3.25272C30.4306 2.21719 31.7107 1.8159 32.7462 2.36013C33.7828 2.90225 34.182 4.18237 33.6399 5.21896L21.9928 27.4542C21.6804 28.0514 21.1023 28.4633 20.4363 28.566C19.7724 28.6624 19.0959 28.4464 18.6194 27.9699L12.1606 21.5121L6.09986 32.7685C5.71762 33.479 4.98703 33.8824 4.23315 33.8824Z" fill="#DD2E44"/>
</svg>
