<svg width="37" height="36" viewBox="0 0 37 36" fill="none" xmlns="http://www.w3.org/2000/svg">
<path d="M18.8993 36C28.8404 36 36.8993 27.9411 36.8993 18C36.8993 8.05887 28.8404 0 18.8993 0C8.95817 0 0.899292 8.05887 0.899292 18C0.899292 27.9411 8.95817 36 18.8993 36Z" fill="#FFCC4D"/>
<path d="M21.8953 27C21.7923 27 21.6893 26.984 21.5863 26.951C19.8263 26.38 17.9713 26.38 16.2113 26.951C15.6873 27.12 15.1223 26.834 14.9513 26.309C14.7803 25.784 15.0683 25.22 15.5943 25.049C17.7563 24.347 20.0413 24.347 22.2033 25.049C22.7283 25.22 23.0163 25.784 22.8463 26.309C22.7093 26.73 22.3173 27 21.8953 27Z" fill="#65471B"/>
<path d="M31.2343 12.068C30.3313 14.813 27.7493 16.783 24.7403 16.783C24.5963 16.783 24.4513 16.778 24.3053 16.769C22.8283 16.676 21.4633 16.114 20.3553 15.185C20.3913 15.68 20.4313 16.182 20.4913 16.725C20.6433 18.113 21.3753 19.207 22.6073 19.888C23.4273 20.342 24.4073 20.576 25.4203 20.64C27.1543 20.749 28.9903 20.36 30.2933 19.731C31.6703 19.066 32.5653 17.869 32.7493 16.446C32.9323 15.031 32.3953 13.522 31.2343 12.068Z" fill="white"/>
<path d="M22.2503 7.58305C20.9533 8.13305 20.3033 9.88405 20.2733 12.8721L20.3123 12.9401C21.2093 14.2591 22.6853 15.1641 24.4003 15.2721C24.5143 15.2791 24.6283 15.2831 24.7413 15.2831C27.3753 15.2831 29.5903 13.3461 29.9943 10.7591C29.8793 10.6541 29.7733 10.5471 29.6513 10.4431C25.9363 7.27305 23.1843 7.18605 22.2503 7.58305Z" fill="#65471B"/>
<path d="M24.7403 16.783C27.7493 16.783 30.3313 14.813 31.2343 12.068C30.8803 11.625 30.4633 11.188 29.9933 10.759C29.5893 13.346 27.3743 15.283 24.7403 15.283C24.6273 15.283 24.5133 15.279 24.3993 15.272C22.6843 15.164 21.2083 14.259 20.3113 12.94L20.2723 12.872C20.2653 13.573 20.2933 14.345 20.3553 15.185C21.4633 16.114 22.8283 16.676 24.3053 16.769C24.4513 16.779 24.5963 16.783 24.7403 16.783Z" fill="#F4900C"/>
<path d="M22.3123 11.812C22.9237 11.812 23.4193 11.3164 23.4193 10.705C23.4193 10.0936 22.9237 9.59802 22.3123 9.59802C21.7009 9.59802 21.2053 10.0936 21.2053 10.705C21.2053 11.3164 21.7009 11.812 22.3123 11.812Z" fill="white"/>
<path d="M13.0583 16.783C10.0493 16.783 7.46729 14.813 6.56429 12.068C5.40329 13.522 4.86729 15.031 5.04929 16.445C5.23429 17.868 6.12829 19.066 7.50529 19.73C8.80829 20.359 10.6433 20.748 12.3783 20.639C13.3913 20.575 14.3713 20.342 15.1913 19.887C16.4223 19.206 17.1543 18.112 17.3073 16.724C17.3673 16.182 17.4073 15.682 17.4433 15.188C16.3403 16.111 14.9733 16.675 13.4933 16.768C13.3473 16.779 13.2023 16.783 13.0583 16.783Z" fill="white"/>
<path d="M13.0583 15.2829C13.1713 15.2829 13.2853 15.2789 13.3993 15.2719C15.1143 15.1639 16.5903 14.2589 17.4873 12.9399L17.5263 12.8719C17.4953 9.88395 16.8463 8.13295 15.5493 7.58295C14.6153 7.18595 11.8623 7.27295 8.1483 10.4419C8.0263 10.5459 7.9213 10.6529 7.8053 10.7579C8.2093 13.3459 10.4243 15.2829 13.0583 15.2829Z" fill="#65471B"/>
<path d="M17.5253 12.872L17.4863 12.94C16.5893 14.259 15.1133 15.164 13.3983 15.272C13.2843 15.279 13.1703 15.283 13.0573 15.283C10.4233 15.283 8.20829 13.346 7.80429 10.759C7.33429 11.188 6.91729 11.625 6.56329 12.068C7.46629 14.813 10.0483 16.783 13.0573 16.783C13.2013 16.783 13.3463 16.778 13.4923 16.769C14.9723 16.676 16.3393 16.112 17.4423 15.189C17.5043 14.348 17.5333 13.575 17.5253 12.872Z" fill="#F4900C"/>
<path d="M10.6803 11.81C11.2903 11.772 11.7543 11.246 11.7153 10.636C11.6773 10.026 11.1513 9.56196 10.5413 9.59996C9.93129 9.63796 9.46729 10.164 9.50529 10.774C9.54429 11.384 10.0703 11.848 10.6803 11.81Z" fill="white"/>
</svg>
