<svg width="37" height="36" viewBox="0 0 37 36" fill="none" xmlns="http://www.w3.org/2000/svg">
<path d="M36.8993 18C36.8993 27.941 28.8403 36 18.8993 36C8.95929 36 0.899292 27.941 0.899292 18C0.899292 8.06 8.95929 0 18.8993 0C28.8403 0 36.8993 8.06 36.8993 18Z" fill="#FFCC4D"/>
<path d="M17.5633 10.543C17.3563 10.453 17.1123 10.513 16.9713 10.691C16.9623 10.703 15.9923 11.893 13.6363 12.535C12.8613 12.747 12.1053 12.854 11.3913 12.854C10.3993 12.854 9.83229 12.642 9.82929 12.641C9.61929 12.556 9.37629 12.627 9.24229 12.81C9.10729 12.994 9.11429 13.245 9.25829 13.422C9.32929 13.509 11.0383 15.569 13.3833 15.569C13.7343 15.569 14.0853 15.522 14.4263 15.429C17.2803 14.651 17.8363 11.221 17.8583 11.075C17.8923 10.852 17.7713 10.634 17.5633 10.543ZM28.5383 12.698C28.4003 12.517 28.1583 12.453 27.9483 12.539C27.9423 12.542 27.3153 12.795 26.2113 12.795C25.5503 12.795 24.8533 12.706 24.1383 12.53C21.7693 11.947 20.7693 10.781 20.7613 10.772C20.6153 10.596 20.3733 10.539 20.1653 10.635C19.9583 10.73 19.8423 10.953 19.8823 11.177C19.9083 11.322 20.5503 14.737 23.4213 15.444C23.7323 15.521 24.0503 15.56 24.3673 15.56C26.7633 15.56 28.4663 13.4 28.5373 13.308C28.6753 13.127 28.6743 12.878 28.5383 12.698ZM10.8973 9.99999C10.4493 9.99999 10.0423 9.69699 9.92829 9.24299C9.79529 8.70799 10.1193 8.16599 10.6523 8.03099C10.6883 8.02199 14.2453 7.06999 16.0043 3.55299C16.2513 3.05899 16.8503 2.85799 17.3463 3.10599C17.8403 3.35299 18.0403 3.95399 17.7933 4.44799C15.6123 8.80899 11.3223 9.92499 11.1413 9.97099C11.0603 9.99099 10.9783 9.99999 10.8973 9.99999ZM26.8993 9.99999C26.8193 9.99999 26.7383 9.98999 26.6573 9.96999C26.4753 9.92499 22.1853 8.80799 20.0053 4.44699C19.7583 3.95299 19.9583 3.35199 20.4523 3.10499C20.9453 2.85799 21.5463 3.05799 21.7943 3.55199C23.5523 7.06899 27.1093 8.02099 27.1463 8.02999C27.6793 8.16699 28.0033 8.71099 27.8683 9.24499C27.7523 9.69799 27.3463 9.99999 26.8993 9.99999ZM18.8993 28.965C15.2763 28.965 12.8723 29.387 9.89929 29.965C9.22029 30.096 7.89929 29.965 7.89929 27.965C7.89929 23.965 12.4943 18.965 18.8993 18.965C25.3033 18.965 29.8993 23.965 29.8993 27.965C29.8993 29.965 28.5783 30.097 27.8993 29.965C24.9263 29.387 22.5223 28.965 18.8993 28.965Z" fill="#664500"/>
<path d="M10.8993 25C10.8993 25 13.8993 24 18.8993 24C23.8993 24 26.8993 25 26.8993 25C26.8993 25 24.8993 21 18.8993 21C12.8993 21 10.8993 25 10.8993 25Z" fill="white"/>
</svg>
