<svg width="73" height="73" viewBox="0 0 73 73" fill="none" xmlns="http://www.w3.org/2000/svg">
<g filter="url(#filter0_d_197_35)">
<path d="M36.5 65C54.4493 65 69 50.4493 69 32.5C69 14.5507 54.4493 0 36.5 0C18.5507 0 4 14.5507 4 32.5C4 50.4493 18.5507 65 36.5 65Z" fill="#FFCC4D"/>
<path d="M32.8892 30.6185C32.1327 30.6185 31.4285 30.14 31.1757 29.3835C30.8092 28.3019 29.3377 25.2018 27.4725 25.2018C25.555 25.2018 24.0637 28.5005 23.7694 29.3835C23.4534 30.3278 22.4369 30.8423 21.4853 30.5246C20.5392 30.2104 20.0282 29.1866 20.3442 28.2405C20.5699 27.5598 22.6987 21.5889 27.4744 21.5889C32.25 21.5889 34.377 27.5598 34.6045 28.2405C34.9205 29.1866 34.4095 30.2104 33.4634 30.5246C33.272 30.5896 33.0788 30.6185 32.8892 30.6185ZM50.9448 30.6185C50.1882 30.6185 49.4841 30.14 49.2331 29.3835C48.8666 28.3019 47.3932 25.2018 45.5281 25.2018C43.6106 25.2018 42.1174 28.5005 41.8231 29.3835C41.5071 30.3278 40.4942 30.8423 39.5391 30.5246C38.5948 30.2104 38.082 29.1866 38.398 28.2405C38.6237 27.5598 40.7524 21.5889 45.5263 21.5889C50.3002 21.5889 52.4289 27.5598 52.6546 28.2405C52.9706 29.1866 52.4596 30.2104 51.5135 30.5246C51.3257 30.5896 51.1344 30.6185 50.9448 30.6185ZM53.3552 37.3586C53.0338 37.0679 52.5535 37.0498 52.2087 37.3062C52.1382 37.3586 45.1273 42.5423 36.5003 42.5423C27.895 42.5423 20.8606 37.3586 20.792 37.3062C20.4471 37.0498 19.9669 37.0715 19.6455 37.3586C19.3259 37.6475 19.2537 38.1241 19.4757 38.4925C19.7087 38.8807 25.2842 47.959 36.5003 47.959C47.7164 47.959 53.2938 38.8807 53.5249 38.4925C53.747 38.1223 53.6766 37.6493 53.3552 37.3586Z" fill="#664500"/>
<path d="M42.3299 7.12642C42.3299 7.55976 42.3841 7.97865 42.4779 8.38309C43.2453 13.1552 48.5518 18.1891 52.3543 19.5721C55.3606 18.4798 59.2985 15.1016 61.1979 11.3767C57.4261 6.97115 52.497 3.58753 46.8817 1.69531C44.2961 2.15934 42.3299 4.40726 42.3299 7.12642ZM28.8135 52.5018C28.9164 52.0649 28.976 51.6099 28.976 51.1405C28.976 47.8309 26.2929 45.1478 22.9834 45.1478C20.9738 45.1478 19.2025 46.1391 18.1138 47.6557C17.0268 46.1409 15.2538 45.1478 13.2442 45.1478C11.0035 45.1478 9.07155 46.3918 8.04419 48.2136C11.3375 54.163 16.44 58.9693 22.6114 61.8889C25.5671 59.4496 28.2646 55.918 28.8135 52.5018ZM65.9321 46.298C65.4229 44.5827 63.8521 43.3242 61.9707 43.3242C60.5786 43.3242 59.3509 44.0103 58.5979 45.0611C57.845 44.0103 56.6172 43.3242 55.2252 43.3242C52.9321 43.3242 51.0742 45.1821 51.0742 47.4752C51.0742 47.8002 51.1157 48.1143 51.1861 48.4177C51.7404 51.8573 55.4256 55.4521 58.244 56.6528C61.4507 53.7639 64.0778 50.2485 65.9321 46.298Z" fill="#FFAC33"/>
<path d="M64.7119 5.90249C64.7119 2.84749 62.2347 0.37207 59.1815 0.37207C57.3272 0.37207 55.6913 1.28749 54.6875 2.68679C53.6836 1.28749 52.0477 0.37207 50.1934 0.37207C47.1384 0.37207 44.663 2.84749 44.663 5.90249C44.663 6.33582 44.7172 6.75471 44.8111 7.15915C45.5802 11.9312 50.885 16.9651 54.6875 18.3482C58.49 16.9651 63.7947 11.9312 64.562 7.16096C64.6577 6.75471 64.7119 6.33582 64.7119 5.90249ZM26.0423 51.2924C26.0423 47.9828 23.3593 45.2997 20.0497 45.2997C18.0401 45.2997 16.2688 46.291 15.1801 47.8076C14.0931 46.291 12.3201 45.2997 10.3105 45.2997C7.00093 45.2997 4.31787 47.9828 4.31787 51.2924C4.31787 51.7618 4.37745 52.215 4.47857 52.6537C5.31093 57.823 11.058 63.2776 15.1783 64.7762C19.2986 63.2794 25.0456 57.8249 25.878 52.6555C25.9827 52.215 26.0423 51.76 26.0423 51.2924ZM68.9062 47.1739C68.9062 44.8808 67.0483 43.0229 64.7552 43.0229C63.3631 43.0229 62.1354 43.709 61.3825 44.7599C60.6295 43.709 59.4018 43.0229 58.0097 43.0229C55.7166 43.0229 53.8587 44.8808 53.8587 47.1739C53.8587 47.4989 53.9002 47.813 53.9706 48.1164C54.5466 51.6968 58.5279 55.4758 61.3825 56.5122C64.2352 55.4758 68.2183 51.6968 68.7925 48.1164C68.8647 47.813 68.9062 47.4989 68.9062 47.1739Z" fill="#DD2E44"/>
</g>
<defs>
<filter id="filter0_d_197_35" x="0" y="0" width="73" height="73" filterUnits="userSpaceOnUse" color-interpolation-filters="sRGB">
<feFlood flood-opacity="0" result="BackgroundImageFix"/>
<feColorMatrix in="SourceAlpha" type="matrix" values="0 0 0 0 0 0 0 0 0 0 0 0 0 0 0 0 0 0 127 0" result="hardAlpha"/>
<feOffset dy="4"/>
<feGaussianBlur stdDeviation="2"/>
<feComposite in2="hardAlpha" operator="out"/>
<feColorMatrix type="matrix" values="0 0 0 0 0 0 0 0 0 0 0 0 0 0 0 0 0 0 0.25 0"/>
<feBlend mode="normal" in2="BackgroundImageFix" result="effect1_dropShadow_197_35"/>
<feBlend mode="normal" in="SourceGraphic" in2="effect1_dropShadow_197_35" result="shape"/>
</filter>
</defs>
</svg>