<svg width="96" height="96" viewBox="0 0 96 96" fill="none" xmlns="http://www.w3.org/2000/svg">
<path d="M77.6 59.6C80.8 65.6 84 68 84 68H12C12 68 24 60 24 32C24 18.8 34.8 8 48 8C50.8 8 53.2 8.4 55.6 9.2" stroke="black" stroke-width="2.33333" stroke-linecap="round" stroke-linejoin="round"/>
<path d="M41.2 84C41.8695 85.2178 42.8538 86.2334 44.05 86.9408C45.2461 87.6481 46.6103 88.0213 48 88.0213C49.3897 88.0213 50.7539 87.6481 51.95 86.9408C53.1462 86.2334 54.1305 85.2178 54.8 84" stroke="black" stroke-width="2.33333" stroke-linecap="round" stroke-linejoin="round"/>
<path d="M82.8333 32C82.8333 37.9831 77.9831 42.8333 72 42.8333C66.0169 42.8333 61.1667 37.9831 61.1667 32C61.1667 26.0169 66.0169 21.1667 72 21.1667C77.9831 21.1667 82.8333 26.0169 82.8333 32Z" stroke="black" stroke-width="2.33333" stroke-linecap="round" stroke-linejoin="round"/>
<circle cx="72" cy="32" r="13" fill="#FF1010"/>
</svg>
