<svg width="1020" height="559" fill="none" xmlns="http://www.w3.org/2000/svg">
    <path fill="#77B255" d="M0 0h1020v559H0z"/>
    <path d="M120 106.481s-5.263 0-9.211 6.204a9.937 9.937 0 0 0-.923 1.859c-1.542-7.632-4.34-11.785-4.34-11.785-.535 6.519-2.522 11.99-4.796 16.281C99.617 103.747 92.222 94 92.222 94c-.809 10.588-2.484 19.102-3.986 25.044-1.437-4.537-3.171-10.674-5.078-18.767 0 0-2.541 4.795-3.833 12.596-.038-.063-.075-.126-.114-.188-3.948-6.204-9.211-6.204-9.211-6.204 2.975 8.416 1.466 17.536.542 21.519a9.735 9.735 0 0 1 2.967-.462h42.982a9.73 9.73 0 0 1 2.967.462c-.924-3.983-2.433-13.103.542-21.519ZM300 508.481s-5.263 0-9.211 6.204a9.937 9.937 0 0 0-.923 1.859c-1.542-7.632-4.34-11.785-4.34-11.785-.535 6.519-2.522 11.99-4.796 16.281-1.113-15.293-8.508-25.04-8.508-25.04-.809 10.588-2.484 19.102-3.986 25.044-1.437-4.537-3.171-10.674-5.078-18.767 0 0-2.542 4.795-3.833 12.596-.038-.063-.075-.126-.114-.188-3.948-6.204-9.211-6.204-9.211-6.204 2.975 8.416 1.466 17.536.542 21.519a9.73 9.73 0 0 1 2.967-.462h42.982a9.73 9.73 0 0 1 2.967.462c-.924-3.983-2.433-13.103.542-21.519ZM563 123.481s-5.263 0-9.211 6.204a9.937 9.937 0 0 0-.923 1.859c-1.542-7.632-4.34-11.785-4.34-11.785-.535 6.519-2.522 11.99-4.796 16.281-1.113-15.293-8.508-25.04-8.508-25.04-.809 10.588-2.484 19.102-3.986 25.044-1.437-4.537-3.171-10.674-5.078-18.767 0 0-2.542 4.795-3.833 12.596-.038-.063-.075-.126-.114-.188-3.948-6.204-9.211-6.204-9.211-6.204 2.975 8.416 1.466 17.536.542 21.519a9.73 9.73 0 0 1 2.967-.462h42.982a9.73 9.73 0 0 1 2.967.462c-.924-3.983-2.433-13.103.542-21.519ZM493 379.481s-5.263 0-9.211 6.204a9.937 9.937 0 0 0-.923 1.859c-1.542-7.632-4.34-11.785-4.34-11.785-.535 6.519-2.522 11.99-4.796 16.281-1.113-15.293-8.508-25.04-8.508-25.04-.809 10.588-2.484 19.102-3.986 25.044-1.437-4.537-3.171-10.674-5.078-18.767 0 0-2.542 4.795-3.833 12.596-.038-.063-.075-.126-.114-.188-3.948-6.204-9.211-6.204-9.211-6.204 2.975 8.416 1.466 17.536.542 21.519a9.73 9.73 0 0 1 2.967-.462h42.982a9.73 9.73 0 0 1 2.967.462c-.924-3.983-2.433-13.103.542-21.519ZM898 171.481s-5.263 0-9.211 6.204a9.937 9.937 0 0 0-.923 1.859c-1.542-7.632-4.34-11.785-4.34-11.785-.535 6.519-2.522 11.99-4.796 16.281-1.113-15.293-8.508-25.04-8.508-25.04-.809 10.588-2.484 19.102-3.986 25.044-1.437-4.537-3.171-10.674-5.078-18.767 0 0-2.542 4.795-3.833 12.596-.038-.063-.075-.126-.114-.188-3.948-6.204-9.211-6.204-9.211-6.204 2.975 8.416 1.466 17.536.542 21.519a9.73 9.73 0 0 1 2.967-.462h42.982a9.73 9.73 0 0 1 2.967.462c-.924-3.983-2.433-13.103.542-21.519ZM729 294.481s-5.263 0-9.211 6.204a9.937 9.937 0 0 0-.923 1.859c-1.542-7.632-4.34-11.785-4.34-11.785-.535 6.519-2.522 11.99-4.796 16.281-1.113-15.293-8.508-25.04-8.508-25.04-.809 10.588-2.484 19.102-3.986 25.044-1.437-4.537-3.171-10.674-5.078-18.767 0 0-2.542 4.795-3.833 12.596-.038-.063-.075-.126-.114-.188-3.948-6.204-9.211-6.204-9.211-6.204 2.975 8.416 1.466 17.536.542 21.519a9.73 9.73 0 0 1 2.967-.462h42.982a9.73 9.73 0 0 1 2.967.462c-.924-3.983-2.433-13.103.542-21.519ZM145 453.481s-5.263 0-9.211 6.204a9.937 9.937 0 0 0-.923 1.859c-1.542-7.632-4.34-11.785-4.34-11.785-.535 6.519-2.522 11.99-4.796 16.281-1.113-15.293-8.508-25.04-8.508-25.04-.809 10.588-2.484 19.102-3.986 25.044-1.437-4.537-3.171-10.674-5.078-18.767 0 0-2.542 4.795-3.833 12.596-.038-.063-.075-.126-.114-.188-3.948-6.204-9.211-6.204-9.211-6.204 2.975 8.416 1.466 17.536.542 21.519a9.735 9.735 0 0 1 2.967-.462h42.982a9.73 9.73 0 0 1 2.967.462c-.924-3.983-2.433-13.103.542-21.519ZM120 222.481s-5.263 0-9.211 6.204a9.937 9.937 0 0 0-.923 1.859c-1.542-7.632-4.34-11.785-4.34-11.785-.535 6.519-2.522 11.99-4.796 16.281-1.113-15.293-8.508-25.04-8.508-25.04-.809 10.588-2.484 19.102-3.986 25.044-1.437-4.537-3.171-10.674-5.078-18.767 0 0-2.541 4.795-3.833 12.596-.038-.063-.075-.126-.114-.188-3.948-6.204-9.211-6.204-9.211-6.204 2.975 8.416 1.466 17.536.542 21.519a9.735 9.735 0 0 1 2.967-.462h42.982a9.73 9.73 0 0 1 2.967.462c-.924-3.983-2.433-13.103.542-21.519ZM723 491.481s-5.263 0-9.211 6.204a9.937 9.937 0 0 0-.923 1.859c-1.542-7.632-4.34-11.785-4.34-11.785-.535 6.519-2.522 11.99-4.796 16.281-1.113-15.293-8.508-25.04-8.508-25.04-.809 10.588-2.484 19.102-3.986 25.044-1.437-4.537-3.171-10.674-5.078-18.767 0 0-2.542 4.795-3.833 12.596-.038-.063-.075-.126-.114-.188-3.948-6.204-9.211-6.204-9.211-6.204 2.975 8.416 1.466 17.536.542 21.519a9.73 9.73 0 0 1 2.967-.462h42.982a9.73 9.73 0 0 1 2.967.462c-.924-3.983-2.433-13.103.542-21.519ZM448 255.481s-5.263 0-9.211 6.204a9.937 9.937 0 0 0-.923 1.859c-1.542-7.632-4.34-11.785-4.34-11.785-.535 6.519-2.522 11.99-4.796 16.281-1.113-15.293-8.508-25.04-8.508-25.04-.809 10.588-2.484 19.102-3.986 25.044-1.437-4.537-3.171-10.674-5.078-18.767 0 0-2.542 4.795-3.833 12.596-.038-.063-.075-.126-.114-.188-3.948-6.204-9.211-6.204-9.211-6.204 2.975 8.416 1.466 17.536.542 21.519a9.73 9.73 0 0 1 2.967-.462h42.982a9.73 9.73 0 0 1 2.967.462c-.924-3.983-2.433-13.103.542-21.519ZM773 65.481s-5.263 0-9.211 6.204a9.922 9.922 0 0 0-.923 1.86c-1.542-7.633-4.34-11.786-4.34-11.786-.535 6.52-2.522 11.99-4.796 16.281-1.113-15.293-8.508-25.04-8.508-25.04-.809 10.588-2.484 19.102-3.986 25.044-1.437-4.537-3.171-10.674-5.078-18.767 0 0-2.542 4.795-3.833 12.596-.038-.063-.075-.126-.114-.188-3.948-6.204-9.211-6.204-9.211-6.204 2.975 8.416 1.466 17.536.542 21.519a9.734 9.734 0 0 1 2.967-.462h42.982c1.035 0 2.031.163 2.967.462-.924-3.983-2.433-13.103.542-21.519ZM973 509.481s-5.263 0-9.211 6.204a9.937 9.937 0 0 0-.923 1.859c-1.542-7.632-4.34-11.785-4.34-11.785-.535 6.519-2.522 11.99-4.796 16.281-1.113-15.293-8.508-25.04-8.508-25.04-.809 10.588-2.484 19.102-3.986 25.044-1.437-4.537-3.171-10.674-5.078-18.767 0 0-2.542 4.795-3.833 12.596-.038-.063-.075-.126-.114-.188-3.948-6.204-9.211-6.204-9.211-6.204 2.975 8.416 1.466 17.536.542 21.519a9.73 9.73 0 0 1 2.967-.462h42.982a9.73 9.73 0 0 1 2.967.462c-.924-3.983-2.433-13.103.542-21.519ZM364 89.481s-5.263 0-9.211 6.204a9.922 9.922 0 0 0-.923 1.86c-1.542-7.633-4.34-11.786-4.34-11.786-.535 6.52-2.522 11.99-4.796 16.281-1.113-15.293-8.508-25.04-8.508-25.04-.809 10.588-2.484 19.102-3.986 25.044-1.437-4.537-3.171-10.674-5.078-18.767 0 0-2.542 4.795-3.833 12.596-.038-.063-.075-.126-.114-.188-3.948-6.204-9.211-6.204-9.211-6.204 2.975 8.416 1.466 17.536.542 21.519a9.73 9.73 0 0 1 2.967-.462h42.982a9.73 9.73 0 0 1 2.967.462c-.924-3.983-2.433-13.103.542-21.519ZM325 362.481s-5.263 0-9.211 6.204a9.937 9.937 0 0 0-.923 1.859c-1.542-7.632-4.34-11.785-4.34-11.785-.535 6.519-2.522 11.99-4.796 16.281-1.113-15.293-8.508-25.04-8.508-25.04-.809 10.588-2.484 19.102-3.986 25.044-1.437-4.537-3.171-10.674-5.078-18.767 0 0-2.542 4.795-3.833 12.596-.038-.063-.075-.126-.114-.188-3.948-6.204-9.211-6.204-9.211-6.204 2.975 8.416 1.466 17.536.542 21.519a9.73 9.73 0 0 1 2.967-.462h42.982a9.73 9.73 0 0 1 2.967.462c-.924-3.983-2.433-13.103.542-21.519ZM704 171.481s-5.263 0-9.211 6.204a9.937 9.937 0 0 0-.923 1.859c-1.542-7.632-4.34-11.785-4.34-11.785-.535 6.519-2.522 11.99-4.796 16.281-1.113-15.293-8.508-25.04-8.508-25.04-.809 10.588-2.484 19.102-3.986 25.044-1.437-4.537-3.171-10.674-5.078-18.767 0 0-2.542 4.795-3.833 12.596-.038-.063-.075-.126-.114-.188-3.948-6.204-9.211-6.204-9.211-6.204 2.975 8.416 1.466 17.536.542 21.519a9.73 9.73 0 0 1 2.967-.462h42.982a9.73 9.73 0 0 1 2.967.462c-.924-3.983-2.433-13.103.542-21.519ZM1008 89.481s-5.26 0-9.211 6.204a9.922 9.922 0 0 0-.923 1.86c-1.542-7.633-4.34-11.786-4.34-11.786-.535 6.52-2.522 11.99-4.796 16.281-1.113-15.293-8.508-25.04-8.508-25.04-.809 10.588-2.484 19.102-3.986 25.044-1.437-4.537-3.171-10.674-5.078-18.767 0 0-2.542 4.795-3.833 12.596-.038-.063-.075-.126-.114-.188-3.948-6.204-9.211-6.204-9.211-6.204 2.975 8.416 1.466 17.536.542 21.519a9.73 9.73 0 0 1 2.967-.462h42.981c1.04 0 2.03.163 2.97.462-.93-3.983-2.44-13.103.54-21.519ZM595 311.481s-5.263 0-9.211 6.204a9.937 9.937 0 0 0-.923 1.859c-1.542-7.632-4.34-11.785-4.34-11.785-.535 6.519-2.522 11.99-4.796 16.281-1.113-15.293-8.508-25.04-8.508-25.04-.809 10.588-2.484 19.102-3.986 25.044-1.437-4.537-3.171-10.674-5.078-18.767 0 0-2.542 4.795-3.833 12.596-.038-.063-.075-.126-.114-.188-3.948-6.204-9.211-6.204-9.211-6.204 2.975 8.416 1.466 17.536.542 21.519a9.73 9.73 0 0 1 2.967-.462h42.982a9.73 9.73 0 0 1 2.967.462c-.924-3.983-2.433-13.103.542-21.519ZM848 425.481s-5.263 0-9.211 6.204a9.937 9.937 0 0 0-.923 1.859c-1.542-7.632-4.34-11.785-4.34-11.785-.535 6.519-2.522 11.99-4.796 16.281-1.113-15.293-8.508-25.04-8.508-25.04-.809 10.588-2.484 19.102-3.986 25.044-1.437-4.537-3.171-10.674-5.078-18.767 0 0-2.542 4.795-3.833 12.596-.038-.063-.075-.126-.114-.188-3.948-6.204-9.211-6.204-9.211-6.204 2.975 8.416 1.466 17.536.542 21.519a9.73 9.73 0 0 1 2.967-.462h42.982a9.73 9.73 0 0 1 2.967.462c-.924-3.983-2.433-13.103.542-21.519ZM620 465.481s-5.263 0-9.211 6.204a9.937 9.937 0 0 0-.923 1.859c-1.542-7.632-4.34-11.785-4.34-11.785-.535 6.519-2.522 11.99-4.796 16.281-1.113-15.293-8.508-25.04-8.508-25.04-.809 10.588-2.484 19.102-3.986 25.044-1.437-4.537-3.171-10.674-5.078-18.767 0 0-2.542 4.795-3.833 12.596-.038-.063-.075-.126-.114-.188-3.948-6.204-9.211-6.204-9.211-6.204 2.975 8.416 1.466 17.536.542 21.519a9.73 9.73 0 0 1 2.967-.462h42.982a9.73 9.73 0 0 1 2.967.462c-.924-3.983-2.433-13.103.542-21.519ZM443 498.481s-5.263 0-9.211 6.204a9.937 9.937 0 0 0-.923 1.859c-1.542-7.632-4.34-11.785-4.34-11.785-.535 6.519-2.522 11.99-4.796 16.281-1.113-15.293-8.508-25.04-8.508-25.04-.809 10.588-2.484 19.102-3.986 25.044-1.437-4.537-3.171-10.674-5.078-18.767 0 0-2.542 4.795-3.833 12.596-.038-.063-.075-.126-.114-.188-3.948-6.204-9.211-6.204-9.211-6.204 2.975 8.416 1.466 17.536.542 21.519a9.73 9.73 0 0 1 2.967-.462h42.982a9.73 9.73 0 0 1 2.967.462c-.924-3.983-2.433-13.103.542-21.519ZM989 345.481s-5.263 0-9.211 6.204a9.937 9.937 0 0 0-.923 1.859c-1.542-7.632-4.34-11.785-4.34-11.785-.535 6.519-2.522 11.99-4.796 16.281-1.113-15.293-8.508-25.04-8.508-25.04-.809 10.588-2.484 19.102-3.986 25.044-1.437-4.537-3.171-10.674-5.078-18.767 0 0-2.542 4.795-3.833 12.596-.038-.063-.075-.126-.114-.188-3.948-6.204-9.211-6.204-9.211-6.204 2.975 8.416 1.466 17.536.542 21.519a9.73 9.73 0 0 1 2.967-.462h42.982a9.73 9.73 0 0 1 2.967.462c-.924-3.983-2.433-13.103.542-21.519ZM170 328.481s-5.263 0-9.211 6.204a9.937 9.937 0 0 0-.923 1.859c-1.542-7.632-4.34-11.785-4.34-11.785-.535 6.519-2.522 11.99-4.796 16.281-1.113-15.293-8.508-25.04-8.508-25.04-.809 10.588-2.484 19.102-3.986 25.044-1.437-4.537-3.171-10.674-5.078-18.767 0 0-2.542 4.795-3.833 12.596-.038-.063-.075-.126-.114-.188-3.948-6.204-9.211-6.204-9.211-6.204 2.975 8.416 1.466 17.536.542 21.519a9.73 9.73 0 0 1 2.967-.462h42.982a9.73 9.73 0 0 1 2.967.462c-.924-3.983-2.433-13.103.542-21.519ZM275 188.481s-5.263 0-9.211 6.204a9.937 9.937 0 0 0-.923 1.859c-1.542-7.632-4.34-11.785-4.34-11.785-.535 6.519-2.522 11.99-4.796 16.281-1.113-15.293-8.508-25.04-8.508-25.04-.809 10.588-2.484 19.102-3.986 25.044-1.437-4.537-3.171-10.674-5.078-18.767 0 0-2.542 4.795-3.833 12.596-.038-.063-.075-.126-.114-.188-3.948-6.204-9.211-6.204-9.211-6.204 2.975 8.416 1.466 17.536.542 21.519a9.73 9.73 0 0 1 2.967-.462h42.982a9.73 9.73 0 0 1 2.967.462c-.924-3.983-2.433-13.103.542-21.519Z" fill="#5C913B"/>
  </svg>