<svg width="36" height="36" viewBox="0 0 36 36" fill="none" xmlns="http://www.w3.org/2000/svg">
<path d="M11.626 6.907C11.514 7.019 11.429 7.154 11.358 7.302L11.35 7.294L0.134001 32.56L0.145001 32.571C-0.0629987 32.974 0.285001 33.794 0.998001 34.508C1.711 35.221 2.531 35.569 2.934 35.361L2.944 35.371L28.21 24.154L28.202 24.145C28.349 24.075 28.484 23.99 28.597 23.876C30.159 22.314 27.626 17.249 22.941 12.563C18.254 7.877 13.189 5.345 11.626 6.907Z" fill="#DD2E44"/>
<path d="M13 11.4189L0.416001 31.9249L0.134001 32.5599L0.145001 32.5709C-0.0629987 32.9739 0.285001 33.7939 0.998001 34.5079C1.23 34.7399 1.471 34.9159 1.707 35.0649L17 16.4189L13 11.4189Z" fill="#EA596E"/>
<path d="M23.012 12.485C27.682 17.157 30.275 22.137 28.801 23.609C27.328 25.083 22.348 22.491 17.675 17.821C13.004 13.149 10.412 8.16699 11.885 6.69399C13.359 5.22099 18.339 7.81299 23.012 12.485Z" fill="#A0041E"/>
<path d="M18.59 13.028C18.391 13.189 18.131 13.273 17.856 13.243C16.988 13.149 16.258 12.847 15.747 12.37C15.206 11.865 14.939 11.187 15.012 10.508C15.14 9.316 16.336 8.222 18.375 8.442C19.168 8.527 19.522 8.272 19.534 8.15C19.548 8.029 19.257 7.704 18.464 7.618C17.596 7.524 16.866 7.222 16.354 6.745C15.813 6.24 15.545 5.562 15.619 4.883C15.749 3.691 16.944 2.597 18.981 2.818C19.559 2.88 19.864 2.761 19.993 2.684C20.096 2.621 20.137 2.561 20.141 2.526C20.153 2.405 19.866 2.08 19.071 1.994C18.522 1.934 18.124 1.442 18.185 0.891997C18.244 0.342997 18.735 -0.0540027 19.286 0.00599734C21.323 0.224997 22.259 1.548 22.13 2.741C22 3.935 20.805 5.027 18.766 4.808C18.188 4.745 17.886 4.865 17.756 4.942C17.653 5.004 17.611 5.065 17.607 5.099C17.594 5.221 17.883 5.545 18.678 5.631C20.715 5.851 21.651 7.173 21.522 8.366C21.393 9.558 20.198 10.652 18.16 10.431C17.582 10.369 17.278 10.489 17.148 10.565C17.044 10.629 17.004 10.689 17 10.723C16.987 10.844 17.276 11.169 18.07 11.255C18.618 11.315 19.017 11.808 18.956 12.357C18.928 12.631 18.789 12.868 18.59 13.028Z" fill="#AA8DD8"/>
<path d="M30.661 22.2761C32.634 21.7191 33.995 22.5991 34.319 23.7541C34.643 24.9081 33.941 26.3691 31.969 26.9241C31.199 27.1401 30.968 27.5081 30.999 27.6251C31.033 27.7431 31.424 27.9371 32.192 27.7201C34.164 27.1651 35.525 28.0451 35.849 29.1991C36.175 30.3541 35.471 31.8131 33.498 32.3691C32.729 32.5851 32.497 32.9541 32.531 33.0711C32.564 33.1881 32.954 33.3821 33.723 33.1661C34.253 33.0171 34.807 33.3261 34.956 33.8571C35.104 34.3891 34.795 34.9411 34.263 35.0911C32.292 35.6461 30.93 34.7681 30.604 33.6121C30.28 32.4581 30.983 30.9991 32.957 30.4431C33.727 30.2261 33.958 29.8591 33.924 29.7411C33.892 29.6241 33.502 29.4291 32.734 29.6451C30.76 30.2011 29.4 29.3231 29.075 28.1661C28.75 27.0121 29.453 25.5531 31.426 24.9961C32.194 24.7811 32.425 24.4111 32.393 24.2951C32.359 24.1771 31.97 23.9831 31.201 24.1991C30.669 24.3491 30.118 24.0391 29.968 23.5081C29.819 22.9781 30.129 22.4261 30.661 22.2761Z" fill="#77B255"/>
<path d="M23.001 19.5791C22.707 19.5791 22.417 19.4501 22.219 19.2041C21.874 18.7721 21.945 18.1431 22.375 17.7981C22.593 17.6231 27.793 13.5391 35.142 14.5901C35.689 14.6681 36.069 15.1741 35.991 15.7211C35.913 16.2671 35.411 16.6511 34.859 16.5691C28.366 15.6471 23.672 19.3231 23.626 19.3601C23.44 19.5081 23.22 19.5791 23.001 19.5791Z" fill="#AA8DD8"/>
<path d="M5.754 15.419C5.659 15.419 5.562 15.405 5.466 15.377C4.937 15.218 4.637 14.661 4.796 14.132C5.929 10.359 6.956 4.33804 5.694 2.76804C5.553 2.59004 5.34 2.41504 4.852 2.45204C3.914 2.52404 4.003 4.50304 4.004 4.52304C4.046 5.07404 3.632 5.55404 3.082 5.59504C2.523 5.62904 2.051 5.22304 2.01 4.67204C1.907 3.29304 2.336 0.637036 4.702 0.458036C5.758 0.378036 6.635 0.745036 7.254 1.51504C9.625 4.46604 7.218 13.021 6.712 14.707C6.582 15.14 6.184 15.419 5.754 15.419Z" fill="#77B255"/>
<path d="M25.5 10.4189C26.3284 10.4189 27 9.74737 27 8.91895C27 8.09052 26.3284 7.41895 25.5 7.41895C24.6716 7.41895 24 8.09052 24 8.91895C24 9.74737 24.6716 10.4189 25.5 10.4189Z" fill="#5C913B"/>
<path d="M2 19.4189C3.10457 19.4189 4 18.5235 4 17.4189C4 16.3144 3.10457 15.4189 2 15.4189C0.89543 15.4189 0 16.3144 0 17.4189C0 18.5235 0.89543 19.4189 2 19.4189Z" fill="#9266CC"/>
<path d="M32.5 20.4189C33.3284 20.4189 34 19.7474 34 18.9189C34 18.0905 33.3284 17.4189 32.5 17.4189C31.6716 17.4189 31 18.0905 31 18.9189C31 19.7474 31.6716 20.4189 32.5 20.4189Z" fill="#5C913B"/>
<path d="M23.5 32.4189C24.3284 32.4189 25 31.7474 25 30.9189C25 30.0905 24.3284 29.4189 23.5 29.4189C22.6716 29.4189 22 30.0905 22 30.9189C22 31.7474 22.6716 32.4189 23.5 32.4189Z" fill="#5C913B"/>
<path d="M28 5.41895C29.1046 5.41895 30 4.52351 30 3.41895C30 2.31438 29.1046 1.41895 28 1.41895C26.8954 1.41895 26 2.31438 26 3.41895C26 4.52351 26.8954 5.41895 28 5.41895Z" fill="#FFCC4D"/>
<path d="M32.5 9.41895C33.3284 9.41895 34 8.74737 34 7.91895C34 7.09052 33.3284 6.41895 32.5 6.41895C31.6716 6.41895 31 7.09052 31 7.91895C31 8.74737 31.6716 9.41895 32.5 9.41895Z" fill="#FFCC4D"/>
<path d="M29.5 13.4189C30.3284 13.4189 31 12.7474 31 11.9189C31 11.0905 30.3284 10.4189 29.5 10.4189C28.6716 10.4189 28 11.0905 28 11.9189C28 12.7474 28.6716 13.4189 29.5 13.4189Z" fill="#FFCC4D"/>
<path d="M7.5 24.4189C8.32843 24.4189 9 23.7474 9 22.9189C9 22.0905 8.32843 21.4189 7.5 21.4189C6.67157 21.4189 6 22.0905 6 22.9189C6 23.7474 6.67157 24.4189 7.5 24.4189Z" fill="#FFCC4D"/>
</svg>
