<svg width="371" height="371" viewBox="0 0 371 371" fill="none" xmlns="http://www.w3.org/2000/svg">
<g filter="url(#filter0_d_281_19609)">
<rect x="21" y="19" width="325" height="325" rx="70" fill="url(#paint0_radial_281_19609)"/>
</g>
<mask id="path-2-outside-1_281_19609" maskUnits="userSpaceOnUse" x="55" y="232" width="257" height="95" fill="black">
<rect fill="white" x="55" y="232" width="257" height="95"/>
<path d="M89.732 270.906C86.9987 270.906 84.6207 271.781 82.598 273.53C80.63 275.279 79.646 277.849 79.646 281.238C79.646 284.627 80.6027 287.142 82.516 288.782C84.4293 290.422 86.8073 291.242 89.65 291.242C91.29 291.242 92.7387 291.051 93.996 290.668C95.308 290.231 96.4013 289.793 97.276 289.356C98.3147 290.121 99.08 290.941 99.572 291.816C100.119 292.691 100.392 293.757 100.392 295.014C100.392 297.201 99.2987 298.95 97.112 300.262C94.98 301.574 91.9187 302.23 87.928 302.23C83.3907 302.23 79.4273 301.437 76.038 299.852C72.7033 298.267 70.1067 295.916 68.248 292.8C66.444 289.629 65.542 285.775 65.542 281.238C65.542 276.427 66.5533 272.464 68.576 269.348C70.5987 266.177 73.2773 263.827 76.612 262.296C79.9467 260.711 83.582 259.918 87.518 259.918C91.3993 259.918 94.406 260.629 96.538 262.05C98.7247 263.471 99.818 265.303 99.818 267.544C99.818 268.583 99.572 269.567 99.08 270.496C98.588 271.371 98.014 272.136 97.358 272.792C96.4287 272.355 95.308 271.945 93.996 271.562C92.684 271.125 91.2627 270.906 89.732 270.906ZM107.793 279.352H121.733V300.918C121.132 301.082 120.257 301.246 119.109 301.41C118.016 301.574 116.813 301.656 115.501 301.656C112.822 301.656 110.854 301.191 109.597 300.262C108.394 299.333 107.793 297.611 107.793 295.096V279.352ZM121.733 286.65H107.793V247.536C108.394 247.372 109.242 247.208 110.335 247.044C111.483 246.88 112.713 246.798 114.025 246.798C116.758 246.798 118.726 247.263 119.929 248.192C121.132 249.067 121.733 250.789 121.733 253.358V286.65ZM130.358 250.078C130.358 248.001 131.069 246.251 132.49 244.83C133.911 243.409 135.743 242.698 137.984 242.698C140.225 242.698 142.057 243.409 143.478 244.83C144.899 246.251 145.61 248.001 145.61 250.078C145.61 252.101 144.899 253.85 143.478 255.326C142.057 256.747 140.225 257.458 137.984 257.458C135.743 257.458 133.911 256.747 132.49 255.326C131.069 253.85 130.358 252.101 130.358 250.078ZM131.014 279.352H144.954V300.918C144.353 301.082 143.478 301.246 142.33 301.41C141.237 301.574 140.034 301.656 138.722 301.656C136.043 301.656 134.075 301.191 132.818 300.262C131.615 299.333 131.014 297.611 131.014 295.096V279.352ZM144.954 286.65H131.014V261.722C131.615 261.558 132.463 261.394 133.556 261.23C134.704 261.066 135.934 260.984 137.246 260.984C139.979 260.984 141.947 261.449 143.15 262.378C144.353 263.253 144.954 264.975 144.954 267.544V286.65ZM176.296 270.906C173.563 270.906 171.185 271.781 169.162 273.53C167.194 275.279 166.21 277.849 166.21 281.238C166.21 284.627 167.167 287.142 169.08 288.782C170.994 290.422 173.372 291.242 176.214 291.242C177.854 291.242 179.303 291.051 180.56 290.668C181.872 290.231 182.966 289.793 183.84 289.356C184.879 290.121 185.644 290.941 186.136 291.816C186.683 292.691 186.956 293.757 186.956 295.014C186.956 297.201 185.863 298.95 183.676 300.262C181.544 301.574 178.483 302.23 174.492 302.23C169.955 302.23 165.992 301.437 162.602 299.852C159.268 298.267 156.671 295.916 154.812 292.8C153.008 289.629 152.106 285.775 152.106 281.238C152.106 276.427 153.118 272.464 155.14 269.348C157.163 266.177 159.842 263.827 163.176 262.296C166.511 260.711 170.146 259.918 174.082 259.918C177.964 259.918 180.97 260.629 183.102 262.05C185.289 263.471 186.382 265.303 186.382 267.544C186.382 268.583 186.136 269.567 185.644 270.496C185.152 271.371 184.578 272.136 183.922 272.792C182.993 272.355 181.872 271.945 180.56 271.562C179.248 271.125 177.827 270.906 176.296 270.906ZM213.874 285.748L203.706 279.434L222.156 260.574C224.998 260.574 227.267 261.203 228.962 262.46C230.711 263.717 231.586 265.303 231.586 267.216C231.586 268.856 231.012 270.305 229.864 271.562C228.716 272.819 226.939 274.487 224.534 276.564L213.874 285.748ZM204.362 281.402L215.596 276.564L232.898 293.784C232.679 296.299 231.941 298.267 230.684 299.688C229.426 301.055 227.622 301.738 225.272 301.738C223.577 301.738 222.019 301.328 220.598 300.508C219.231 299.633 217.755 298.185 216.17 296.162L204.362 281.402ZM194.112 279.352H208.052V300.918C207.45 301.082 206.576 301.246 205.428 301.41C204.334 301.574 203.132 301.656 201.82 301.656C199.141 301.656 197.173 301.191 195.916 300.262C194.713 299.333 194.112 297.611 194.112 295.096V279.352ZM208.052 286.65H194.112V247.536C194.713 247.372 195.56 247.208 196.654 247.044C197.802 246.88 199.032 246.798 200.344 246.798C203.077 246.798 205.045 247.263 206.248 248.192C207.45 249.067 208.052 250.789 208.052 253.358V286.65ZM239.842 279.352H253.782V300.918C253.181 301.082 252.306 301.246 251.158 301.41C250.065 301.574 248.862 301.656 247.55 301.656C244.871 301.656 242.903 301.191 241.646 300.262C240.443 299.333 239.842 297.611 239.842 295.096V279.352ZM253.782 286.65H239.842V247.536C240.443 247.372 241.291 247.208 242.384 247.044C243.532 246.88 244.762 246.798 246.074 246.798C248.807 246.798 250.775 247.263 251.978 248.192C253.181 249.067 253.782 250.789 253.782 253.358V286.65ZM268.967 290.832C268.147 288.973 267.272 286.841 266.343 284.436C265.413 281.976 264.429 279.051 263.391 275.662C262.407 272.218 261.313 268.063 260.111 263.198C260.876 262.433 261.887 261.777 263.145 261.23C264.457 260.629 265.878 260.328 267.409 260.328C269.322 260.328 270.907 260.738 272.165 261.558C273.422 262.323 274.351 263.799 274.953 265.986C276.046 269.813 277.139 273.612 278.233 277.384C279.326 281.101 280.392 284.819 281.431 288.536H281.759C282.633 286.021 283.481 283.261 284.301 280.254C285.175 277.247 285.968 274.186 286.679 271.07C287.444 267.899 288.073 264.838 288.565 261.886C289.494 261.394 290.451 261.011 291.435 260.738C292.419 260.465 293.457 260.328 294.551 260.328C296.464 260.328 298.131 260.738 299.553 261.558C300.974 262.378 301.685 263.799 301.685 265.822C301.685 267.571 301.466 269.594 301.029 271.89C300.591 274.186 299.99 276.619 299.225 279.188C298.459 281.757 297.585 284.354 296.601 286.978C295.617 289.547 294.578 292.035 293.485 294.44C292.391 296.791 291.298 298.923 290.205 300.836C287.143 306.139 284.301 310.075 281.677 312.644C279.053 315.213 276.401 316.498 273.723 316.498C271.536 316.498 269.705 315.815 268.229 314.448C266.753 313.081 265.878 311.305 265.605 309.118C266.753 308.134 267.901 307.068 269.049 305.92C270.251 304.772 271.399 303.542 272.493 302.23C273.586 300.973 274.57 299.715 275.445 298.458C274.515 298.185 273.504 297.556 272.411 296.572C271.372 295.533 270.224 293.62 268.967 290.832Z"/>
</mask>
<path d="M89.732 270.906C86.9987 270.906 84.6207 271.781 82.598 273.53C80.63 275.279 79.646 277.849 79.646 281.238C79.646 284.627 80.6027 287.142 82.516 288.782C84.4293 290.422 86.8073 291.242 89.65 291.242C91.29 291.242 92.7387 291.051 93.996 290.668C95.308 290.231 96.4013 289.793 97.276 289.356C98.3147 290.121 99.08 290.941 99.572 291.816C100.119 292.691 100.392 293.757 100.392 295.014C100.392 297.201 99.2987 298.95 97.112 300.262C94.98 301.574 91.9187 302.23 87.928 302.23C83.3907 302.23 79.4273 301.437 76.038 299.852C72.7033 298.267 70.1067 295.916 68.248 292.8C66.444 289.629 65.542 285.775 65.542 281.238C65.542 276.427 66.5533 272.464 68.576 269.348C70.5987 266.177 73.2773 263.827 76.612 262.296C79.9467 260.711 83.582 259.918 87.518 259.918C91.3993 259.918 94.406 260.629 96.538 262.05C98.7247 263.471 99.818 265.303 99.818 267.544C99.818 268.583 99.572 269.567 99.08 270.496C98.588 271.371 98.014 272.136 97.358 272.792C96.4287 272.355 95.308 271.945 93.996 271.562C92.684 271.125 91.2627 270.906 89.732 270.906ZM107.793 279.352H121.733V300.918C121.132 301.082 120.257 301.246 119.109 301.41C118.016 301.574 116.813 301.656 115.501 301.656C112.822 301.656 110.854 301.191 109.597 300.262C108.394 299.333 107.793 297.611 107.793 295.096V279.352ZM121.733 286.65H107.793V247.536C108.394 247.372 109.242 247.208 110.335 247.044C111.483 246.88 112.713 246.798 114.025 246.798C116.758 246.798 118.726 247.263 119.929 248.192C121.132 249.067 121.733 250.789 121.733 253.358V286.65ZM130.358 250.078C130.358 248.001 131.069 246.251 132.49 244.83C133.911 243.409 135.743 242.698 137.984 242.698C140.225 242.698 142.057 243.409 143.478 244.83C144.899 246.251 145.61 248.001 145.61 250.078C145.61 252.101 144.899 253.85 143.478 255.326C142.057 256.747 140.225 257.458 137.984 257.458C135.743 257.458 133.911 256.747 132.49 255.326C131.069 253.85 130.358 252.101 130.358 250.078ZM131.014 279.352H144.954V300.918C144.353 301.082 143.478 301.246 142.33 301.41C141.237 301.574 140.034 301.656 138.722 301.656C136.043 301.656 134.075 301.191 132.818 300.262C131.615 299.333 131.014 297.611 131.014 295.096V279.352ZM144.954 286.65H131.014V261.722C131.615 261.558 132.463 261.394 133.556 261.23C134.704 261.066 135.934 260.984 137.246 260.984C139.979 260.984 141.947 261.449 143.15 262.378C144.353 263.253 144.954 264.975 144.954 267.544V286.65ZM176.296 270.906C173.563 270.906 171.185 271.781 169.162 273.53C167.194 275.279 166.21 277.849 166.21 281.238C166.21 284.627 167.167 287.142 169.08 288.782C170.994 290.422 173.372 291.242 176.214 291.242C177.854 291.242 179.303 291.051 180.56 290.668C181.872 290.231 182.966 289.793 183.84 289.356C184.879 290.121 185.644 290.941 186.136 291.816C186.683 292.691 186.956 293.757 186.956 295.014C186.956 297.201 185.863 298.95 183.676 300.262C181.544 301.574 178.483 302.23 174.492 302.23C169.955 302.23 165.992 301.437 162.602 299.852C159.268 298.267 156.671 295.916 154.812 292.8C153.008 289.629 152.106 285.775 152.106 281.238C152.106 276.427 153.118 272.464 155.14 269.348C157.163 266.177 159.842 263.827 163.176 262.296C166.511 260.711 170.146 259.918 174.082 259.918C177.964 259.918 180.97 260.629 183.102 262.05C185.289 263.471 186.382 265.303 186.382 267.544C186.382 268.583 186.136 269.567 185.644 270.496C185.152 271.371 184.578 272.136 183.922 272.792C182.993 272.355 181.872 271.945 180.56 271.562C179.248 271.125 177.827 270.906 176.296 270.906ZM213.874 285.748L203.706 279.434L222.156 260.574C224.998 260.574 227.267 261.203 228.962 262.46C230.711 263.717 231.586 265.303 231.586 267.216C231.586 268.856 231.012 270.305 229.864 271.562C228.716 272.819 226.939 274.487 224.534 276.564L213.874 285.748ZM204.362 281.402L215.596 276.564L232.898 293.784C232.679 296.299 231.941 298.267 230.684 299.688C229.426 301.055 227.622 301.738 225.272 301.738C223.577 301.738 222.019 301.328 220.598 300.508C219.231 299.633 217.755 298.185 216.17 296.162L204.362 281.402ZM194.112 279.352H208.052V300.918C207.45 301.082 206.576 301.246 205.428 301.41C204.334 301.574 203.132 301.656 201.82 301.656C199.141 301.656 197.173 301.191 195.916 300.262C194.713 299.333 194.112 297.611 194.112 295.096V279.352ZM208.052 286.65H194.112V247.536C194.713 247.372 195.56 247.208 196.654 247.044C197.802 246.88 199.032 246.798 200.344 246.798C203.077 246.798 205.045 247.263 206.248 248.192C207.45 249.067 208.052 250.789 208.052 253.358V286.65ZM239.842 279.352H253.782V300.918C253.181 301.082 252.306 301.246 251.158 301.41C250.065 301.574 248.862 301.656 247.55 301.656C244.871 301.656 242.903 301.191 241.646 300.262C240.443 299.333 239.842 297.611 239.842 295.096V279.352ZM253.782 286.65H239.842V247.536C240.443 247.372 241.291 247.208 242.384 247.044C243.532 246.88 244.762 246.798 246.074 246.798C248.807 246.798 250.775 247.263 251.978 248.192C253.181 249.067 253.782 250.789 253.782 253.358V286.65ZM268.967 290.832C268.147 288.973 267.272 286.841 266.343 284.436C265.413 281.976 264.429 279.051 263.391 275.662C262.407 272.218 261.313 268.063 260.111 263.198C260.876 262.433 261.887 261.777 263.145 261.23C264.457 260.629 265.878 260.328 267.409 260.328C269.322 260.328 270.907 260.738 272.165 261.558C273.422 262.323 274.351 263.799 274.953 265.986C276.046 269.813 277.139 273.612 278.233 277.384C279.326 281.101 280.392 284.819 281.431 288.536H281.759C282.633 286.021 283.481 283.261 284.301 280.254C285.175 277.247 285.968 274.186 286.679 271.07C287.444 267.899 288.073 264.838 288.565 261.886C289.494 261.394 290.451 261.011 291.435 260.738C292.419 260.465 293.457 260.328 294.551 260.328C296.464 260.328 298.131 260.738 299.553 261.558C300.974 262.378 301.685 263.799 301.685 265.822C301.685 267.571 301.466 269.594 301.029 271.89C300.591 274.186 299.99 276.619 299.225 279.188C298.459 281.757 297.585 284.354 296.601 286.978C295.617 289.547 294.578 292.035 293.485 294.44C292.391 296.791 291.298 298.923 290.205 300.836C287.143 306.139 284.301 310.075 281.677 312.644C279.053 315.213 276.401 316.498 273.723 316.498C271.536 316.498 269.705 315.815 268.229 314.448C266.753 313.081 265.878 311.305 265.605 309.118C266.753 308.134 267.901 307.068 269.049 305.92C270.251 304.772 271.399 303.542 272.493 302.23C273.586 300.973 274.57 299.715 275.445 298.458C274.515 298.185 273.504 297.556 272.411 296.572C271.372 295.533 270.224 293.62 268.967 290.832Z" fill="white"/>
<path d="M82.598 273.53L76.0565 265.966L76.0051 266.011L75.9544 266.056L82.598 273.53ZM93.996 290.668L96.9076 300.235L97.0335 300.196L97.1583 300.155L93.996 290.668ZM97.276 289.356L103.208 281.305L98.2795 277.674L92.8039 280.412L97.276 289.356ZM99.572 291.816L90.8562 296.719L90.9695 296.92L91.092 297.116L99.572 291.816ZM97.112 300.262L91.967 291.687L91.9189 291.716L91.871 291.745L97.112 300.262ZM76.038 299.852L71.7444 308.883L71.7727 308.897L71.8011 308.91L76.038 299.852ZM68.248 292.8L59.5564 297.745L59.6072 297.835L59.6598 297.923L68.248 292.8ZM68.576 269.348L76.9638 274.793L76.9853 274.76L77.0066 274.726L68.576 269.348ZM76.612 262.296L80.7837 271.384L80.8448 271.356L80.9056 271.327L76.612 262.296ZM96.538 262.05L90.991 270.37L91.0394 270.403L91.0881 270.434L96.538 262.05ZM99.08 270.496L107.796 275.399L107.858 275.288L107.918 275.175L99.08 270.496ZM97.358 272.792L93.1 281.84L99.4593 284.833L104.429 279.863L97.358 272.792ZM93.996 271.562L90.8337 281.049L91.0138 281.109L91.196 281.162L93.996 271.562ZM89.732 260.906C84.6546 260.906 79.9398 262.608 76.0565 265.966L89.1395 281.094C89.222 281.022 89.2769 280.987 89.303 280.971C89.3283 280.956 89.3423 280.95 89.3506 280.947C89.359 280.944 89.384 280.936 89.4353 280.927C89.4879 280.918 89.5836 280.906 89.732 280.906V260.906ZM75.9544 266.056C71.275 270.215 69.646 275.867 69.646 281.238H89.646C89.646 280.492 89.7561 280.258 89.7226 280.345C89.7039 280.394 89.6557 280.502 89.5621 280.639C89.4674 280.777 89.3556 280.903 89.2416 281.004L75.9544 266.056ZM69.646 281.238C69.646 286.483 71.1813 292.237 76.0081 296.375L89.0239 281.189C89.1998 281.34 89.359 281.517 89.4881 281.704C89.6154 281.889 89.6818 282.036 89.71 282.11C89.7597 282.241 89.646 282.02 89.646 281.238H69.646ZM76.0081 296.375C79.9668 299.768 84.7461 301.242 89.65 301.242V281.242C89.1955 281.242 89.0078 281.178 88.9944 281.173C88.9841 281.17 88.9932 281.172 89.0114 281.183C89.0296 281.193 89.0349 281.199 89.0239 281.189L76.0081 296.375ZM89.65 301.242C92.0433 301.242 94.5065 300.966 96.9076 300.235L91.0844 281.101C90.9708 281.136 90.5367 281.242 89.65 281.242V301.242ZM97.1583 300.155C98.7513 299.624 100.317 299.016 101.748 298.3L92.8039 280.412C92.4857 280.571 91.8647 280.838 90.8337 281.181L97.1583 300.155ZM91.344 297.407C91.5554 297.562 91.227 297.378 90.8562 296.719L108.288 286.913C106.933 284.505 105.074 282.68 103.208 281.305L91.344 297.407ZM91.092 297.116C90.4476 296.085 90.392 295.219 90.392 295.014H110.392C110.392 292.294 109.79 289.296 108.052 286.516L91.092 297.116ZM90.392 295.014C90.392 294.351 90.5849 293.477 91.092 292.666C91.5574 291.921 92.0198 291.655 91.967 291.687L102.257 308.837C106.864 306.073 110.392 301.353 110.392 295.014H90.392ZM91.871 291.745C91.9825 291.677 91.8071 291.813 91.1217 291.96C90.4373 292.107 89.4009 292.23 87.928 292.23V312.23C92.7703 312.23 97.9688 311.477 102.353 308.779L91.871 291.745ZM87.928 292.23C84.5491 292.23 82.0863 291.641 80.2749 290.794L71.8011 308.91C76.7683 311.233 82.2322 312.23 87.928 312.23V292.23ZM80.3316 290.821C78.75 290.069 77.6626 289.063 76.8362 287.677L59.6598 297.923C62.5508 302.769 66.6567 306.465 71.7444 308.883L80.3316 290.821ZM76.9396 287.855C76.1785 286.517 75.542 284.459 75.542 281.238H55.542C55.542 287.091 56.7095 292.742 59.5564 297.745L76.9396 287.855ZM75.542 281.238C75.542 277.797 76.2628 275.873 76.9638 274.793L60.1882 263.903C56.8439 269.055 55.542 275.058 55.542 281.238H75.542ZM77.0066 274.726C78.023 273.133 79.2413 272.092 80.7837 271.384L72.4403 253.208C67.3134 255.561 63.1743 259.222 60.1454 263.97L77.0066 274.726ZM80.9056 271.327C82.8112 270.421 84.9673 269.918 87.518 269.918V249.918C82.1967 249.918 77.0821 251 72.3184 253.265L80.9056 271.327ZM87.518 269.918C88.872 269.918 89.7973 270.044 90.3837 270.183C90.961 270.319 91.0949 270.44 90.991 270.37L102.085 253.729C97.6666 250.784 92.4237 249.918 87.518 249.918V269.918ZM91.0881 270.434C91.1812 270.495 90.803 270.271 90.4118 269.616C89.9853 268.901 89.818 268.133 89.818 267.544H109.818C109.818 261.319 106.471 256.58 101.988 253.666L91.0881 270.434ZM89.818 267.544C89.818 267.265 89.852 266.956 89.9321 266.636C90.012 266.316 90.1243 266.04 90.2421 265.817L107.918 275.175C109.163 272.823 109.818 270.235 109.818 267.544H89.818ZM90.3642 265.593C90.3222 265.668 90.2927 265.71 90.2805 265.726C90.2686 265.742 90.2701 265.738 90.2869 265.721L104.429 279.863C105.78 278.512 106.893 277.003 107.796 275.399L90.3642 265.593ZM101.616 263.744C100.091 263.026 98.4551 262.446 96.796 261.962L91.196 281.162C92.1609 281.443 92.7663 281.683 93.1 281.84L101.616 263.744ZM97.1583 262.075C94.7239 261.264 92.2236 260.906 89.732 260.906V280.906C90.3018 280.906 90.6441 280.986 90.8337 281.049L97.1583 262.075ZM107.793 279.352V269.352H97.7931V279.352H107.793ZM121.733 279.352H131.733V269.352H121.733V279.352ZM121.733 300.918L124.364 310.566L131.733 308.556V300.918H121.733ZM119.109 301.41L117.695 291.511L117.66 291.515L117.626 291.521L119.109 301.41ZM109.597 300.262L103.483 308.175L103.567 308.24L103.653 308.304L109.597 300.262ZM121.733 286.65V296.65H131.733V286.65H121.733ZM107.793 286.65H97.7931V296.65H107.793V286.65ZM107.793 247.536L105.162 237.888L97.7931 239.898V247.536H107.793ZM110.335 247.044L108.921 237.144L108.886 237.149L108.852 237.155L110.335 247.044ZM119.929 248.192L113.815 256.105L113.93 256.194L114.047 256.279L119.929 248.192ZM107.793 289.352H121.733V269.352H107.793V289.352ZM111.733 279.352V300.918H131.733V279.352H111.733ZM119.102 291.27C119.145 291.259 119.057 291.284 118.783 291.335C118.523 291.384 118.166 291.443 117.695 291.511L120.523 311.309C121.797 311.128 123.158 310.895 124.364 310.566L119.102 291.27ZM117.626 291.521C117.104 291.599 116.405 291.656 115.501 291.656V311.656C117.221 311.656 118.928 311.549 120.593 311.299L117.626 291.521ZM115.501 291.656C115.117 291.656 114.827 291.639 114.62 291.619C114.519 291.608 114.443 291.598 114.391 291.589C114.338 291.581 114.314 291.575 114.314 291.575C114.314 291.575 114.343 291.582 114.397 291.6C114.451 291.617 114.534 291.647 114.641 291.693C114.853 291.784 115.172 291.947 115.541 292.22L103.653 308.304C107.478 311.13 112.053 311.656 115.501 311.656V291.656ZM115.712 292.349C116.926 293.288 117.477 294.38 117.685 294.977C117.865 295.493 117.793 295.625 117.793 295.096H97.7931C97.7931 298.703 98.5902 304.394 103.483 308.175L115.712 292.349ZM117.793 295.096V279.352H97.7931V295.096H117.793ZM121.733 276.65H107.793V296.65H121.733V276.65ZM117.793 286.65V247.536H97.7931V286.65H117.793ZM110.424 257.184C110.412 257.187 110.516 257.159 110.78 257.108C111.033 257.059 111.375 257 111.819 256.933L108.852 237.155C107.618 237.34 106.323 237.572 105.162 237.888L110.424 257.184ZM111.749 256.943C112.373 256.854 113.126 256.798 114.025 256.798V236.798C112.3 236.798 110.594 236.906 108.921 237.144L111.749 256.943ZM114.025 256.798C114.43 256.798 114.733 256.815 114.948 256.837C115.165 256.858 115.259 256.88 115.253 256.879C115.249 256.878 115.103 256.844 114.859 256.736C114.612 256.628 114.24 256.433 113.815 256.105L126.044 240.279C122.163 237.281 117.412 236.798 114.025 236.798V256.798ZM114.047 256.279C112.661 255.271 112.058 254.057 111.841 253.436C111.654 252.902 111.733 252.774 111.733 253.358H131.733C131.733 249.871 131.014 243.889 125.811 240.105L114.047 256.279ZM111.733 253.358V286.65H131.733V253.358H111.733ZM132.49 244.83L125.419 237.759L125.419 237.759L132.49 244.83ZM143.478 244.83L150.549 237.759L150.549 237.759L143.478 244.83ZM143.478 255.326L150.549 262.397L150.616 262.33L150.681 262.262L143.478 255.326ZM132.49 255.326L125.287 262.262L125.352 262.33L125.419 262.397L132.49 255.326ZM131.014 279.352V269.352H121.014V279.352H131.014ZM144.954 279.352H154.954V269.352H144.954V279.352ZM144.954 300.918L147.585 310.566L154.954 308.556V300.918H144.954ZM142.33 301.41L140.916 291.511L140.881 291.515L140.846 291.521L142.33 301.41ZM132.818 300.262L126.703 308.175L126.788 308.24L126.874 308.304L132.818 300.262ZM144.954 286.65V296.65H154.954V286.65H144.954ZM131.014 286.65H121.014V296.65H131.014V286.65ZM131.014 261.722L128.383 252.074L121.014 254.084V261.722H131.014ZM133.556 261.23L132.142 251.331L132.107 251.335L132.072 251.341L133.556 261.23ZM143.15 262.378L137.035 270.291L137.151 270.38L137.268 270.465L143.15 262.378ZM140.358 250.078C140.358 250.2 140.332 250.537 140.156 250.972C139.976 251.414 139.733 251.729 139.561 251.901L125.419 237.759C122.053 241.125 120.358 245.448 120.358 250.078H140.358ZM139.561 251.901C139.313 252.149 138.957 252.395 138.547 252.554C138.158 252.705 137.928 252.698 137.984 252.698V232.698C133.424 232.698 128.939 234.239 125.419 237.759L139.561 251.901ZM137.984 252.698C138.04 252.698 137.809 252.705 137.421 252.554C137.011 252.395 136.655 252.149 136.407 251.901L150.549 237.759C147.029 234.239 142.543 232.698 137.984 232.698V252.698ZM136.407 251.901C136.235 251.729 135.992 251.414 135.812 250.972C135.635 250.537 135.61 250.2 135.61 250.078H155.61C155.61 245.448 153.915 241.125 150.549 237.759L136.407 251.901ZM135.61 250.078C135.61 249.892 135.648 249.547 135.812 249.143C135.975 248.742 136.178 248.49 136.275 248.39L150.681 262.262C153.871 258.95 155.61 254.725 155.61 250.078H135.61ZM136.407 248.255C136.655 248.007 137.011 247.761 137.421 247.602C137.809 247.451 138.04 247.458 137.984 247.458V267.458C142.543 267.458 147.029 265.917 150.549 262.397L136.407 248.255ZM137.984 247.458C137.928 247.458 138.158 247.451 138.547 247.602C138.957 247.761 139.313 248.007 139.561 248.255L125.419 262.397C128.939 265.917 133.424 267.458 137.984 267.458V247.458ZM139.693 248.39C139.79 248.49 139.992 248.742 140.156 249.143C140.32 249.547 140.358 249.892 140.358 250.078H120.358C120.358 254.725 122.097 258.95 125.287 262.262L139.693 248.39ZM131.014 289.352H144.954V269.352H131.014V289.352ZM134.954 279.352V300.918H154.954V279.352H134.954ZM142.323 291.27C142.366 291.259 142.278 291.284 142.004 291.335C141.744 291.384 141.387 291.443 140.916 291.511L143.744 311.309C145.018 311.128 146.379 310.895 147.585 310.566L142.323 291.27ZM140.846 291.521C140.325 291.599 139.626 291.656 138.722 291.656V311.656C140.442 311.656 142.148 311.549 143.813 311.299L140.846 291.521ZM138.722 291.656C138.337 291.656 138.047 291.639 137.841 291.619C137.739 291.608 137.664 291.598 137.611 291.589C137.559 291.581 137.535 291.575 137.535 291.575C137.535 291.575 137.564 291.582 137.618 291.6C137.672 291.617 137.755 291.647 137.861 291.693C138.074 291.784 138.393 291.947 138.762 292.22L126.874 308.304C130.698 311.13 135.274 311.656 138.722 311.656V291.656ZM138.932 292.349C140.147 293.288 140.697 294.38 140.906 294.977C141.086 295.493 141.014 295.625 141.014 295.096H121.014C121.014 298.703 121.811 304.394 126.703 308.175L138.932 292.349ZM141.014 295.096V279.352H121.014V295.096H141.014ZM144.954 276.65H131.014V296.65H144.954V276.65ZM141.014 286.65V261.722H121.014V286.65H141.014ZM133.645 271.37C133.633 271.373 133.737 271.345 134.001 271.294C134.254 271.245 134.596 271.186 135.039 271.119L132.072 251.341C130.839 251.526 129.543 251.758 128.383 252.074L133.645 271.37ZM134.97 271.129C135.593 271.04 136.347 270.984 137.246 270.984V250.984C135.521 250.984 133.814 251.092 132.142 251.331L134.97 271.129ZM137.246 270.984C137.65 270.984 137.954 271.001 138.169 271.023C138.385 271.044 138.479 271.066 138.474 271.065C138.47 271.064 138.323 271.03 138.08 270.922C137.833 270.814 137.46 270.619 137.035 270.291L149.264 254.465C145.384 251.467 140.632 250.984 137.246 250.984V270.984ZM137.268 270.465C135.882 269.457 135.279 268.243 135.062 267.622C134.875 267.088 134.954 266.96 134.954 267.544H154.954C154.954 264.057 154.234 258.075 149.032 254.291L137.268 270.465ZM134.954 267.544V286.65H154.954V267.544H134.954ZM169.162 273.53L162.621 265.966L162.57 266.011L162.519 266.056L169.162 273.53ZM180.56 290.668L183.472 300.235L183.598 300.196L183.723 300.155L180.56 290.668ZM183.84 289.356L189.772 281.305L184.844 277.674L179.368 280.412L183.84 289.356ZM186.136 291.816L177.421 296.719L177.534 296.92L177.656 297.116L186.136 291.816ZM183.676 300.262L178.531 291.687L178.483 291.716L178.435 291.745L183.676 300.262ZM162.602 299.852L158.309 308.883L158.337 308.897L158.366 308.91L162.602 299.852ZM154.812 292.8L146.121 297.745L146.172 297.835L146.224 297.923L154.812 292.8ZM155.14 269.348L163.528 274.793L163.55 274.76L163.571 274.726L155.14 269.348ZM163.176 262.296L167.348 271.384L167.409 271.356L167.47 271.327L163.176 262.296ZM183.102 262.05L177.555 270.37L177.604 270.403L177.653 270.434L183.102 262.05ZM185.644 270.496L194.36 275.399L194.423 275.288L194.482 275.175L185.644 270.496ZM183.922 272.792L179.664 281.84L186.024 284.833L190.994 279.863L183.922 272.792ZM180.56 271.562L177.398 281.049L177.578 281.109L177.76 281.162L180.56 271.562ZM176.296 260.906C171.219 260.906 166.504 262.608 162.621 265.966L175.704 281.094C175.786 281.022 175.841 280.987 175.867 280.971C175.893 280.956 175.907 280.95 175.915 280.947C175.923 280.944 175.948 280.936 176 280.927C176.052 280.918 176.148 280.906 176.296 280.906V260.906ZM162.519 266.056C157.839 270.215 156.21 275.867 156.21 281.238H176.21C176.21 280.492 176.321 280.258 176.287 280.345C176.268 280.394 176.22 280.502 176.127 280.639C176.032 280.777 175.92 280.903 175.806 281.004L162.519 266.056ZM156.21 281.238C156.21 286.483 157.746 292.237 162.573 296.375L175.588 281.189C175.764 281.34 175.923 281.517 176.053 281.704C176.18 281.889 176.246 282.036 176.274 282.11C176.324 282.241 176.21 282.02 176.21 281.238H156.21ZM162.573 296.375C166.531 299.768 171.311 301.242 176.214 301.242V281.242C175.76 281.242 175.572 281.178 175.559 281.173C175.549 281.17 175.558 281.172 175.576 281.183C175.594 281.193 175.599 281.199 175.588 281.189L162.573 296.375ZM176.214 301.242C178.608 301.242 181.071 300.966 183.472 300.235L177.649 281.101C177.535 281.136 177.101 281.242 176.214 281.242V301.242ZM183.723 300.155C185.316 299.624 186.881 299.016 188.313 298.3L179.368 280.412C179.05 280.571 178.429 280.838 177.398 281.181L183.723 300.155ZM177.908 297.407C178.12 297.562 177.791 297.378 177.421 296.719L194.852 286.913C193.497 284.505 191.638 282.68 189.772 281.305L177.908 297.407ZM177.656 297.116C177.012 296.085 176.956 295.219 176.956 295.014H196.956C196.956 292.294 196.354 289.296 194.616 286.516L177.656 297.116ZM176.956 295.014C176.956 294.351 177.149 293.477 177.656 292.666C178.122 291.921 178.584 291.655 178.531 291.687L188.821 308.837C193.428 306.073 196.956 301.353 196.956 295.014H176.956ZM178.435 291.745C178.547 291.677 178.372 291.813 177.686 291.96C177.002 292.107 175.965 292.23 174.492 292.23V312.23C179.335 312.23 184.533 311.477 188.917 308.779L178.435 291.745ZM174.492 292.23C171.114 292.23 168.651 291.641 166.839 290.794L158.366 308.91C163.333 311.233 168.797 312.23 174.492 312.23V292.23ZM166.896 290.821C165.314 290.069 164.227 289.063 163.401 287.677L146.224 297.923C149.115 302.769 153.221 306.465 158.309 308.883L166.896 290.821ZM163.504 287.855C162.743 286.517 162.106 284.459 162.106 281.238H142.106C142.106 287.091 143.274 292.742 146.121 297.745L163.504 287.855ZM162.106 281.238C162.106 277.797 162.827 275.873 163.528 274.793L146.753 263.903C143.408 269.055 142.106 275.058 142.106 281.238H162.106ZM163.571 274.726C164.587 273.133 165.806 272.092 167.348 271.384L159.005 253.208C153.878 255.561 149.739 259.222 146.71 263.97L163.571 274.726ZM167.47 271.327C169.376 270.421 171.532 269.918 174.082 269.918V249.918C168.761 249.918 163.647 251 158.883 253.265L167.47 271.327ZM174.082 269.918C175.436 269.918 176.362 270.044 176.948 270.183C177.525 270.319 177.659 270.44 177.555 270.37L188.649 253.729C184.231 250.784 178.988 249.918 174.082 249.918V269.918ZM177.653 270.434C177.746 270.495 177.367 270.271 176.976 269.616C176.55 268.901 176.382 268.133 176.382 267.544H196.382C196.382 261.319 193.036 256.58 188.552 253.666L177.653 270.434ZM176.382 267.544C176.382 267.265 176.416 266.956 176.497 266.636C176.576 266.316 176.689 266.04 176.807 265.817L194.482 275.175C195.728 272.823 196.382 270.235 196.382 267.544H176.382ZM176.929 265.593C176.887 265.668 176.857 265.71 176.845 265.726C176.833 265.742 176.835 265.738 176.851 265.721L190.994 279.863C192.344 278.512 193.458 277.003 194.36 275.399L176.929 265.593ZM188.18 263.744C186.656 263.026 185.02 262.446 183.36 261.962L177.76 281.162C178.725 281.443 179.331 281.683 179.664 281.84L188.18 263.744ZM183.723 262.075C181.288 261.264 178.788 260.906 176.296 260.906V280.906C176.866 280.906 177.209 280.986 177.398 281.049L183.723 262.075ZM213.874 285.748L208.598 294.243L214.837 298.117L220.401 293.324L213.874 285.748ZM203.706 279.434L196.557 272.441L187.839 281.353L198.43 287.929L203.706 279.434ZM222.156 260.574V250.574H217.949L215.007 253.581L222.156 260.574ZM228.962 262.46L223.003 270.491L223.064 270.536L223.125 270.58L228.962 262.46ZM229.864 271.562L222.479 264.819L222.479 264.819L229.864 271.562ZM224.534 276.564L231.061 284.14L231.07 284.132L224.534 276.564ZM204.362 281.402L200.406 272.217L188.358 277.406L196.553 287.649L204.362 281.402ZM215.596 276.564L222.65 269.476L217.854 264.703L211.64 267.379L215.596 276.564ZM232.898 293.784L242.86 294.65L243.265 289.994L239.952 286.696L232.898 293.784ZM230.684 299.688L238.043 306.459L238.109 306.387L238.174 306.314L230.684 299.688ZM220.598 300.508L215.207 308.931L215.401 309.055L215.6 309.17L220.598 300.508ZM216.17 296.162L224.04 289.993L224.009 289.954L223.978 289.915L216.17 296.162ZM194.112 279.352V269.352H184.112V279.352H194.112ZM208.052 279.352H218.052V269.352H208.052V279.352ZM208.052 300.918L210.683 310.566L218.052 308.556V300.918H208.052ZM205.428 301.41L204.013 291.511L203.979 291.515L203.944 291.521L205.428 301.41ZM195.916 300.262L189.801 308.175L189.886 308.24L189.972 308.304L195.916 300.262ZM208.052 286.65V296.65H218.052V286.65H208.052ZM194.112 286.65H184.112V296.65H194.112V286.65ZM194.112 247.536L191.48 237.888L184.112 239.898V247.536H194.112ZM196.654 247.044L195.239 237.144L195.205 237.149L195.17 237.155L196.654 247.044ZM206.248 248.192L200.133 256.105L200.248 256.194L200.366 256.279L206.248 248.192ZM219.149 277.253L208.981 270.939L198.43 287.929L208.598 294.243L219.149 277.253ZM210.854 286.427L229.304 267.567L215.007 253.581L196.557 272.441L210.854 286.427ZM222.156 270.574C222.855 270.574 223.212 270.653 223.319 270.682C223.404 270.706 223.251 270.675 223.003 270.491L234.92 254.429C230.992 251.515 226.408 250.574 222.156 250.574V270.574ZM223.125 270.58C223.021 270.505 222.577 270.153 222.174 269.423C221.748 268.652 221.586 267.85 221.586 267.216H241.586C241.586 261.642 238.781 257.203 234.798 254.34L223.125 270.58ZM221.586 267.216C221.586 266.842 221.657 266.358 221.858 265.849C222.058 265.346 222.311 265.003 222.479 264.819L237.248 278.305C240.008 275.282 241.586 271.454 241.586 267.216H221.586ZM222.479 264.819C221.734 265.635 220.312 266.996 217.997 268.996L231.07 284.132C233.565 281.977 235.697 280.004 237.248 278.305L222.479 264.819ZM218.007 268.988L207.347 278.172L220.401 293.324L231.061 284.14L218.007 268.988ZM208.317 290.587L219.551 285.749L211.64 267.379L200.406 272.217L208.317 290.587ZM208.541 283.652L225.843 300.872L239.952 286.696L222.65 269.476L208.541 283.652ZM222.935 292.918C222.889 293.445 222.811 293.651 222.817 293.635C222.821 293.622 222.849 293.553 222.912 293.446C222.976 293.337 223.068 293.204 223.194 293.062L238.174 306.314C241.255 302.831 242.517 298.601 242.86 294.65L222.935 292.918ZM223.324 292.917C223.791 292.41 224.35 292.062 224.845 291.874C225.292 291.705 225.493 291.738 225.272 291.738V311.738C229.627 311.738 234.415 310.402 238.043 306.459L223.324 292.917ZM225.272 291.738C225.239 291.738 225.283 291.735 225.377 291.76C225.473 291.785 225.551 291.821 225.595 291.846L215.6 309.17C218.592 310.896 221.883 311.738 225.272 311.738V291.738ZM225.988 292.085C226.019 292.105 225.843 291.995 225.47 291.629C225.105 291.27 224.627 290.741 224.04 289.993L208.299 302.331C210.222 304.784 212.505 307.201 215.207 308.931L225.988 292.085ZM223.978 289.915L212.17 275.155L196.553 287.649L208.361 302.409L223.978 289.915ZM194.112 289.352H208.052V269.352H194.112V289.352ZM198.052 279.352V300.918H218.052V279.352H198.052ZM205.42 291.27C205.464 291.259 205.376 291.284 205.102 291.335C204.842 291.384 204.484 291.443 204.013 291.511L206.842 311.309C208.115 311.128 209.476 310.895 210.683 310.566L205.42 291.27ZM203.944 291.521C203.423 291.599 202.724 291.656 201.82 291.656V311.656C203.539 311.656 205.246 311.549 206.911 311.299L203.944 291.521ZM201.82 291.656C201.435 291.656 201.145 291.639 200.939 291.619C200.837 291.608 200.761 291.598 200.709 291.589C200.657 291.581 200.632 291.575 200.633 291.575C200.633 291.575 200.662 291.582 200.716 291.6C200.77 291.617 200.853 291.647 200.959 291.693C201.171 291.784 201.49 291.947 201.86 292.22L189.972 308.304C193.796 311.13 198.371 311.656 201.82 311.656V291.656ZM202.03 292.349C203.245 293.288 203.795 294.38 204.004 294.977C204.184 295.493 204.112 295.625 204.112 295.096H184.112C184.112 298.703 184.909 304.394 189.801 308.175L202.03 292.349ZM204.112 295.096V279.352H184.112V295.096H204.112ZM208.052 276.65H194.112V296.65H208.052V276.65ZM204.112 286.65V247.536H184.112V286.65H204.112ZM196.743 257.184C196.73 257.187 196.835 257.159 197.098 257.108C197.352 257.059 197.693 257 198.137 256.933L195.17 237.155C193.936 237.34 192.641 237.572 191.48 237.888L196.743 257.184ZM198.068 256.943C198.691 256.854 199.444 256.798 200.344 256.798V236.798C198.619 236.798 196.912 236.906 195.239 237.144L198.068 256.943ZM200.344 256.798C200.748 256.798 201.052 256.815 201.267 256.837C201.483 256.858 201.577 256.88 201.572 256.879C201.567 256.878 201.421 256.844 201.177 256.736C200.931 256.628 200.558 256.433 200.133 256.105L212.362 240.279C208.482 237.281 203.73 236.798 200.344 236.798V256.798ZM200.366 256.279C198.98 255.271 198.376 254.057 198.16 253.436C197.973 252.902 198.052 252.774 198.052 253.358H218.052C218.052 249.871 217.332 243.889 212.129 240.105L200.366 256.279ZM198.052 253.358V286.65H218.052V253.358H198.052ZM239.842 279.352V269.352H229.842V279.352H239.842ZM253.782 279.352H263.782V269.352H253.782V279.352ZM253.782 300.918L256.413 310.566L263.782 308.556V300.918H253.782ZM251.158 301.41L249.744 291.511L249.709 291.515L249.675 291.521L251.158 301.41ZM241.646 300.262L235.531 308.175L235.616 308.24L235.702 308.304L241.646 300.262ZM253.782 286.65V296.65H263.782V286.65H253.782ZM239.842 286.65H229.842V296.65H239.842V286.65ZM239.842 247.536L237.211 237.888L229.842 239.898V247.536H239.842ZM242.384 247.044L240.97 237.144L240.935 237.149L240.901 237.155L242.384 247.044ZM251.978 248.192L245.864 256.105L245.979 256.194L246.096 256.279L251.978 248.192ZM239.842 289.352H253.782V269.352H239.842V289.352ZM243.782 279.352V300.918H263.782V279.352H243.782ZM251.151 291.27C251.194 291.259 251.106 291.284 250.832 291.335C250.572 291.384 250.215 291.443 249.744 291.511L252.572 311.309C253.846 311.128 255.207 310.895 256.413 310.566L251.151 291.27ZM249.675 291.521C249.153 291.599 248.454 291.656 247.55 291.656V311.656C249.27 311.656 250.976 311.549 252.641 311.299L249.675 291.521ZM247.55 291.656C247.165 291.656 246.876 291.639 246.669 291.619C246.568 291.608 246.492 291.598 246.439 291.589C246.387 291.581 246.363 291.575 246.363 291.575C246.363 291.575 246.392 291.582 246.446 291.6C246.5 291.617 246.583 291.647 246.69 291.693C246.902 291.784 247.221 291.947 247.59 292.22L235.702 308.304C239.526 311.13 244.102 311.656 247.55 311.656V291.656ZM247.76 292.349C248.975 293.288 249.525 294.38 249.734 294.977C249.914 295.493 249.842 295.625 249.842 295.096H229.842C229.842 298.703 230.639 304.394 235.531 308.175L247.76 292.349ZM249.842 295.096V279.352H229.842V295.096H249.842ZM253.782 276.65H239.842V296.65H253.782V276.65ZM249.842 286.65V247.536H229.842V286.65H249.842ZM242.473 257.184C242.461 257.187 242.565 257.159 242.829 257.108C243.082 257.059 243.424 257 243.867 256.933L240.901 237.155C239.667 237.34 238.371 237.572 237.211 237.888L242.473 257.184ZM243.798 256.943C244.422 256.854 245.175 256.798 246.074 256.798V236.798C244.349 236.798 242.642 236.906 240.97 237.144L243.798 256.943ZM246.074 256.798C246.479 256.798 246.782 256.815 246.997 256.837C247.214 256.858 247.308 256.88 247.302 256.879C247.298 256.878 247.152 256.844 246.908 256.736C246.661 256.628 246.288 256.433 245.864 256.105L258.092 240.279C254.212 237.281 249.46 236.798 246.074 236.798V256.798ZM246.096 256.279C244.71 255.271 244.107 254.057 243.89 253.436C243.703 252.902 243.782 252.774 243.782 253.358H263.782C263.782 249.871 263.063 243.889 257.86 240.105L246.096 256.279ZM243.782 253.358V286.65H263.782V253.358H243.782ZM268.967 290.832L259.818 294.868L259.834 294.906L259.851 294.943L268.967 290.832ZM266.343 284.436L256.988 287.97L257.001 288.005L257.015 288.04L266.343 284.436ZM263.391 275.662L253.775 278.409L253.802 278.501L253.83 278.592L263.391 275.662ZM260.111 263.198L253.04 256.127L249.048 260.118L250.403 265.598L260.111 263.198ZM263.145 261.23L267.132 270.401L267.222 270.362L267.311 270.321L263.145 261.23ZM272.165 261.558L266.702 269.934L266.832 270.019L266.965 270.1L272.165 261.558ZM274.953 265.986L265.311 268.638L265.324 268.685L265.337 268.733L274.953 265.986ZM278.233 277.384L268.628 280.168L268.634 280.187L268.639 280.206L278.233 277.384ZM281.431 288.536L271.8 291.227L273.842 298.536H281.431V288.536ZM281.759 288.536V298.536H288.868L291.204 291.821L281.759 288.536ZM284.301 280.254L274.699 277.461L274.675 277.542L274.653 277.623L284.301 280.254ZM286.679 271.07L276.958 268.724L276.943 268.785L276.929 268.846L286.679 271.07ZM288.565 261.886L283.886 253.048L279.514 255.363L278.701 260.242L288.565 261.886ZM291.435 260.738L288.758 251.103L291.435 260.738ZM299.553 261.558L304.55 252.896L304.55 252.896L299.553 261.558ZM301.029 271.89L310.852 273.761L310.852 273.761L301.029 271.89ZM299.225 279.188L289.641 276.333L289.641 276.333L299.225 279.188ZM296.601 286.978L305.939 290.554L305.952 290.522L305.964 290.489L296.601 286.978ZM293.485 294.44L302.552 298.657L302.57 298.618L302.588 298.578L293.485 294.44ZM290.205 300.836L298.865 305.836L298.876 305.817L298.887 305.797L290.205 300.836ZM281.677 312.644L274.68 305.499L274.68 305.499L281.677 312.644ZM268.229 314.448L275.023 307.11L275.023 307.11L268.229 314.448ZM265.605 309.118L259.097 301.525L255.015 305.024L255.682 310.358L265.605 309.118ZM269.049 305.92L262.144 298.686L262.06 298.767L261.978 298.849L269.049 305.92ZM272.493 302.23L264.947 295.668L264.878 295.747L264.81 295.828L272.493 302.23ZM275.445 298.458L283.654 304.169L291.577 292.779L278.266 288.864L275.445 298.458ZM272.411 296.572L265.34 303.643L265.526 303.829L265.721 304.005L272.411 296.572ZM278.116 286.796C277.373 285.112 276.558 283.128 275.671 280.832L257.015 288.04C257.986 290.554 258.92 292.835 259.818 294.868L278.116 286.796ZM275.697 280.902C274.864 278.696 273.948 275.983 272.952 272.732L253.83 278.592C254.911 282.12 255.963 285.256 256.988 287.97L275.697 280.902ZM273.006 272.915C272.065 269.621 271.003 265.589 269.819 260.798L250.403 265.598C251.624 270.537 252.748 274.815 253.775 278.409L273.006 272.915ZM267.182 270.269C267.017 270.434 266.902 270.511 266.885 270.522C266.87 270.531 266.941 270.484 267.132 270.401L259.157 252.059C257.044 252.978 254.894 254.273 253.04 256.127L267.182 270.269ZM267.311 270.321C267.304 270.324 267.294 270.328 267.283 270.332C267.272 270.335 267.265 270.337 267.264 270.337C267.263 270.337 267.273 270.335 267.294 270.333C267.316 270.331 267.354 270.328 267.409 270.328V250.328C264.529 250.328 261.676 250.903 258.978 252.139L267.311 270.321ZM267.409 270.328C267.659 270.328 267.678 270.355 267.529 270.317C267.366 270.275 267.061 270.168 266.702 269.934L277.627 253.182C274.353 251.046 270.733 250.328 267.409 250.328V270.328ZM266.965 270.1C266.049 269.542 265.551 268.898 265.342 268.567C265.155 268.27 265.196 268.222 265.311 268.638L284.595 263.334C283.672 259.978 281.721 255.668 277.364 253.016L266.965 270.1ZM265.337 268.733C266.434 272.572 267.531 276.384 268.628 280.168L287.837 274.6C286.748 270.84 285.658 267.053 284.568 263.239L265.337 268.733ZM268.639 280.206C269.72 283.88 270.773 287.554 271.8 291.227L291.062 285.845C290.011 282.084 288.932 278.323 287.826 274.562L268.639 280.206ZM281.431 298.536H281.759V278.536H281.431V298.536ZM291.204 291.821C292.165 289.058 293.078 286.076 293.948 282.885L274.653 277.623C273.883 280.445 273.102 282.984 272.314 285.251L291.204 291.821ZM293.903 283.047C294.833 279.848 295.675 276.597 296.428 273.294L276.929 268.846C276.261 271.775 275.517 274.646 274.699 277.461L293.903 283.047ZM296.4 273.416C297.216 270.034 297.894 266.738 298.429 263.53L278.701 260.242C278.251 262.938 277.672 265.765 276.958 268.724L296.4 273.416ZM293.244 270.724C293.555 270.559 293.842 270.448 294.111 270.373L288.758 251.103C287.06 251.575 285.433 252.229 283.886 253.048L293.244 270.724ZM294.111 270.373C294.164 270.358 294.298 270.328 294.551 270.328V250.328C292.616 250.328 290.673 250.571 288.758 251.103L294.111 270.373ZM294.551 270.328C294.793 270.328 294.879 270.354 294.848 270.346C294.833 270.343 294.796 270.332 294.741 270.31C294.686 270.288 294.622 270.258 294.555 270.22L304.55 252.896C301.373 251.063 297.924 250.328 294.551 250.328V270.328ZM294.555 270.22C293.627 269.684 292.758 268.813 292.207 267.711C291.705 266.707 291.685 265.952 291.685 265.822H311.685C311.685 261.199 309.826 255.94 304.55 252.896L294.555 270.22ZM291.685 265.822C291.685 266.775 291.562 268.148 291.205 270.019L310.852 273.761C311.37 271.04 311.685 268.368 311.685 265.822H291.685ZM291.205 270.019C290.84 271.939 290.323 274.042 289.641 276.333L308.809 282.043C309.657 279.196 310.343 276.433 310.852 273.761L291.205 270.019ZM289.641 276.333C288.944 278.672 288.144 281.049 287.237 283.467L305.964 290.489C307.025 287.659 307.974 284.843 308.809 282.043L289.641 276.333ZM287.262 283.402C286.348 285.789 285.387 288.089 284.381 290.302L302.588 298.578C303.769 295.981 304.886 293.306 305.939 290.554L287.262 283.402ZM284.417 290.223C283.422 292.363 282.455 294.242 281.522 295.875L298.887 305.797C300.141 303.604 301.361 301.218 302.552 298.657L284.417 290.223ZM281.544 295.836C278.678 300.801 276.367 303.848 274.68 305.499L288.673 319.789C292.235 316.301 295.608 311.477 298.865 305.836L281.544 295.836ZM274.68 305.499C273.959 306.206 273.507 306.464 273.36 306.535C273.256 306.586 273.406 306.498 273.723 306.498V326.498C279.863 326.498 284.887 323.496 288.673 319.789L274.68 305.499ZM273.723 306.498C273.682 306.498 273.878 306.494 274.205 306.616C274.547 306.744 274.833 306.934 275.023 307.11L261.435 321.786C264.927 325.02 269.256 326.498 273.723 326.498V306.498ZM275.023 307.11C275.169 307.246 275.325 307.446 275.437 307.674C275.544 307.89 275.542 307.99 275.527 307.878L255.682 310.358C256.218 314.643 258.061 318.662 261.435 321.786L275.023 307.11ZM272.113 316.711C273.469 315.548 274.804 314.307 276.12 312.991L261.978 298.849C260.997 299.829 260.037 300.72 259.097 301.525L272.113 316.711ZM275.953 313.154C277.438 311.736 278.845 310.228 280.175 308.632L264.81 295.828C263.954 296.856 263.065 297.808 262.144 298.686L275.953 313.154ZM280.039 308.792C281.348 307.286 282.557 305.746 283.654 304.169L267.236 292.747C266.583 293.685 265.824 294.659 264.947 295.668L280.039 308.792ZM278.266 288.864C278.838 289.032 279.176 289.231 279.269 289.289C279.364 289.348 279.307 289.325 279.1 289.139L265.721 304.005C267.402 305.518 269.709 307.195 272.623 308.052L278.266 288.864ZM279.482 289.501C279.757 289.776 279.692 289.791 279.346 289.213C279.03 288.687 278.605 287.88 278.083 286.721L259.851 294.943C261.186 297.903 262.94 301.243 265.34 303.643L279.482 289.501Z" fill="black" mask="url(#path-2-outside-1_281_19609)"/>
<path d="M184 225C230.944 225 269 186.944 269 140C269 93.0558 230.944 55 184 55C137.056 55 99 93.0558 99 140C99 186.944 137.056 225 184 225Z" fill="#FFCC4D"/>
<path d="M198.149 182.5C197.663 182.5 197.176 182.424 196.69 182.268C188.379 179.572 179.619 179.572 171.308 182.268C168.833 183.066 166.165 181.716 165.358 179.237C164.55 176.757 165.91 174.094 168.394 173.287C178.604 169.972 189.394 169.972 199.603 173.287C202.083 174.094 203.443 176.757 202.64 179.237C201.993 181.225 200.142 182.5 198.149 182.5Z" fill="#65471B"/>
<path d="M242.249 111.987C237.985 124.949 225.792 134.252 211.583 134.252C210.903 134.252 210.218 134.228 209.529 134.186C202.554 133.747 196.108 131.093 190.876 126.706C191.046 129.043 191.235 131.414 191.518 133.978C192.236 140.533 195.693 145.699 201.51 148.915C205.383 151.058 210.01 152.163 214.794 152.466C222.982 152.98 231.652 151.143 237.805 148.173C244.308 145.033 248.534 139.38 249.403 132.661C250.267 125.979 247.732 118.853 242.249 111.987Z" fill="white"/>
<path d="M199.824 90.8079C193.699 93.4051 190.63 101.674 190.488 115.784L190.672 116.105C194.908 122.333 201.878 126.607 209.977 127.117C210.515 127.15 211.054 127.169 211.587 127.169C224.025 127.169 234.485 118.022 236.393 105.806C235.85 105.31 235.349 104.805 234.773 104.313C217.23 89.344 204.235 88.9332 199.824 90.8079Z" fill="#65471B"/>
<path d="M211.583 134.252C225.792 134.252 237.985 124.949 242.249 111.987C240.577 109.895 238.608 107.831 236.389 105.805C234.481 118.022 224.021 127.169 211.583 127.169C211.049 127.169 210.511 127.15 209.973 127.117C201.874 126.607 194.904 122.333 190.668 116.104L190.484 115.783C190.451 119.094 190.583 122.739 190.876 126.706C196.108 131.093 202.554 133.747 209.529 134.186C210.218 134.233 210.903 134.252 211.583 134.252Z" fill="#F4900C"/>
<path d="M200.118 110.779C203.005 110.779 205.346 108.439 205.346 105.552C205.346 102.665 203.005 100.324 200.118 100.324C197.231 100.324 194.891 102.665 194.891 105.552C194.891 108.439 197.231 110.779 200.118 110.779Z" fill="white"/>
<path d="M156.418 134.252C142.209 134.252 130.016 124.949 125.752 111.987C120.269 118.853 117.738 125.979 118.597 132.656C119.471 139.376 123.693 145.033 130.195 148.168C136.348 151.139 145.014 152.976 153.207 152.461C157.99 152.159 162.618 151.058 166.49 148.91C172.303 145.694 175.76 140.528 176.482 133.973C176.766 131.414 176.955 129.053 177.125 126.72C171.916 131.079 165.461 133.742 158.472 134.181C157.782 134.233 157.098 134.252 156.418 134.252Z" fill="white"/>
<path d="M156.417 127.169C156.95 127.169 157.489 127.15 158.027 127.117C166.126 126.607 173.096 122.334 177.331 116.105L177.516 115.784C177.369 101.674 174.304 93.4052 168.18 90.808C163.769 88.9332 150.769 89.3441 133.231 104.309C132.654 104.8 132.159 105.305 131.611 105.801C133.519 118.022 143.978 127.169 156.417 127.169Z" fill="#65471B"/>
<path d="M177.512 115.783L177.328 116.104C173.092 122.333 166.122 126.607 158.023 127.117C157.485 127.15 156.947 127.169 156.413 127.169C143.975 127.169 133.515 118.022 131.607 105.805C129.388 107.831 127.419 109.895 125.747 111.987C130.011 124.949 142.204 134.252 156.413 134.252C157.093 134.252 157.778 134.228 158.467 134.186C165.456 133.747 171.912 131.083 177.12 126.725C177.413 122.753 177.55 119.103 177.512 115.783Z" fill="#F4900C"/>
<path d="M145.189 110.769C148.07 110.589 150.261 108.105 150.077 105.225C149.897 102.344 147.413 100.153 144.533 100.333C141.652 100.512 139.461 102.996 139.641 105.876C139.825 108.757 142.309 110.948 145.189 110.769Z" fill="white"/>
<path d="M90.9053 195.968L75.9864 190.445L70.4155 172.187C70.2009 171.483 69.5487 171 68.8128 171C68.0768 171 67.4246 171.483 67.21 172.187L61.6408 190.445L46.7202 195.968C46.0614 196.212 45.6255 196.838 45.6255 197.54C45.6255 198.241 46.0614 198.87 46.7202 199.113L61.6324 204.633L67.205 223.448C67.4163 224.159 68.0701 224.647 68.8128 224.647C69.5538 224.647 70.2093 224.159 70.4205 223.447L75.9931 204.632L90.907 199.111C91.5625 198.87 92 198.243 92 197.54C92 196.839 91.5625 196.212 90.9053 195.968Z" fill="#FFAC33"/>
<path d="M57.3759 214.41L53.4965 212.975L51.9877 207.443C51.7899 206.712 51.1276 206.206 50.3716 206.206C49.6155 206.206 48.9533 206.712 48.7538 207.441L47.2449 212.974L43.3673 214.409C42.7084 214.652 42.2725 215.28 42.2725 215.981C42.2725 216.682 42.7084 217.311 43.3673 217.554L47.2248 218.984L48.7454 225.056C48.9331 225.8 49.6021 226.323 50.3716 226.323C51.1411 226.323 51.81 225.8 51.9977 225.054L53.5183 218.982L57.3759 217.552C58.0347 217.311 58.4706 216.682 58.4706 215.981C58.4706 215.28 58.0347 214.652 57.3759 214.41ZM50.1033 178.093L46.1401 176.626L44.6716 172.661C44.4285 172.002 43.8015 171.566 43.099 171.566C42.3983 171.566 41.7713 172.002 41.5265 172.661L40.0596 176.626L36.0947 178.093C35.4359 178.338 35 178.965 35 179.665C35 180.366 35.4359 180.995 36.0947 181.238L40.0596 182.705L41.5265 186.67C41.7713 187.329 42.3983 187.764 43.099 187.764C43.7998 187.764 44.4268 187.329 44.6716 186.67L46.1385 182.705L50.1033 181.238C50.7622 180.993 51.1981 180.366 51.1981 179.665C51.1981 178.965 50.7622 178.338 50.1033 178.093Z" fill="#FFCC4D"/>
<path d="M295.328 215.331L286.167 211.94L282.746 200.729C282.615 200.296 282.214 200 281.762 200C281.31 200 280.91 200.296 280.778 200.729L277.358 211.94L268.197 215.331C267.792 215.481 267.524 215.865 267.524 216.297C267.524 216.727 267.792 217.113 268.197 217.262L277.353 220.652L280.775 232.205C280.905 232.642 281.306 232.941 281.762 232.941C282.217 232.941 282.62 232.642 282.749 232.204L286.171 220.651L295.329 217.261C295.731 217.113 296 216.728 296 216.297C296 215.866 295.731 215.481 295.328 215.331Z" fill="#FFAC33"/>
<path d="M274.74 226.655L272.358 225.774L271.431 222.377C271.31 221.928 270.903 221.617 270.439 221.617C269.974 221.617 269.568 221.928 269.445 222.376L268.519 225.773L266.138 226.654C265.733 226.804 265.466 227.19 265.466 227.62C265.466 228.05 265.733 228.436 266.138 228.586L268.506 229.464L269.44 233.192C269.555 233.649 269.966 233.97 270.439 233.97C270.911 233.97 271.322 233.649 271.437 233.191L272.371 229.463L274.74 228.585C275.144 228.436 275.412 228.05 275.412 227.62C275.412 227.19 275.144 226.804 274.74 226.655ZM270.274 204.355L267.84 203.454L266.939 201.02C266.789 200.615 266.404 200.348 265.973 200.348C265.543 200.348 265.158 200.615 265.008 201.02L264.107 203.454L261.672 204.355C261.268 204.505 261 204.89 261 205.321C261 205.751 261.268 206.137 261.672 206.286L264.107 207.187L265.008 209.622C265.158 210.026 265.543 210.294 265.973 210.294C266.403 210.294 266.788 210.026 266.939 209.622L267.839 207.187L270.274 206.286C270.679 206.136 270.946 205.751 270.946 205.321C270.946 204.89 270.679 204.505 270.274 204.355Z" fill="#FFCC4D"/>
<path d="M324.663 77.4322L307.674 71.1436L301.33 50.3516C301.086 49.5498 300.343 49 299.505 49C298.667 49 297.924 49.5498 297.68 50.3516L291.338 71.1436L274.347 77.4322C273.596 77.7109 273.1 78.423 273.1 79.2229C273.1 80.0209 273.596 80.7368 274.347 81.0137L291.328 87.3003L297.674 108.726C297.915 109.536 298.659 110.091 299.505 110.091C300.349 110.091 301.095 109.536 301.336 108.724L307.681 87.2984L324.665 81.0117C325.411 80.7368 325.91 80.0228 325.91 79.2229C325.91 78.4249 325.411 77.7109 324.663 77.4322Z" fill="#FFAC33"/>
<path d="M286.481 98.4339L282.063 96.7997L280.345 90.4997C280.12 89.6673 279.366 89.0908 278.505 89.0908C277.644 89.0908 276.889 89.6673 276.662 90.4978L274.944 96.7978L270.528 98.432C269.778 98.7088 269.282 99.4247 269.282 100.223C269.282 101.021 269.778 101.737 270.528 102.013L274.921 103.642L276.653 110.557C276.867 111.404 277.628 112 278.505 112C279.381 112 280.143 111.404 280.356 110.555L282.088 103.64L286.481 102.012C287.231 101.737 287.727 101.021 287.727 100.223C287.727 99.4247 287.231 98.7088 286.481 98.4339ZM278.199 57.0771L273.686 55.4067L272.014 50.8917C271.737 50.1414 271.023 49.645 270.223 49.645C269.425 49.645 268.711 50.1414 268.432 50.8917L266.762 55.4067L262.247 57.0771C261.496 57.3559 261 58.0699 261 58.8679C261 59.6659 261.496 60.3818 262.247 60.6586L266.762 62.3291L268.432 66.8441C268.711 67.5944 269.425 68.0907 270.223 68.0907C271.021 68.0907 271.735 67.5944 272.014 66.8441L273.684 62.3291L278.199 60.6586C278.949 60.3799 279.446 59.6659 279.446 58.8679C279.446 58.0699 278.949 57.3559 278.199 57.0771Z" fill="#FFCC4D"/>
<defs>
<filter id="filter0_d_281_19609" x="0.299999" y="0.299999" width="370.4" height="370.4" filterUnits="userSpaceOnUse" color-interpolation-filters="sRGB">
<feFlood flood-opacity="0" result="BackgroundImageFix"/>
<feColorMatrix in="SourceAlpha" type="matrix" values="0 0 0 0 0 0 0 0 0 0 0 0 0 0 0 0 0 0 127 0" result="hardAlpha"/>
<feMorphology radius="6" operator="dilate" in="SourceAlpha" result="effect1_dropShadow_281_19609"/>
<feOffset dx="2" dy="4"/>
<feGaussianBlur stdDeviation="8.35"/>
<feComposite in2="hardAlpha" operator="out"/>
<feColorMatrix type="matrix" values="0 0 0 0 0 0 0 0 0 0 0 0 0 0 0 0 0 0 0.25 0"/>
<feBlend mode="normal" in2="BackgroundImageFix" result="effect1_dropShadow_281_19609"/>
<feBlend mode="normal" in="SourceGraphic" in2="effect1_dropShadow_281_19609" result="shape"/>
</filter>
<radialGradient id="paint0_radial_281_19609" cx="0" cy="0" r="1" gradientUnits="userSpaceOnUse" gradientTransform="translate(183.5 181.5) rotate(90) scale(162.5)">
<stop offset="0.54" stop-color="#3B82F6"/>
<stop offset="1" stop-color="#2563EB"/>
</radialGradient>
</defs>
</svg>
