<svg width="43" height="45" fill="none" xmlns="http://www.w3.org/2000/svg">
    <path d="M35.736.27c3.531-1.765 6.578 5.262 3.947 17.103-1.455 6.547-6.578 11.84-11.84 15.787-5.263 3.947-14.472-1.316-9.21-6.578 5.263-5.263 10.525-9.21 13.156-17.103 1.716-5.146 1.316-7.893 3.947-9.209Z" fill="#FFE8B6"/>
    <path d="M39.683 8.164c0 3.947-1.316 11.84-5.262 17.102-3.947 5.263-9.21 6.578-5.263 1.316 3.947-5.262 6.578-9.21 7.894-14.472 1.315-5.262 2.631-9.209 2.631-3.946Z" fill="#FFD983"/>
    <path d="M27.843 23.951c-.39.779 1.535-5.043-3.947-7.894-2.61-1.357-13.156 1.316-5.262 1.316 3.946 0 5.262 2.631 2.63 5.262a3.84 3.84 0 0 0-.818 1.2 47.19 47.19 0 0 1-1.812 1.431c-2.978 2.233-7.684 5.562-13.156 9.21C1.53 37.106.215 38.422.215 39.738c0 3.947 11.84 3.947 18.419 1.316 6.578-2.632 13.155-9.21 13.155-9.21l5.263-5.262c-3.947-5.262-9.21-2.631-9.21-2.631Z" fill="#FFCC4D"/>
    <path d="M27.843 23.95s2.357-6.221-3.947-9.209c-5.318-2.52-10.525-1.315-14.471 1.316-3.947 2.631-2.632 5.262-3.947 6.578-1.316 1.316 1.315 2.631 3.947 0 2.63-2.631 10.94-6.44 14.471-5.263 3.947 1.316 2.631 3.946 3.947 6.579Z" fill="#FFE8B6"/>
    <path d="M33.105 43.684h-5.262C25.21 43.684 23.896 45 22.58 45c-1.315 0-2.631-2.631 0-2.631s5.263 0 6.578-1.316c1.316-1.315 6.578 2.631 3.947 2.631Z" fill="#A6D388"/>
    <path d="M22.58 45a1.316 1.316 0 1 0 0-2.631 1.316 1.316 0 0 0 0 2.63Z" fill="#3E721D"/>
    <path d="M41.272 34.475s-5.536 9.21-8.167 9.21h-5.262c-2.632 0 0-1.316 1.315-2.632 1.316-1.315 6.578 0 6.578-7.893 0-3.947 5.536 1.315 5.536 1.315Z" fill="#FFCC4D"/>
    <path d="M33.105 22.635c3.947 0 10.525 3.946 9.21 11.84-1.316 7.894-6.579 9.21-9.21 9.21h-2.631c-2.631 0-1.316-1.316 0-2.632s5.262 0 5.262-7.893c0-3.947-5.262-9.21-7.893-9.21 0 0 2.63-1.315 5.262-1.315Z" fill="#FFE8B6"/>
    <path d="M21.265 25.266c3.947 0 6.578 1.316 3.947 3.947-2.08 2.08-7.894 6.578-13.156 7.893-5.263 1.316-10.525 1.316-6.578-1.315 3.947-2.631 12.845-10.525 15.787-10.525Z" fill="#FFD983"/>
    <path d="M1.53 38.422c1.317 0 1.317 0 1.317.877s0 1.754-1.316 1.754S.215 39.299.215 39.299s0-.877 1.316-.877Z" fill="#C1694F"/>
</svg>