<svg width="45" height="45" fill="none" xmlns="http://www.w3.org/2000/svg">
    <path d="M22.577 25.482c-12.007 0-21.74-.289-21.74 8.235 0 8.519 9.733 10.458 21.74 10.458 12.007 0 21.74-1.94 21.74-10.458 0-8.522-9.733-8.235-21.74-8.235Z" fill="#D99E82"/>
    <path d="M43.68 26.129s-10.531-1.261-21.103-1.315c-10.572.054-21.103 1.315-21.103 1.315C.432 34.424 9.08 37.84 22.577 37.84c13.496 0 22.145-3.417 21.103-11.712Z" fill="#662113"/>
    <path d="m42.932 22.813-40.816.827c-1.41 0-2.59 2.856-1.094 3.603 11.157 3.47 20.126 6.98 20.126 6.98 1.233.682 1.65.685 2.883.005 0 0 12.386-4.957 20.341-7.039 1.129-.294-.032-4.377-1.44-4.377Z" fill="#FFCC4D"/>
    <path d="M44.007 22.92c-2.435-2.244-2.294-1.05-4.16-1.576-.708-.2-5.778-6.754-17.334-6.754h-.026c-11.556 0-16.626 6.554-17.335 6.754-1.865.527-1.724-.668-4.159 1.576-1.117 1.03-1.42 1.566-.24 1.832 1.775.401 1.614 1.476 2.886 1.85 1.54.453 2.173-.374 4.657-.035 2.118.288 2.256 3.035 4.393 3.035s2.137-1.025 4.273-1.025c2.136 0 3.4 2.75 5.537 2.75s3.399-2.75 5.536-2.75c2.137 0 2.137 1.025 4.273 1.025 2.138 0 2.276-2.747 4.394-3.035 2.483-.337 3.117.488 4.656.035 1.273-.374 1.111-1.447 2.887-1.85 1.181-.265.88-.802-.238-1.832Z" fill="#77B255"/>
    <path d="M43.176 20.496c0 3.823-9.223 5.628-20.6 5.628-11.376 0-20.599-1.805-20.599-5.628 0-6.923 1.238-6.923 20.6-6.923 19.361 0 20.6.001 20.6 6.923Z" fill="#DD2E44"/>
    <path d="M22.577 0C10.57 0 .837 5.626.837 14.148c0 7.848 9.733 8.168 21.74 8.168 12.007 0 21.74-.32 21.74-8.168C44.317 5.625 34.584 0 22.577 0Z" fill="#D99E82"/>
    <path d="M13.331 4.063a1.37 1.37 0 1 0-1.476 2.309c.638.408 2.255.713 2.664.075.407-.638-.55-1.977-1.188-2.384Zm12.472-1.326c-.72.233-1.985 1.289-1.75 2.009.235.72 1.876.83 2.596.597a1.37 1.37 0 0 0-.846-2.606Zm13.978 9.014c-.58-.487-2.03.288-2.52.867a1.37 1.37 0 0 0 2.1 1.763c.488-.58 1-2.144.42-2.63Zm-4.668-6.407a1.372 1.372 0 0 0-1.476 2.31c.638.409 2.255.714 2.663.076.408-.64-.549-1.978-1.187-2.386Zm-19.22 8.97A1.372 1.372 0 0 0 14 14.73a1.369 1.369 0 0 0 .418 1.891c.638.409 2.255.715 2.662.076.409-.638-.548-1.977-1.186-2.385Zm3.904-6.161c-.431.622-.795 2.228-.17 2.658.622.43 1.994-.479 2.425-1.102a1.37 1.37 0 0 0-2.255-1.556Zm10.191 6.16a1.372 1.372 0 0 0-1.894.418 1.368 1.368 0 0 0 .418 1.891c.638.409 2.255.715 2.662.076.41-.638-.548-1.977-1.186-2.385ZM5.853 9.333c-.504.565-1.067 2.111-.502 2.616.563.505 2.039-.223 2.543-.788a1.37 1.37 0 1 0-2.04-1.828Z" fill="#FFE8B6"/>
</svg>