<svg width="45" height="45" fill="none" xmlns="http://www.w3.org/2000/svg">
    <path d="M16.151 4.479c-.681-5.23-7.22-5.518-8.017-2.727L6.937 6.937 1.752 8.134c-2.791.797-2.501 7.336 2.726 8.018l3.92.512c5.227.68 8.947-3.038 8.264-8.265l-.51-3.92Zm24.371 24.368c5.228.682 5.517 7.223 2.727 8.019l-5.185 1.197-1.199 5.186c-.795 2.79-7.336 2.5-8.017-2.728l-.51-3.92c-.682-5.227 3.037-8.947 8.264-8.264l3.92.51Z" fill="#DD2E44"/>
    <path d="m38.211 28.546-1.609-.21c-5.227-.682-8.947 3.036-8.265 8.264l.112.856c2.081-.344 4.427-1.586 6.434-3.593 1.655-1.653 2.787-3.539 3.328-5.317ZM7.95 16.605l.448.058c5.228.682 8.947-3.037 8.265-8.264l-.153-1.168c-1.69.574-3.46 1.673-5.023 3.237-1.912 1.911-3.127 4.13-3.537 6.137Z" fill="#BE1931"/>
    <path d="M23.184 35.834c7.548 0 13.667-6.119 13.667-13.667S30.732 8.5 23.184 8.5 9.517 14.62 9.517 22.168c0 7.547 6.119 13.666 13.667 13.666Z" fill="#DD2E44"/>
    <path d="M23.147 21.753c.5 3.776-.81 8.648-3.327 11.666 1.078.32 2.207.489 3.363.489.938 0 1.857-.122 2.746-.335.722-3.318.329-7.605-2.782-11.82Zm0 0c4.372.814 7.997 4.216 8.699 8.32a11.634 11.634 0 0 0 3.011-6.66c-2.388-2.424-6.29-4.116-11.71-1.66Zm0 0c1.346-2.912 5.786-5.567 10.055-5.695a11.783 11.783 0 0 0-1.716-2.196 11.64 11.64 0 0 0-3.299-2.303c-3.045 1.593-5.712 4.68-5.04 10.194Z" fill="#F5F8FA"/>
    <path d="M23.201 21.806c-3.606-1.9-5.873-6.467-4.898-10.305a11.639 11.639 0 0 0-3.422 2.362 11.672 11.672 0 0 0-1.812 2.366c1.652 2.513 4.817 4.913 10.132 5.578Zm-.108 0c-3.297 1.998-7.995 3.069-11.494 2.16a11.629 11.629 0 0 0 2.42 5.53c3.046-.912 6.499-3.212 9.074-7.69Z" fill="#F5F8FA"/>
</svg>