<svg width="45" height="45" viewBox="0 0 117 117" fill="none" xmlns="http://www.w3.org/2000/svg">
<path d="M21.4166 95.0486C24.1462 95.0486 26.3589 92.8359 26.3589 90.1063C26.3589 87.3768 24.1462 85.1641 21.4166 85.1641C18.6871 85.1641 16.4744 87.3768 16.4744 90.1063C16.4744 92.8359 18.6871 95.0486 21.4166 95.0486Z" fill="#CCD6DD"/>
<path d="M29.3901 43.1023C29.5581 42.3214 29.6537 41.5141 29.6537 40.6838C29.6537 34.3149 24.4906 29.1519 18.1217 29.1519C12.3096 29.1519 7.5518 33.4615 6.75445 39.0529C6.69843 39.0529 6.64572 39.0364 6.5897 39.0364C2.95219 39.0364 0 41.9886 0 45.6261C0 49.2636 2.95219 52.2158 6.5897 52.2158C6.69843 52.2158 6.79728 52.1895 6.90271 52.1829C6.71161 52.71 6.5897 53.2702 6.5897 53.8632C6.5897 55.3789 7.28821 56.7199 8.36563 57.6293C7.27174 58.8055 6.5897 60.3673 6.5897 62.1004C6.5897 65.7379 9.54189 68.6901 13.1794 68.6901C13.1794 69.9256 13.5418 71.0657 14.1316 72.0541C11.7363 72.3935 9.88456 74.4363 9.88456 76.9272C9.88456 79.6553 12.0987 81.8695 14.8268 81.8695C17.555 81.8695 19.7691 79.6553 19.7691 76.9272C19.7691 76.3341 19.6472 75.774 19.4561 75.2468C19.5615 75.2534 19.6604 75.2798 19.7691 75.2798C23.4066 75.2798 26.3588 72.3276 26.3588 68.6901C26.3588 66.7099 25.4692 64.957 24.0854 63.7478C25.4659 62.5386 26.3588 60.7857 26.3588 58.8055C26.3588 57.5601 25.9931 56.4069 25.3901 55.4118C25.7097 55.4612 26.026 55.5107 26.3588 55.5107C29.9963 55.5107 32.9485 52.5585 32.9485 48.921C32.9485 46.3806 31.4955 44.2027 29.3901 43.1023Z" fill="#CCD6DD"/>
<path d="M16.4743 65.3949C18.294 65.3949 19.7691 63.9197 19.7691 62.1C19.7691 60.2803 18.294 58.8052 16.4743 58.8052C14.6546 58.8052 13.1794 60.2803 13.1794 62.1C13.1794 63.9197 14.6546 65.3949 16.4743 65.3949Z" fill="#E4EBEF"/>
<path d="M26.3587 42.3309C26.3587 38.6901 23.4098 35.7412 19.769 35.7412C16.1282 35.7412 13.1793 38.6901 13.1793 42.3309C13.1793 42.4364 13.2057 42.5385 13.2123 42.6439C12.6851 42.4528 12.125 42.3309 11.5319 42.3309C8.80045 42.3309 6.5896 44.5418 6.5896 47.2732C6.5896 50.0046 8.80045 52.2155 11.5319 52.2155C12.1843 52.2155 12.8004 52.0837 13.3704 51.853C13.9371 53.9552 15.8383 55.5103 18.1216 55.5103C20.853 55.5103 23.0639 53.2995 23.0639 50.568C23.0639 49.7509 22.8464 48.9931 22.4971 48.3144C24.7706 47.2765 26.3587 44.9965 26.3587 42.3309Z" fill="#E4EBEF"/>
<path d="M21.7856 9.63237C21.7856 9.63237 19.0937 7.00308 18.9092 6.85811C19.6769 4.82189 19.4496 2.67694 18.0855 1.28322C16.0196 -0.746411 12.2931 -0.32467 9.72974 2.23872L2.74136 9.22711C0.181259 11.7872 -0.243777 15.517 1.78585 17.5828C3.17957 18.9436 5.32123 19.1743 7.36074 18.4066C7.50901 18.5878 10.135 21.283 10.135 21.283C12.7083 23.853 16.8796 23.853 19.4528 21.283L21.7823 18.9502C24.3556 16.3769 24.3556 12.2057 21.7856 9.63237Z" fill="#C1694F"/>
<path d="M19.894 12.6277C20.2103 12.3114 21.1954 11.2702 22.2102 10.1565C22.0686 9.98192 21.9467 9.79741 21.7819 9.63266C21.7819 9.63266 19.09 7.00337 18.9055 6.8584C18.5365 7.84026 17.9533 8.80236 17.1197 9.63266L10.1379 16.621C9.30431 17.4546 8.34222 18.0378 7.36035 18.4069C7.50862 18.5881 10.1346 21.2833 10.1346 21.2833C10.2961 21.4447 10.4839 21.5666 10.6585 21.7116C11.6173 20.8516 12.5827 19.9423 12.9056 19.6227L19.894 12.6277Z" fill="#A95233"/>
<path d="M112.72 77.8722L96.025 61.1772C83.9527 49.1048 71.9001 47.5365 48.7175 38.2944L38.342 48.6699C48.9877 70.4489 49.0042 84.0533 61.0765 96.1257L77.7748 112.824C81.0466 116.096 83.6627 118.788 86.9411 115.513L114.648 87.7963C117.929 84.5146 115.992 81.144 112.72 77.8722Z" fill="#264612"/>
<path d="M51.1231 39.5764C51.1231 39.5764 56.8529 41.6983 49.278 49.2732C42.2863 56.2648 39.6669 51.4181 39.6669 51.4181L28.3096 40.0608L39.9602 28.4102L51.1231 39.5764Z" fill="#FFE8B6"/>
<path d="M40.9716 29.4248L37.6306 26.0806L25.98 37.7279L29.321 41.0721C32.596 44.3439 32.0194 44.5482 38.0325 38.5351L39.9831 36.5813C44.7343 31.8268 44.2433 32.6966 40.9716 29.4248Z" fill="#FFD983"/>
<path d="M38.7937 22.585C40.7245 24.5158 40.7245 27.6459 38.7904 29.5767L29.4759 38.8913C27.5451 40.8253 24.415 40.8253 22.4842 38.8913C20.5534 36.9638 20.5534 33.8304 22.4842 31.8996L31.7988 22.585C33.7328 20.6575 36.863 20.6543 38.7937 22.585Z" fill="#264612"/>
<path d="M91.2148 65.6882C88.6415 63.1182 84.4669 63.1182 81.8937 65.6882L65.5874 81.9977C63.0142 84.5677 63.0142 88.7423 65.5874 91.3156L79.5642 105.292C82.1375 107.866 86.3121 107.866 88.8853 105.292L105.192 88.9861C107.765 86.4128 107.765 82.2383 105.192 79.6683L91.2148 65.6882Z" fill="#FFE8B6"/>
</svg>
