<svg width="491" height="382" fill="none" xmlns="http://www.w3.org/2000/svg">
    <defs>
        <style>
            .stroking_rn {
                stroke-dasharray: 100;
                animation: dash 10s linear infinite;
            }
            .stroking {
                stroke-dasharray: 100;
                animation: dash 8s linear infinite;
            }
            @keyframes dash {
                to {
                    stroke-dashoffset: -1000;
                }
            }
        </style>
    </defs>
    <path d="M380 37.5h54.5S423 184 292 274 28 382 28 382v-34.5s120-73.5 222.5-106S380 37.5 380 37.5Z" fill="#5DACE6"/>
    <path d="M394.5 29c-10.333 52.833-43 165.8-91 195-60 36.5-238 138.5-278.5 128.5" stroke="#5EA6DA" stroke-width="4" stroke-dasharray="30 66 33" class="stroking"/>
    <path d="M405 50c-10.599 52.803-44.106 165.705-93.34 194.888C250.118 281.367 67.541 383.308 26 373.314" stroke="#5EA6DA" stroke-width="4" stroke-dasharray="66 50" class="stroking_rn second"/>
    <path d="M446.75 121.687c0 8.146-6.604 11.063-14.75 11.063s-14.75-2.917-14.75-11.063l3.688-33.187c0-8.146 2.916-7.375 11.062-7.375 8.146 0 11.062-.771 11.062 7.375l3.688 33.187Z" fill="#662113"/>
    <path d="M491 62.688c0 32.586-26.414 44.25-59 44.25-32.583 0-59-11.664-59-44.25C373 30.105 406.188 0 432 0c25.812 0 59 30.105 59 62.688Z" fill="#5C913B"/>
    <path d="M387.75 81.125c4.073 0 7.375-1.65 7.375-3.688 0-2.036-3.302-3.687-7.375-3.687s-7.375 1.65-7.375 3.688c0 2.036 3.302 3.687 7.375 3.687ZM476.25 81.125c4.073 0 7.375-1.65 7.375-3.688 0-2.036-3.302-3.687-7.375-3.687s-7.375 1.65-7.375 3.688c0 2.036 3.302 3.687 7.375 3.687ZM402.5 95.875c4.073 0 7.375-1.65 7.375-3.688 0-2.036-3.302-3.687-7.375-3.687s-7.375 1.65-7.375 3.688c0 2.036 3.302 3.687 7.375 3.687ZM417.25 84.813c4.073 0 7.375-1.651 7.375-3.688s-3.302-3.688-7.375-3.688-7.375 1.651-7.375 3.688 3.302 3.688 7.375 3.688ZM402.5 62.688c4.073 0 7.375-1.651 7.375-3.688s-3.302-3.688-7.375-3.688-7.375 1.651-7.375 3.688 3.302 3.688 7.375 3.688ZM391.438 47.938c4.073 0 7.374-1.651 7.374-3.688s-3.301-3.688-7.374-3.688c-4.074 0-7.376 1.651-7.376 3.688s3.302 3.688 7.376 3.688ZM472.562 47.938c4.074 0 7.376-1.651 7.376-3.688s-3.302-3.688-7.376-3.688c-4.073 0-7.374 1.651-7.374 3.688s3.301 3.688 7.374 3.688ZM417.25 40.563c4.073 0 7.375-1.651 7.375-3.688s-3.302-3.688-7.375-3.688-7.375 1.651-7.375 3.688 3.302 3.688 7.375 3.688ZM446.75 40.563c4.073 0 7.375-1.651 7.375-3.688s-3.302-3.688-7.375-3.688-7.375 1.651-7.375 3.688 3.302 3.688 7.375 3.688ZM461.5 62.688c4.073 0 7.375-1.651 7.375-3.688s-3.302-3.688-7.375-3.688-7.375 1.651-7.375 3.688 3.302 3.688 7.375 3.688ZM432 66.375c4.073 0 7.375-1.65 7.375-3.688 0-2.036-3.302-3.687-7.375-3.687s-7.375 1.65-7.375 3.688c0 2.036 3.302 3.687 7.375 3.687ZM446.75 84.813c4.073 0 7.375-1.651 7.375-3.688s-3.302-3.688-7.375-3.688-7.375 1.651-7.375 3.688 3.302 3.688 7.375 3.688ZM432 99.563c4.073 0 7.375-1.651 7.375-3.688s-3.302-3.688-7.375-3.688-7.375 1.651-7.375 3.688 3.302 3.688 7.375 3.688ZM461.5 95.875c4.073 0 7.375-1.65 7.375-3.688 0-2.036-3.302-3.687-7.375-3.687s-7.375 1.65-7.375 3.688c0 2.036 3.302 3.687 7.375 3.687Z" fill="#3E721D"/>
    <path d="M344.889 134.167c0 6.504-5.274 8.833-11.778 8.833-6.504 0-11.778-2.329-11.778-8.833l2.945-26.5c0-6.505 2.329-5.889 8.833-5.889s8.834-.616 8.834 5.889l2.944 26.5Z" fill="#662113"/>
    <path d="M380.222 87.056c0 26.02-21.091 35.333-47.111 35.333-26.017 0-47.111-9.313-47.111-35.333C286 61.039 312.5 37 333.111 37c20.611 0 47.111 24.038 47.111 50.056Z" fill="#5C913B"/>
    <path d="M297.778 101.778c3.252 0 5.889-1.318 5.889-2.945 0-1.626-2.637-2.944-5.889-2.944-3.253 0-5.889 1.318-5.889 2.945 0 1.626 2.636 2.944 5.889 2.944ZM368.445 101.778c3.252 0 5.888-1.318 5.888-2.945 0-1.626-2.636-2.944-5.888-2.944-3.253 0-5.889 1.318-5.889 2.945 0 1.626 2.636 2.944 5.889 2.944ZM309.556 113.556c3.252 0 5.889-1.319 5.889-2.945s-2.637-2.944-5.889-2.944c-3.253 0-5.889 1.318-5.889 2.944s2.636 2.945 5.889 2.945ZM321.333 104.722c3.253 0 5.889-1.318 5.889-2.944s-2.636-2.945-5.889-2.945c-3.252 0-5.889 1.319-5.889 2.945s2.637 2.944 5.889 2.944ZM309.556 87.056c3.252 0 5.889-1.319 5.889-2.945s-2.637-2.944-5.889-2.944c-3.253 0-5.889 1.318-5.889 2.944s2.636 2.945 5.889 2.945ZM300.722 75.278c3.253 0 5.889-1.318 5.889-2.945 0-1.626-2.636-2.944-5.889-2.944-3.252 0-5.889 1.318-5.889 2.944 0 1.627 2.637 2.945 5.889 2.945ZM365.5 75.278c3.253 0 5.889-1.318 5.889-2.945 0-1.626-2.636-2.944-5.889-2.944-3.252 0-5.889 1.318-5.889 2.944 0 1.627 2.637 2.945 5.889 2.945ZM321.333 69.389c3.253 0 5.889-1.318 5.889-2.944 0-1.627-2.636-2.945-5.889-2.945-3.252 0-5.889 1.318-5.889 2.945 0 1.626 2.637 2.944 5.889 2.944ZM344.889 69.389c3.252 0 5.889-1.318 5.889-2.944 0-1.627-2.637-2.945-5.889-2.945-3.252 0-5.889 1.318-5.889 2.945 0 1.626 2.637 2.944 5.889 2.944ZM356.667 87.056c3.252 0 5.889-1.319 5.889-2.945s-2.637-2.944-5.889-2.944c-3.252 0-5.889 1.318-5.889 2.944s2.637 2.945 5.889 2.945ZM333.111 90c3.253 0 5.889-1.318 5.889-2.944s-2.636-2.945-5.889-2.945c-3.252 0-5.889 1.319-5.889 2.945S329.859 90 333.111 90ZM344.889 104.722c3.252 0 5.889-1.318 5.889-2.944s-2.637-2.945-5.889-2.945c-3.252 0-5.889 1.319-5.889 2.945s2.637 2.944 5.889 2.944ZM333.111 116.5c3.253 0 5.889-1.318 5.889-2.944s-2.636-2.945-5.889-2.945c-3.252 0-5.889 1.319-5.889 2.945s2.637 2.944 5.889 2.944ZM356.667 113.556c3.252 0 5.889-1.319 5.889-2.945s-2.637-2.944-5.889-2.944c-3.252 0-5.889 1.318-5.889 2.944s2.637 2.945 5.889 2.945Z" fill="#3E721D"/>
    <path d="M305.5 183.875c0 5.614-4.552 7.625-10.167 7.625-5.614 0-10.166-2.011-10.166-7.625L287.708 161c0-5.615 2.011-5.084 7.625-5.084 5.615 0 7.625-.531 7.625 5.084l2.542 22.875Z" fill="#662113"/>
    <path d="M336 143.208c0 22.461-18.206 30.5-40.667 30.5-22.458 0-40.666-8.039-40.666-30.5 0-22.458 22.875-43.208 40.666-43.208C313.125 100 336 120.75 336 143.208Z" fill="#5C913B"/>
    <path d="M264.833 155.917c2.808 0 5.084-1.138 5.084-2.542s-2.276-2.542-5.084-2.542c-2.807 0-5.083 1.138-5.083 2.542s2.276 2.542 5.083 2.542ZM325.833 155.917c2.808 0 5.084-1.138 5.084-2.542s-2.276-2.542-5.084-2.542c-2.807 0-5.083 1.138-5.083 2.542s2.276 2.542 5.083 2.542ZM275 166.083c2.808 0 5.083-1.138 5.083-2.541 0-1.404-2.275-2.542-5.083-2.542-2.807 0-5.083 1.138-5.083 2.542 0 1.403 2.276 2.541 5.083 2.541ZM285.167 158.458c2.807 0 5.083-1.138 5.083-2.541 0-1.404-2.276-2.542-5.083-2.542-2.808 0-5.084 1.138-5.084 2.542 0 1.403 2.276 2.541 5.084 2.541ZM275 143.208c2.808 0 5.083-1.138 5.083-2.541 0-1.404-2.275-2.542-5.083-2.542-2.807 0-5.083 1.138-5.083 2.542 0 1.403 2.276 2.541 5.083 2.541ZM267.375 133.042c2.807 0 5.083-1.138 5.083-2.542s-2.276-2.542-5.083-2.542c-2.807 0-5.083 1.138-5.083 2.542s2.276 2.542 5.083 2.542ZM323.292 133.042c2.807 0 5.083-1.138 5.083-2.542s-2.276-2.542-5.083-2.542c-2.808 0-5.084 1.138-5.084 2.542s2.276 2.542 5.084 2.542ZM285.167 127.958c2.807 0 5.083-1.138 5.083-2.541 0-1.404-2.276-2.542-5.083-2.542-2.808 0-5.084 1.138-5.084 2.542 0 1.403 2.276 2.541 5.084 2.541ZM305.5 127.958c2.807 0 5.083-1.138 5.083-2.541 0-1.404-2.276-2.542-5.083-2.542-2.807 0-5.083 1.138-5.083 2.542 0 1.403 2.276 2.541 5.083 2.541ZM315.667 143.208c2.807 0 5.083-1.138 5.083-2.541 0-1.404-2.276-2.542-5.083-2.542-2.808 0-5.084 1.138-5.084 2.542 0 1.403 2.276 2.541 5.084 2.541ZM295.333 145.75c2.808 0 5.084-1.138 5.084-2.542 0-1.403-2.276-2.541-5.084-2.541-2.807 0-5.083 1.138-5.083 2.541 0 1.404 2.276 2.542 5.083 2.542ZM305.5 158.458c2.807 0 5.083-1.138 5.083-2.541 0-1.404-2.276-2.542-5.083-2.542-2.807 0-5.083 1.138-5.083 2.542 0 1.403 2.276 2.541 5.083 2.541ZM295.333 168.625c2.808 0 5.084-1.138 5.084-2.542 0-1.403-2.276-2.541-5.084-2.541-2.807 0-5.083 1.138-5.083 2.541 0 1.404 2.276 2.542 5.083 2.542ZM315.667 166.083c2.807 0 5.083-1.138 5.083-2.541 0-1.404-2.276-2.542-5.083-2.542-2.808 0-5.084 1.138-5.084 2.542 0 1.403 2.276 2.541 5.084 2.541Z" fill="#3E721D"/>
    <path d="M250.167 218.125c0 6.535-5.299 8.875-11.834 8.875-6.535 0-11.833-2.34-11.833-8.875l2.958-26.625c0-6.535 2.34-5.917 8.875-5.917s8.875-.618 8.875 5.917l2.959 26.625Z" fill="#662113"/>
    <path d="M285.667 170.792c0 26.143-21.191 35.5-47.334 35.5-26.139 0-47.333-9.357-47.333-35.5 0-26.14 26.625-50.292 47.333-50.292 20.709 0 47.334 24.152 47.334 50.292Z" fill="#5C913B"/>
    <path d="M202.833 185.583c3.268 0 5.917-1.324 5.917-2.958 0-1.634-2.649-2.958-5.917-2.958-3.267 0-5.916 1.324-5.916 2.958 0 1.634 2.649 2.958 5.916 2.958ZM273.834 185.583c3.267 0 5.916-1.324 5.916-2.958 0-1.634-2.649-2.958-5.916-2.958-3.268 0-5.917 1.324-5.917 2.958 0 1.634 2.649 2.958 5.917 2.958ZM214.667 197.417c3.267 0 5.916-1.325 5.916-2.959 0-1.633-2.649-2.958-5.916-2.958-3.268 0-5.917 1.325-5.917 2.958 0 1.634 2.649 2.959 5.917 2.959ZM226.5 188.542c3.268 0 5.917-1.325 5.917-2.958 0-1.634-2.649-2.959-5.917-2.959s-5.917 1.325-5.917 2.959c0 1.633 2.649 2.958 5.917 2.958ZM214.667 170.792c3.267 0 5.916-1.325 5.916-2.959 0-1.633-2.649-2.958-5.916-2.958-3.268 0-5.917 1.325-5.917 2.958 0 1.634 2.649 2.959 5.917 2.959ZM205.792 158.958c3.267 0 5.916-1.324 5.916-2.958 0-1.634-2.649-2.958-5.916-2.958-3.268 0-5.917 1.324-5.917 2.958 0 1.634 2.649 2.958 5.917 2.958ZM270.875 158.958c3.268 0 5.917-1.324 5.917-2.958 0-1.634-2.649-2.958-5.917-2.958s-5.917 1.324-5.917 2.958c0 1.634 2.649 2.958 5.917 2.958ZM226.5 153.042c3.268 0 5.917-1.325 5.917-2.959 0-1.633-2.649-2.958-5.917-2.958s-5.917 1.325-5.917 2.958c0 1.634 2.649 2.959 5.917 2.959ZM250.167 153.042c3.267 0 5.916-1.325 5.916-2.959 0-1.633-2.649-2.958-5.916-2.958-3.268 0-5.917 1.325-5.917 2.958 0 1.634 2.649 2.959 5.917 2.959ZM262 170.792c3.268 0 5.917-1.325 5.917-2.959 0-1.633-2.649-2.958-5.917-2.958s-5.917 1.325-5.917 2.958c0 1.634 2.649 2.959 5.917 2.959ZM238.333 173.75c3.268 0 5.917-1.324 5.917-2.958 0-1.634-2.649-2.959-5.917-2.959-3.267 0-5.916 1.325-5.916 2.959 0 1.634 2.649 2.958 5.916 2.958ZM250.167 188.542c3.267 0 5.916-1.325 5.916-2.958 0-1.634-2.649-2.959-5.916-2.959-3.268 0-5.917 1.325-5.917 2.959 0 1.633 2.649 2.958 5.917 2.958ZM238.333 200.375c3.268 0 5.917-1.324 5.917-2.958 0-1.634-2.649-2.958-5.917-2.958-3.267 0-5.916 1.324-5.916 2.958 0 1.634 2.649 2.958 5.916 2.958ZM262 197.417c3.268 0 5.917-1.325 5.917-2.959 0-1.633-2.649-2.958-5.917-2.958s-5.917 1.325-5.917 2.958c0 1.634 2.649 2.959 5.917 2.959Z" fill="#3E721D"/>
    <path d="M154.583 195.087c0-4.583 4.875-10.776 9.167-9.167 18.334 6.875 43.544-4.583 43.544-4.583 5.062 0 15.714 21.214 11.458 22.917a51.38 51.38 0 0 0-1.831.786c4.93 1.705 5.766 5.652 1.831 6.09-20.625 2.291-15.804 32.084-18.334 32.084-3.08 0-6.153-5.99-7.842-11.459h-22.459c-.66 5.395-1.985 11.459-4.075 11.459-1.985 0-5.984-8.117-8.695-20.951-1.682-6.018-2.764-14.97-2.764-27.176Z" fill="#CCD6DD"/>
    <path d="M209.586 211.13c4.583 0 11.335.2 15.98.2s8.351-7.971 5.351-10.959c-2.997-2.991-12.164-5.283-9.873-14.45 1.242-4.971-9.167-6.875-13.75-4.584-11.037 5.519-11.459 22.918 4.583 22.918 0 0-6.875 6.875-2.291 6.875Zm-45.836-25.209c5.927 2.223 12.571 2.523 18.852 1.92 2.533 3.193 4.066 7.318 4.066 11.831 0 10.125-7.694 18.334-17.188 18.334-5.929 0-11.152-3.2-14.244-8.07-.415-4.29-.653-9.206-.653-14.848 0-4.584 4.875-10.776 9.167-9.167ZM192.398 224.88a8.022 8.022 0 1 1 0-16.043 8.022 8.022 0 0 1 0 16.043ZM163.751 229.464a4.584 4.584 0 1 1 0-9.167 4.584 4.584 0 0 1 0 9.167Z" fill="#31373D"/>
    <path d="M207.294 181.337c0 1.265 1.538 2.292 3.438 2.292 1.9 0 10.313-5.611 10.313-6.876 0-1.265-5.111-.705-6.876 0-5.729 2.292-6.875 3.319-6.875 4.584ZM214.169 192.795a2.291 2.291 0 1 1 0-4.583 2.291 2.291 0 0 1 0 4.583Z" fill="#CCD6DD"/>
    <path d="M152.292 215.713a2.289 2.289 0 0 0 2.291-2.292v-11.458c0-3.301 1.286-4.584 4.584-4.584a2.292 2.292 0 1 0 0-4.584c-5.826 0-9.167 3.342-9.167 9.168v11.458a2.29 2.29 0 0 0 2.292 2.292Z" fill="#31373D"/>
    <path d="M125.375 270.969c0 6.558-5.317 8.906-11.875 8.906s-11.875-2.348-11.875-8.906l2.969-26.719c0-6.558 2.348-5.938 8.906-5.938 6.558 0 8.906-.62 8.906 5.938l2.969 26.719Z" fill="#662113"/>
    <path d="M161 223.469c0 26.235-21.265 35.625-47.5 35.625-26.232 0-47.5-9.39-47.5-35.625C66 197.237 92.719 173 113.5 173s47.5 24.237 47.5 50.469Z" fill="#5C913B"/>
    <path d="M77.875 238.313c3.28 0 5.938-1.33 5.938-2.969 0-1.64-2.659-2.969-5.938-2.969-3.28 0-5.938 1.329-5.938 2.969 0 1.639 2.659 2.969 5.938 2.969ZM149.125 238.313c3.279 0 5.938-1.33 5.938-2.969 0-1.64-2.659-2.969-5.938-2.969s-5.937 1.329-5.937 2.969c0 1.639 2.658 2.969 5.937 2.969ZM89.75 250.188c3.28 0 5.938-1.33 5.938-2.969 0-1.64-2.659-2.969-5.938-2.969-3.28 0-5.938 1.329-5.938 2.969 0 1.639 2.659 2.969 5.938 2.969ZM101.625 241.281c3.279 0 5.938-1.329 5.938-2.968 0-1.64-2.659-2.969-5.938-2.969-3.28 0-5.938 1.329-5.938 2.969 0 1.639 2.659 2.968 5.938 2.968ZM89.75 223.469c3.28 0 5.938-1.329 5.938-2.969s-2.659-2.969-5.938-2.969c-3.28 0-5.938 1.329-5.938 2.969s2.659 2.969 5.938 2.969ZM80.844 211.594c3.279 0 5.937-1.329 5.937-2.969s-2.658-2.969-5.937-2.969c-3.28 0-5.938 1.329-5.938 2.969s2.659 2.969 5.938 2.969ZM146.156 211.594c3.279 0 5.938-1.329 5.938-2.969s-2.659-2.969-5.938-2.969-5.937 1.329-5.937 2.969 2.658 2.969 5.937 2.969ZM101.625 205.656c3.279 0 5.938-1.329 5.938-2.968 0-1.64-2.659-2.969-5.938-2.969-3.28 0-5.938 1.329-5.938 2.969 0 1.639 2.659 2.968 5.938 2.968ZM125.375 205.656c3.279 0 5.938-1.329 5.938-2.968 0-1.64-2.659-2.969-5.938-2.969s-5.937 1.329-5.937 2.969c0 1.639 2.658 2.968 5.937 2.968ZM137.25 223.469c3.279 0 5.938-1.329 5.938-2.969s-2.659-2.969-5.938-2.969-5.938 1.329-5.938 2.969 2.659 2.969 5.938 2.969ZM113.5 226.438c3.279 0 5.938-1.33 5.938-2.969 0-1.64-2.659-2.969-5.938-2.969s-5.938 1.329-5.938 2.969c0 1.639 2.659 2.969 5.938 2.969ZM125.375 241.281c3.279 0 5.938-1.329 5.938-2.968 0-1.64-2.659-2.969-5.938-2.969s-5.937 1.329-5.937 2.969c0 1.639 2.658 2.968 5.937 2.968ZM113.5 253.156c3.279 0 5.938-1.329 5.938-2.968 0-1.64-2.659-2.969-5.938-2.969s-5.938 1.329-5.938 2.969c0 1.639 2.659 2.968 5.938 2.968ZM137.25 250.188c3.279 0 5.938-1.33 5.938-2.969 0-1.64-2.659-2.969-5.938-2.969s-5.938 1.329-5.938 2.969c0 1.639 2.659 2.969 5.938 2.969Z" fill="#3E721D"/>
    <path d="M62.5 320.125c0 6.903-5.597 9.375-12.5 9.375s-12.5-2.472-12.5-9.375L40.625 292c0-6.903 2.472-6.25 9.375-6.25 6.903 0 9.375-.653 9.375 6.25l3.125 28.125Z" fill="#662113"/>
    <path d="M100 270.125c0 27.616-22.384 37.5-50 37.5-27.613 0-50-9.884-50-37.5C0 242.512 28.125 217 50 217s50 25.512 50 53.125Z" fill="#5C913B"/>
    <path d="M12.5 285.75c3.452 0 6.25-1.399 6.25-3.125s-2.798-3.125-6.25-3.125-6.25 1.399-6.25 3.125 2.798 3.125 6.25 3.125ZM87.5 285.75c3.452 0 6.25-1.399 6.25-3.125s-2.798-3.125-6.25-3.125-6.25 1.399-6.25 3.125 2.798 3.125 6.25 3.125ZM25 298.25c3.452 0 6.25-1.399 6.25-3.125S28.452 292 25 292c-3.451 0-6.25 1.399-6.25 3.125s2.799 3.125 6.25 3.125ZM37.5 288.875c3.452 0 6.25-1.399 6.25-3.125s-2.798-3.125-6.25-3.125-6.25 1.399-6.25 3.125 2.798 3.125 6.25 3.125ZM25 270.125c3.452 0 6.25-1.399 6.25-3.125s-2.798-3.125-6.25-3.125c-3.451 0-6.25 1.399-6.25 3.125s2.799 3.125 6.25 3.125ZM15.625 257.625c3.452 0 6.25-1.399 6.25-3.125s-2.798-3.125-6.25-3.125-6.25 1.399-6.25 3.125 2.798 3.125 6.25 3.125ZM84.375 257.625c3.452 0 6.25-1.399 6.25-3.125s-2.798-3.125-6.25-3.125-6.25 1.399-6.25 3.125 2.798 3.125 6.25 3.125ZM37.5 251.375c3.452 0 6.25-1.399 6.25-3.125s-2.798-3.125-6.25-3.125-6.25 1.399-6.25 3.125 2.798 3.125 6.25 3.125ZM62.5 251.375c3.452 0 6.25-1.399 6.25-3.125s-2.798-3.125-6.25-3.125-6.25 1.399-6.25 3.125 2.798 3.125 6.25 3.125ZM75 270.125c3.452 0 6.25-1.399 6.25-3.125s-2.798-3.125-6.25-3.125-6.25 1.399-6.25 3.125 2.798 3.125 6.25 3.125ZM50 273.25c3.452 0 6.25-1.399 6.25-3.125S53.452 267 50 267s-6.25 1.399-6.25 3.125 2.798 3.125 6.25 3.125ZM62.5 288.875c3.452 0 6.25-1.399 6.25-3.125s-2.798-3.125-6.25-3.125-6.25 1.399-6.25 3.125 2.798 3.125 6.25 3.125ZM50 301.375c3.452 0 6.25-1.399 6.25-3.125s-2.798-3.125-6.25-3.125-6.25 1.399-6.25 3.125 2.798 3.125 6.25 3.125ZM75 298.25c3.452 0 6.25-1.399 6.25-3.125S78.452 292 75 292s-6.25 1.399-6.25 3.125 2.798 3.125 6.25 3.125Z" fill="#3E721D"/>
</svg>