<svg width="45" height="49" fill="none" xmlns="http://www.w3.org/2000/svg">
    <path d="M6.207 5.351c4.013 0 6.688 2.675 10.701 8.026 4.013 5.351 10.644 9.62 16.053 10.702C39.649 25.416 45 30.767 45 38.794c0 6.55-5.145 9.363-12.04 9.363-6.688 0-12.039-4.013-18.727-10.701C7.544 30.767.856 18.728.856 13.377c0-5.35 1.338-8.026 5.35-8.026Z" fill="#744EAA"/>
    <path d="M2.883 0c1.67 0 1.67 1.67 1.67 3.338 0 2.36 1.668 1.51 3.338 1.51 1.667 0 5.004 3.178 5.004 3.178H7.89c-1.67 0 0 3.497-1.67 3.497s-1.67-1.59-3.337-1.59c-1.669 0-2.027 4.782-2.027 4.782s-2.146-5.556.357-8.059C2.883 4.986-.455 0 2.883 0Z" fill="#77B255"/>
</svg>