<svg width="44" height="45" viewBox="0 0 44 45" fill="none" xmlns="http://www.w3.org/2000/svg">
<path d="M0.0762289 6.27248C0.0762289 6.27248 6.07003 0.125 12.3712 0.125C19.9031 0.125 22.1309 6.19503 22.1309 6.19503C22.1309 6.19503 22.8994 1.27704 28.2784 1.27704C33.6575 1.27704 36.8087 5.11922 36.8087 5.11922C36.8087 5.11922 32.4292 7.7319 31.1222 8.26919C27.6784 9.6868 17.1367 12.6487 12.2187 11.4192C7.30075 10.1897 0.0762289 6.27248 0.0762289 6.27248Z" fill="#5C913B"/>
<path d="M20.9014 7.34829C20.9014 7.34829 22.1826 6.24666 28.2784 6.24666C36.3218 6.24666 43.0324 12.163 43.0324 22.1404C43.0324 36.3177 24.6416 44.125 24.6416 44.125C24.6416 44.125 0 42.7984 0 22.074C0 9.82942 8.2991 6.1188 13.5245 6.1188C19.6203 6.1188 20.9014 7.34829 20.9014 7.34829Z" fill="#FF886C"/>
<path d="M0.0762289 6.27248C0.0762289 6.27248 6.07003 0.125 12.3712 0.125C19.9031 0.125 22.1309 6.19503 22.1309 6.19503C22.1309 6.19503 17.1367 12.6499 12.2187 11.4204C7.30075 10.1909 0.0762289 6.27248 0.0762289 6.27248Z" fill="#77B255"/>
<path d="M27.0477 36.8562C26.8141 36.8562 26.5768 36.7886 26.3666 36.6497C25.801 36.2722 25.6485 35.5099 26.026 34.9443C26.0444 34.9173 28.2784 31.3702 28.2784 23.3318C28.2784 15.4076 22.6498 10.813 22.592 10.7675C22.0621 10.3433 21.976 9.56999 22.4002 9.04008C22.8256 8.51017 23.599 8.4241 24.1289 8.84828C24.3981 9.06344 30.7374 14.2384 30.7374 23.3318C30.7374 32.2087 28.1813 36.1456 28.0719 36.3091C27.8358 36.6644 27.4448 36.8562 27.0477 36.8562Z" fill="#DD2E44"/>
</svg>
