<svg width="46" height="45" fill="none" xmlns="http://www.w3.org/2000/svg">
    <path d="M21.964 39.644c-6.017 6.017-14.185 7.054-18.584 2.654C-1.02 37.9.194 29.558 6.036 23.715c4.247-4.247 8.495-4.247 11.68-7.433 3.186-3.184 2.124-6.37 6.903-11.15C30.46-.706 37.892-1.769 42.671 3.01c4.777 4.779 3.584 12.345-2.124 18.052-4.778 4.778-7.964 3.716-11.15 6.9-3.187 3.188-3.187 7.434-7.433 11.683Z" fill="#D99E82"/>
    <path d="M10.516 26.833a1.265 1.265 0 0 1-.7-2.321c.863-.571 1.82-1.08 2.841-1.51 4.985-1.92 8.736-5.327 9.828-8.907a1.267 1.267 0 0 1 2.423.738c-1.315 4.31-5.645 8.34-11.304 10.516-.842.355-1.658.789-2.39 1.273-.216.143-.458.21-.698.21ZM4.13 38.144h-.027a1.268 1.268 0 0 1-1.24-1.292c.06-2.74.488-6.222 3.293-8.862a1.267 1.267 0 0 1 1.737 1.844c-2.11 1.983-2.446 4.688-2.497 7.072a1.267 1.267 0 0 1-1.266 1.238Zm5.222-.897a1.266 1.266 0 0 1-1.228-1.58c.711-2.773 2.255-6.679 7.436-8.574a1.267 1.267 0 0 1 .868 2.379c-4.013 1.467-5.236 4.417-5.854 6.824a1.26 1.26 0 0 1-1.222.95Zm22.36-13.975a1.267 1.267 0 0 1-.42-2.46c5.415-1.91 8.668-5.63 9.943-11.368a1.271 1.271 0 0 1 1.51-.96c.682.152 1.112.827.962 1.51-1.461 6.569-5.354 11.013-11.574 13.207-.138.047-.281.071-.42.071Z" fill="#C1694F"/>
    <path d="M31.08 18.578a1.266 1.266 0 0 1-.466-2.443c2.18-.863 4.277-2.864 5.216-4.98a1.268 1.268 0 0 1 1.67-.644c.64.285.926 1.032.644 1.671-1.21 2.723-3.8 5.198-6.597 6.306-.153.062-.31.09-.466.09Zm-11.022 9.124a1.266 1.266 0 0 1-.478-2.438c1.208-.493 2.504-1.702 2.868-2.318a1.265 1.265 0 1 1 2.18 1.284c-.649 1.105-2.359 2.67-4.092 3.378a1.252 1.252 0 0 1-.478.094ZM25.12 11.67a1.265 1.265 0 0 1-1.196-1.68c.506-1.459 1.561-2.855 2.688-3.56a1.265 1.265 0 0 1 1.343 2.147c-.533.333-1.287 1.232-1.64 2.243-.181.523-.671.85-1.195.85ZM8.296 42.677c-.62 0-1.16-.453-1.25-1.085-.082-.57 0-1.586.123-2.14a1.278 1.278 0 0 1 1.51-.961c.682.152 1.113.829.96 1.511-.08.362-.113 1.043-.086 1.234a1.267 1.267 0 0 1-1.257 1.44Z" fill="#C1694F"/>
</svg>