<svg width="293" height="231" fill="none" xmlns="http://www.w3.org/2000/svg">
    <path d="M69.53 154.583c0 6.934-5.622 9.417-12.556 9.417-6.933 0-12.555-2.483-12.555-9.417l3.139-28.25c0-6.934 2.483-6.278 9.416-6.278 6.934 0 9.417-.656 9.417 6.278l3.139 28.25Z" fill="#662113"/>
    <path d="M99.054 136.682C77.198 117.959 68.346 91.15 56.974 91.15s-20.224 26.809-42.077 45.532c-9.184 7.869-4.809 12.421 7.781 11.511 11.225-.81 21.719-3.356 34.296-3.356 12.578 0 23.077 2.549 34.295 3.356 12.594.91 16.966-3.642 7.785-11.511Z" fill="#5C913B"/>
    <path d="M91.812 129.43c-16.796-15.402-26.235-37.46-34.983-37.46-8.742 0-18.184 22.058-34.98 37.46-13.346 12.236 17.49 14.982 34.98 0 17.48 14.982 48.326 12.236 34.983 0Z" fill="#3E721D"/>
    <path d="M91.957 116.788c-16.796-14.389-26.234-34.992-34.982-34.992-8.742 0-18.184 20.603-34.98 34.992-13.347 11.432 17.49 13.996 34.98 0 17.48 13.996 48.326 11.432 34.982 0Z" fill="#5C913B"/>
    <path d="M84.283 106.568C71.172 95.337 63.805 79.25 56.975 79.25c-6.824 0-14.197 16.087-27.309 27.318-10.418 8.927 13.655 10.929 27.309 0 13.65 10.929 37.73 8.927 27.308 0Z" fill="#3E721D"/>
    <path d="M84.283 97.223C71.172 85.99 63.805 69.905 56.975 69.905c-6.824 0-14.197 16.087-27.309 27.318-10.418 8.927 13.655 10.927 27.309 0 13.65 10.927 37.73 8.924 27.308 0Z" fill="#5C913B"/>
    <path d="M79.012 88.921C68.43 79.856 62.486 66.874 56.974 66.874c-5.509 0-11.457 12.982-22.038 22.047-8.41 7.204 11.02 8.817 22.038 0 11.017 8.82 30.45 7.204 22.038 0Z" fill="#3E721D"/>
    <path d="M79.012 81.883C68.43 72.818 62.486 59.836 56.974 59.836c-5.509 0-11.457 12.982-22.038 22.047-8.41 7.204 11.02 8.817 22.038 0 11.017 8.82 30.45 7.204 22.038 0Z" fill="#5C913B"/>
    <path d="M73.745 71.528c-8.052-6.9-12.578-16.778-16.771-16.778-4.19 0-8.72 9.882-16.771 16.778-6.398 5.483 8.383 6.71 16.77 0 8.385 6.71 23.172 5.48 16.772 0Z" fill="#3E721D"/>
    <path d="M73.745 67.777C65.693 60.881 61.167 51 56.974 51c-4.19 0-8.72 9.881-16.771 16.777-6.398 5.484 8.383 6.711 16.77 0 8.385 6.711 23.172 5.48 16.772 0Z" fill="#5C913B"/>
    <path d="M135.769 130.099c0 8.709-7.061 11.828-15.769 11.828-8.709 0-15.77-3.119-15.77-11.828l3.942-35.481c0-8.71 3.119-7.885 11.828-7.885 8.708 0 11.827-.824 11.827 7.885l3.942 35.481Z" fill="#662113"/>
    <path d="M172.851 107.616C145.4 84.1 134.282 50.428 119.999 50.428c-14.283 0-25.401 33.672-52.848 57.188-11.536 9.884-6.04 15.6 9.773 14.457 14.098-1.017 27.278-4.214 43.075-4.214 15.797 0 28.985 3.201 43.075 4.214 15.817 1.143 21.309-4.573 9.777-14.457Z" fill="#5C913B"/>
    <path d="M163.755 98.508c-21.096-19.346-32.95-47.05-43.938-47.05-10.98 0-22.838 27.704-43.934 47.05-16.763 15.367 21.967 18.817 43.934 0 21.955 18.817 60.697 15.367 43.938 0Z" fill="#3E721D"/>
    <path d="M163.938 82.63C142.842 64.556 130.987 38.68 120 38.68c-10.98 0-22.839 25.877-43.934 43.95-16.764 14.358 21.967 17.578 43.934 0 21.955 17.578 60.697 14.358 43.938 0Z" fill="#5C913B"/>
    <path d="M154.299 69.793C137.831 55.687 128.579 35.482 120 35.482c-8.571 0-17.832 20.205-34.3 34.31-13.084 11.213 17.15 13.728 34.3 0 17.145 13.728 47.388 11.213 34.299 0Z" fill="#3E721D"/>
    <path d="M154.299 58.056c-16.468-14.11-25.72-34.311-34.299-34.311-8.571 0-17.832 20.205-34.3 34.31-13.084 11.213 17.15 13.724 34.3 0 17.145 13.724 47.388 11.21 34.299 0Z" fill="#5C913B"/>
    <path d="M147.678 47.629c-13.289-11.386-20.756-27.692-27.679-27.692-6.919 0-14.39 16.306-27.68 27.692-10.562 9.048 13.842 11.074 27.68 0 13.838 11.078 38.245 9.048 27.679 0Z" fill="#3E721D"/>
    <path d="M147.678 38.79c-13.289-11.386-20.756-27.692-27.679-27.692-6.919 0-14.39 16.306-27.68 27.691-10.562 9.048 13.842 11.074 27.68 0 13.838 11.078 38.245 9.048 27.679 0Z" fill="#5C913B"/>
    <path d="M141.063 25.783C130.951 17.117 125.266 4.71 119.999 4.71c-5.264 0-10.952 12.41-21.065 21.072-8.034 6.887 10.53 8.429 21.065 0 10.53 8.429 29.103 6.883 21.064 0Z" fill="#3E721D"/>
    <path d="M141.063 21.072C130.951 12.411 125.266 0 119.999 0c-5.264 0-10.952 12.41-21.065 21.072-8.034 6.888 10.53 8.43 21.065 0 10.53 8.43 29.103 6.884 21.064 0Z" fill="#5C913B"/>
    <path d="M186.656 144.257c0 7.179-5.824 9.753-13.003 9.753s-13.003-2.569-13.003-9.753l3.249-29.256c0-7.179 2.57-6.504 9.754-6.504 7.179 0 9.753-.68 9.753 6.504l3.25 29.256Z" fill="#662113"/>
    <path d="M215.091 104.713c-21.523-19.39-30.24-47.154-41.438-47.154-11.198 0-19.915 27.764-41.434 47.154-9.045 8.15-4.736 12.862 7.662 11.92 11.053-.84 21.388-3.475 33.772-3.475 12.384 0 22.724 2.64 33.771 3.475 12.398.942 16.708-3.775 7.667-11.92Z" fill="#5C913B"/>
    <path d="M208.1 97.028c-16.539-15.948-25.833-38.794-34.447-38.794-8.609 0-17.903 22.846-34.442 38.794-13.144 12.674 17.223 15.516 34.442 0 17.214 15.516 47.586 12.674 34.447 0Z" fill="#3E721D"/>
    <path d="M208.1 84.11c-16.539-14.903-25.833-36.243-34.447-36.243-8.609 0-17.903 21.34-34.442 36.242-13.144 11.84 17.223 14.494 34.442 0 17.214 14.494 47.586 11.836 34.447 0Z" fill="#5C913B"/>
    <path d="M200.545 73.526c-12.909-11.634-20.168-28.295-26.892-28.295-6.72 0-13.978 16.66-26.892 28.295-10.26 9.242 13.444 11.32 26.892 0 13.444 11.315 37.152 9.242 26.892 0Z" fill="#3E721D"/>
    <path d="M200.545 63.843c-12.909-11.634-20.168-28.295-26.892-28.295-6.72 0-13.978 16.661-26.892 28.295-10.26 9.242 13.444 11.32 26.892 0 13.444 11.32 37.152 9.247 26.892 0Z" fill="#5C913B"/>
    <path d="M195.355 55.248c-10.42-9.388-16.277-22.832-21.702-22.832-5.425 0-11.282 13.444-21.701 22.832-8.282 7.46 10.85 9.134 21.701 0 10.851 9.134 29.987 7.46 21.702 0Z" fill="#3E721D"/>
    <path d="M195.355 47.96c-10.42-9.388-16.277-22.832-21.702-22.832-5.425 0-11.282 13.444-21.701 22.832-8.282 7.46 10.85 9.134 21.701 0 10.851 9.134 29.987 7.46 21.702 0Z" fill="#5C913B"/>
    <path d="M190.168 37.23c-7.924-7.14-12.384-17.372-16.515-17.372-4.126 0-8.586 10.231-16.515 17.373-6.303 5.678 8.257 6.95 16.515 0 8.258 6.954 22.818 5.678 16.515 0Z" fill="#3E721D"/>
    <path d="M190.168 32.373C182.244 25.232 177.784 15 173.653 15c-4.126 0-8.586 10.232-16.515 17.373-6.303 5.679 8.257 6.95 16.515 0 8.258 6.95 22.818 5.679 16.515 0Z" fill="#5C913B"/>
    <path d="M122.4 167a4.698 4.698 0 0 1-4.426-3.123L94.472 98.074c-.516-1.44-.296-2.945.586-4.202.881-1.243 2.316-1.899 3.845-1.899h55.14c1.88 0 3.582 1.032 4.323 2.762l28.201 65.756a4.659 4.659 0 0 1-.394 4.417 4.705 4.705 0 0 1-3.934 2.092H122.4Z" fill="#F4900C"/>
    <path d="M70.698 166.999a4.71 4.71 0 0 1-3.925-2.11 4.728 4.728 0 0 1-.394-4.445l28.22-65.846a4.7 4.7 0 0 1 4.318-2.846 4.709 4.709 0 0 1 4.323 2.846l28.22 65.841a4.715 4.715 0 0 1-.399 4.445 4.702 4.702 0 0 1-3.925 2.115H70.698Z" fill="#FFCC4D"/>
    <path d="M98.903 103.396 89.496 167H108.3l-9.397-63.604Z" fill="#292F33"/>
    <path d="m117.833 161.781 2.101 5.219H108.3l9.533-5.219Zm-37.865 0-2.1 5.219h11.628l-9.528-5.219Z" fill="#FFAC33"/>
    <path d="M108.3 167s8.548-2.18 12.726-6.04l-22.123-57.564L108.3 167Zm-18.804 0s-8.548-2.18-12.726-6.04l22.128-57.569L89.496 167Z" fill="#FFE8B6"/>
    <path d="M240.085 190.75c0 10.492-8.507 14.25-19 14.25-10.492 0-19-3.758-19-14.25l4.75-42.75c0-10.493 3.758-9.5 14.25-9.5 10.493 0 14.25-.993 14.25 9.5l4.75 42.75Z" fill="#662113"/>
    <path d="M284.763 163.661c-33.074-28.334-46.469-68.904-63.678-68.904-17.21 0-30.605 40.57-63.674 68.904-13.899 11.908-7.277 18.796 11.775 17.418 16.986-1.225 32.865-5.078 51.899-5.078 19.033 0 34.922 3.857 51.898 5.078 19.057 1.378 25.674-5.51 11.78-17.418Z" fill="#5C913B"/>
    <path d="M273.804 152.687C248.387 129.378 234.104 96 220.865 96c-13.228 0-27.516 33.378-52.934 56.687-20.197 18.515 26.467 22.671 52.934 0 26.453 22.671 73.131 18.515 52.939 0Z" fill="#3E721D"/>
    <path d="M274.024 133.555c-25.417-21.774-39.7-52.953-52.938-52.953-13.229 0-27.517 31.179-52.934 52.953-20.197 17.3 26.467 21.181 52.934 0 26.452 21.181 73.131 17.3 52.938 0Z" fill="#5C913B"/>
    <path d="M262.411 118.089c-19.841-16.995-30.989-41.339-41.325-41.339-10.327 0-21.485 24.344-41.325 41.339-15.766 13.509 20.662 16.54 41.325 0 20.657 16.54 57.095 13.509 41.325 0Z" fill="#3E721D"/>
    <path d="M262.411 103.948c-19.841-17-30.989-41.339-41.325-41.339-10.327 0-21.485 24.344-41.325 41.339-15.766 13.509 20.662 16.535 41.325 0 20.657 16.535 57.095 13.505 41.325 0Z" fill="#5C913B"/>
    <path d="M254.434 91.385c-16.012-13.718-25.009-33.364-33.35-33.364-8.336 0-17.337 19.646-33.349 33.364-12.726 10.902 16.677 13.343 33.349 0 16.673 13.348 46.08 10.902 33.35 0Z" fill="#3E721D"/>
    <path d="M254.434 80.735c-16.012-13.718-25.009-33.364-33.35-33.364-8.336 0-17.337 19.646-33.349 33.364-12.726 10.901 16.677 13.343 33.349 0 16.673 13.347 46.08 10.901 33.35 0Z" fill="#5C913B"/>
    <path d="M246.463 65.064c-12.183-10.44-19.033-25.389-25.379-25.389-6.341 0-13.195 14.953-25.379 25.39-9.681 8.297 12.687 10.155 25.379 0 12.687 10.155 35.065 8.293 25.379 0Z" fill="#3E721D"/>
    <path d="M246.463 59.389C234.28 48.953 227.43 34 221.084 34c-6.341 0-13.195 14.953-25.379 25.389-9.681 8.298 12.687 10.155 25.379 0 12.687 10.155 35.065 8.293 25.379 0Z" fill="#5C913B"/>
    <path d="M98.008 185.529c-2.324-16.124-15.085-28.449-36.54-28.449-.853 0-1.807.035-2.805.088a74.177 74.177 0 0 0-12.796 1.629 99.066 99.066 0 0 0-6.554 1.495C37.06 157.235 32.501 154 31.355 154c-1.49 0-.11 5.442-.018 8.878-2.56 1.015-4.901 2.158-6.827 3.441-9.241 6.161-9.241 9.241-19.89 9.241-4.748 0-4.62 4.823-4.62 10.778 0 5.951-.128 7.615 4.62 10.783 6.35 4.235 13.761 10.506 23.13 15.667 5.885 9.154.946 18.212 6.002 18.212 3.566 0 8.165-5.713 10.608-11.472a66.224 66.224 0 0 0 17.107 2.236c3.322 0 6.411-.258 9.311-.712.791 5.655-.465 9.948 3.011 9.948 4.523 0 20.356-14.527 23.905-32.841.174-.835.3-1.693.413-2.565.035-.262.081-.524.11-.789.061-.579.088-1.175.12-1.768 3.042.8 6.251 2.016 6.251-.509 0-2.051-3.255-4.989-6.58-6.999Z" fill="#F4ABBA"/>
    <path d="M30.669 175.56a3.082 3.082 0 0 1-3.08 3.081 3.08 3.08 0 1 1 3.08-3.081Z" fill="#292F33"/>
</svg>