<svg width="45" height="39" fill="none" xmlns="http://www.w3.org/2000/svg">
    <path d="M0 13.58C0 4.52 12.655-5.403 22.78 3.456c3.434 3.005 6.327 5.062 6.327 8.858 15.186-2.53 17.341 11.253 15.186 17.718-1.265 3.796-7.426 13.995-30.372 3.796C2.53 28.766 0 19.128 0 13.58Z" fill="#D99E82"/>
    <path d="M22.096 15.886c2.312-2.198 4.591-3.162 7.149-3.592l-.138.02a6.484 6.484 0 0 0-.676-2.886c-2.625.977-5.426 2.886-6.335 6.458ZM12.655 18.642a1.266 1.266 0 1 0 0-2.531 1.266 1.266 0 0 0 0 2.53ZM37.965 31.297a1.266 1.266 0 1 0 0-2.531 1.266 1.266 0 0 0 0 2.53ZM18.35 31.297a1.898 1.898 0 1 0 0-3.796 1.898 1.898 0 0 0 0 3.796ZM6.96 23.704a1.898 1.898 0 1 0 0-3.797 1.898 1.898 0 0 0 0 3.797Z" fill="#C1694F"/>
</svg>