<svg width="37" height="36" fill="none" xmlns="http://www.w3.org/2000/svg">
    <path d="M36.626 22.484c-.195.858-.638 1.773-1.022 2.159 1.399-4.418 1.399-9.111-2.25-11.167.112 1.107-.11 1.69-.265 2.153-.21-2.22-.578-3.744-2.158-4.927-1.82-1.363-2.611-.452-.736 3.765 2.2 4.945 1.475 8.603.827 11.216-.038.154-.08.29-.12.439.804-5.765-.99-11.722-6.825-14.915-2.99-1.636-5.211-1.852-5.33-3.037-.134-1.377-1.217-3.698-3.81-5.327.444-1.31-.485-2.787-1.117-2.841-.631-.054-2.024 1.039-2.16 2.528-4.694 1.399-9.492 7.219-9.345 8.397.148 1.177.34 2.638 6.57 3.656 1.104.18 3.995 1.835 4.4 5.779.456 4.44 2.276 8.054 4.712 11.216h-1.73c-4.132 0-4.132 4.132-1.377 4.132h10.928l-.002-.002c.36-.003.788-.03 1.304-.085 6.93-.612 10.792-7.35 9.506-13.14Z" fill="#AD743D"/>
    <path d="M12.519 14.99c3.258-.09 4.524-6.049-.682-6.82-.122-1.077-.763-2.614-2.257-2.724-2.348-.173-5.294 2.116-6.099 7.478.881.601 2.467 1.18 5.405 1.661 1.104.18 3.995 1.835 4.4 5.78.531 5.173 2.914 9.223 5.966 12.746.903-.94 1.636-2.325 2.028-4.285 1.378-6.886-7.384-12.458-8.761-13.836Z" fill="#D99E82"/>
    <path d="M8.886 10.547a1.377 1.377 0 1 0 0-2.754 1.377 1.377 0 0 0 0 2.754Z" fill="#292F33"/>
    <path d="M22.448 13.275c4.065 3.34 6.158 7.296 5.402 12.37-.318 2.143.83 2.933 1.688.902.599-1.423.936-9.887-6.05-14.311-1.86-1.177-1.961.284-1.04 1.039Z" fill="#662113"/>
    <path d="M14.428 19.387c-1.243-1.243-4.97 0-6.211-2.488-.786-1.572-3.728 1.245-2.485 3.734 1.242 2.483 4.969 2.483 7.454 1.242 2.485-1.242 1.242-2.488 1.242-2.488Z" fill="#AD743D"/>
    <path d="M15.1 21.086c-1.634-1.062-5.387 1.148-7.308-1.259-1.215-1.523-3.753 2.21-1.832 4.615 1.92 2.405 5.962 1.543 8.368-.378 2.407-1.92.773-2.978.773-2.978Z" fill="#AD743D"/>
    <path d="M5.6 16.867c-.8 0-.8.266-1.6.266s-.8-.266-1.6-.266c-1.067 0-2.4.533-2.4 2.4C0 22.2 1.6 24.6 2.667 24.6c.8 0 .8-.267 1.333-.267.533 0 .533.267 1.333.267C6.4 24.6 8 22.2 8 19.267c0-1.867-1.333-2.4-2.4-2.4Z" fill="#DD2E44"/>
    <path d="M4.267 16.867S5.067 15.8 6.4 15.8c1.067 0 1.6.534 1.6.534s-1.067.8-1.867.8-1.866-.267-1.866-.267Z" fill="#77B255"/>
    <path d="M4 17.667a.267.267 0 0 1-.267-.267c0-.917.32-1.764.879-2.322a.266.266 0 1 1 .377.377c-.46.459-.722 1.168-.722 1.945 0 .147-.12.267-.267.267Z" fill="#662113"/>
</svg>