<svg width="38" height="45" viewBox="0 0 38 45" fill="none" xmlns="http://www.w3.org/2000/svg">
<path d="M24.2782 43.0693C28.5634 41.6409 31.8497 39.3139 31.8534 31.4676C31.8559 26.5028 37.1338 20.981 37.1326 15.9321C37.1313 11.0787 31.4202 3.07894 18.442 4.43803C5.10239 5.83549 0.000237858 9.84096 -0.000999928 18.5958C-0.000999928 24.6944 6.56422 28.9697 10.0585 35.3282C12.3781 39.5478 19.249 47.206 24.2782 43.0693Z" fill="#BE1931"/>
<path d="M28.7812 4.36005C27.1993 3.0678 24.7213 2.44148 22.1591 2.28428C22.497 2.23849 22.83 2.19021 23.1741 2.16793C24.3784 2.08995 27.6474 0.64298 24.907 0.822459C23.7075 0.900439 22.5539 1.14305 21.3954 1.34604C21.6887 1.15542 21.9883 0.96728 22.3113 0.798941C22.2804 -0.0613201 17.3292 -0.0613201 14.8301 2.02806C14.1964 1.88943 13.6159 1.17647 9.90252 1.17647C7.42695 1.17647 4.1035 2.32265 6.18917 2.41425C7.32421 2.465 8.66474 2.41425 8.48897 2.86604C7.67822 2.94031 3.71359 3.65204 3.71359 4.88982C3.71359 5.32676 7.12988 4.67569 7.42695 4.88982C5.29548 5.68696 3.71359 7.36539 3.71359 8.60318C3.71359 9.12676 6.45034 7.58201 7.42695 7.36539C6.18917 8.60318 5.69405 9.47087 5.76584 10.3695C5.81288 10.9574 8.72167 10.2581 9.02369 10.1603C10.0412 9.82611 13.6159 8.60318 14.7175 6.78859C14.8623 7.14135 18.3851 8.44846 19.8048 8.60318C20.4596 8.67497 23.0478 8.94233 22.4549 7.72311C22.2804 7.36539 21.0426 6.12761 20.6651 4.92077C21.2171 4.89725 30.9449 6.12761 28.7812 4.36005Z" fill="#77B255"/>
<path d="M7.84656 21.3598C7.67822 19.5526 4.70259 17.3345 4.96128 20.122C5.12962 21.9292 8.10526 24.1473 7.84656 21.3598ZM17.078 22.0443C16.9926 21.2744 16.7289 20.5701 16.2276 19.976C15.6508 19.2952 14.897 19.5279 14.7002 20.3671C14.4687 21.3561 14.8017 22.5357 15.4503 23.3031L15.501 23.3625C15.2374 22.7127 14.9725 22.0629 14.7064 21.4143L14.7138 21.4724C14.8017 22.2646 15.2052 23.6138 16.1199 23.8317C17.0532 24.0569 17.1423 22.6087 17.078 22.0443ZM24.1977 16.0522C24.7869 14.8701 24.4081 11.1481 23.1691 13.6335C22.5799 14.8144 22.9574 18.5376 24.1977 16.0522ZM33.1234 14.2487C33.0862 13.8068 33.033 13.2832 32.6394 12.9986C31.1677 11.9365 29.6922 15.9185 30.9251 16.8109C30.9498 16.8258 30.9696 16.8419 30.9932 16.8592L30.5834 15.7217C30.5834 15.744 30.5847 15.765 30.5872 15.786C30.6478 16.4842 31.0526 17.4905 31.9289 16.9595C32.7545 16.4569 33.2014 15.1721 33.1234 14.2487ZM31.4586 24.8528C32.7162 22.9107 30.784 20.5812 29.2553 22.9442C27.9977 24.885 29.9311 27.2145 31.4586 24.8528ZM24.3438 28.435C24.5579 26.0362 21.4857 25.0286 21.2369 27.821C21.0228 30.2199 24.095 31.2274 24.3438 28.435ZM12.0946 26.9348L12.034 26.9397L13.7199 27.8248C13.7124 27.8198 13.7062 27.8111 13.6976 27.8037C13.3188 27.4571 12.0228 26.4632 11.4844 27.0709C10.9398 27.6861 12.1008 28.8298 12.4796 29.1789C12.9029 29.5676 13.6283 30.1233 14.2484 30.0825C16.0271 29.9674 13.2792 26.858 12.0946 26.9348ZM28.4668 34.2464C29.6662 32.9269 29.3642 29.2334 27.4791 31.3054C26.2797 32.6249 26.5829 36.3184 28.4668 34.2464ZM11.8817 16.9619C11.9969 16.9558 12.1132 16.9471 12.2283 16.9384C13.0985 16.8815 13.4711 15.1387 13.5181 14.5223C13.5726 13.8155 13.4649 12.7201 12.5464 12.7807L12.1986 12.8042C11.3297 12.8624 10.9559 14.604 10.9088 15.2204C10.8544 15.9272 10.9633 17.0238 11.8817 16.9619ZM21.5934 35.8468C22.0823 36.7925 21.9053 37.8558 21.1973 38.2222C20.4893 38.5885 19.5176 38.1219 19.0275 37.1775C18.5386 36.2318 18.7156 35.1685 19.4236 34.8021C20.1328 34.4358 21.1032 34.9024 21.5934 35.8468Z" fill="#F4ABBA"/>
</svg>
