<svg width="256" height="205" fill="none" xmlns="http://www.w3.org/2000/svg">
    <path d="M73.143 41h21.943v61.5H73.143V41Z" fill="#CCD6DD"/>
    <path d="M168.228 144.572c0 18.279-12.039 33.094-26.88 33.094H27.128c-14.84 0-25.512-10.694-23.83-23.876l4.571-35.813C9.552 104.788 22.44 91.955 36.6 89.283L143.594 67.35c13.633-3.028 24.634 9.313 24.634 27.586v49.637Z" fill="#B91C1C"/>
    <path d="M113.628 130.975c-2.165 14.459 9.186 26.192 25.344 26.192H204.8c16.158 0 29.258-11.733 29.258-26.192V26.192C234.058 11.726 223.43 0 210.323 0h-53.417c-13.107 0-25.483 11.726-27.648 26.192l-15.63 104.783Z" fill="#292F33"/>
    <path d="M126.134 136.667c-.988 7.544 4.754 13.666 12.836 13.666h65.829c8.075 0 14.629-6.122 14.629-13.666V41c0-7.544-5.435-13.667-12.142-13.667h-54.66c-6.707 0-12.953 6.123-13.941 13.667l-12.551 95.667Z" fill="#BBDDF5"/>
    <path d="M102.4 109.333h131.658v68.334H102.4v-68.334Z" fill="#B91C1C"/>
    <path d="M234.057 123H7.314l7.314-13.667h219.429V123Z" fill="#FFCC4D"/>
    <path d="M51.2 205c16.158 0 29.257-12.238 29.257-27.333 0-15.096-13.099-27.334-29.257-27.334s-29.257 12.238-29.257 27.334C21.943 192.762 35.042 205 51.2 205Z" fill="#292F33"/>
    <path d="M51.2 191.333c8.079 0 14.629-6.118 14.629-13.666S59.279 164 51.199 164c-8.078 0-14.628 6.119-14.628 13.667s6.55 13.666 14.629 13.666Z" fill="#FFCC4D"/>
    <path d="M234.057 75.167V102.5L160.914 164l-51.2-6.833 21.943-68.334L153.6 75.167h80.457Z" fill="#B91C1C"/>
    <path d="M125.966 144.258c0-33.552 29.104-60.741 65.017-60.741S256 110.706 256 144.258 226.896 205 190.983 205s-65.017-27.19-65.017-60.742Z" fill="#292F33"/>
    <path d="M231.621 144.258c0 20.965-18.19 37.966-40.638 37.966-22.44 0-40.638-16.995-40.638-37.966 0-20.965 18.19-37.966 40.638-37.966 22.448.007 40.638 17.001 40.638 37.966Z" fill="#FFCC4D"/>
    <path d="M215.361 144.259c0 12.58-10.913 22.776-24.378 22.776-13.473 0-24.386-10.196-24.386-22.776 0-12.587 10.913-22.782 24.386-22.782 13.465 0 24.378 10.202 24.378 22.782Z" fill="#FFE8B6"/>
    <path d="M231.043 13.667C227.005 5.556 219.296 0 210.322 0h-53.417c-8.974 0-17.518 5.556-22.762 13.667h96.9Z" fill="#B91C1C"/>
    <path d="M207.236 144.258c0 8.385-7.278 15.184-16.253 15.184-8.974 0-16.259-6.799-16.259-15.184 0-8.384 7.277-15.19 16.259-15.19 8.975.006 16.253 6.806 16.253 15.19ZM51.2 184.5c4.04 0 7.314-3.059 7.314-6.833s-3.274-6.834-7.314-6.834-7.314 3.06-7.314 6.834c0 3.774 3.274 6.833 7.314 6.833Z" fill="#F4900C"/>
    <path d="M73.143 54.667h21.943v13.666H73.143V54.667Z" fill="#66757F"/>
    <path d="M109.714 162.292c-.688 0-1.39-.089-2.085-.281-3.869-1.072-6.085-4.879-4.937-8.493l14.629-46.125c2.787-13.12 15.711-39.06 43.593-39.06h73.143c4.045 0 7.314 3.062 7.314 6.834S238.102 82 234.057 82h-73.143c-22.996 0-29.338 28.386-29.403 28.673l-14.783 46.726c-.943 2.972-3.854 4.893-7.014 4.893Z" fill="#991B1B"/>
    <path d="M7.321 164c-.307 0-.607-.02-.914-.055-4.008-.464-6.854-3.881-6.349-7.626l7.314-54.666c.498-3.752 4.162-6.396 8.163-5.932 4.008.465 6.854 3.882 6.349 7.626l-7.314 54.667C14.109 161.472 10.956 164 7.32 164Z" fill="#7F1D1D"/>
  </svg>